{
DisplayStrings = (
"/tml_A/tml_E/tml_Ra/tml_Va \012ooooNno/si_Nna n/tml_Va no/si_Ga/si_Tta NO/si_Da/si_Va arssbbongorraettsbviilmon/si_Nna/si_Da/si_Sa/si_La/tml_Va",
"HONOloooeooooiiii nineorernononononobososlinlalolololo\012ltrovititetatotololtolotimn",
"abcdefghijklmnopqrstuvwyxz&"
);
copyright = "Copyright (c) 2015, mooniak";
customParameters = (
{
name = vendorID;
value = PfEd;
},
{
name = glyphOrder;
value = (
    ".notdef",
    uni0D82,
    "si_A",
    "si_U",
    "si_Ga",
    "si_Tta",
    "si_Dda",
    "si_Ddha",
    "si_Nna",
    "si_Da",
    "si_Ma",
    "si_Ya",
    "si_Ra",
    "si_La",
    "si_Va",
    "si_Sa",
    "si_TI",
    uni0020,
    "si_TI.rakar",
    uni0031,
    "NameMe.12",
    uni0044,
    uni0046,
    uni0047,
    uni0049
);
}
);
date = "2015-08-24 15:04:41 +0000";
designerURL = "http://www.mooniak.com/typography";
familyName = "Ayanna Narrow";
fontMaster = (
{
alignmentZones = (
"{725, 7}",
"{675, 7}",
"{500, 7}",
"{0, -7}",
"{-205, -7}"
);
ascender = 725;
capHeight = 675;
customParameters = (
{
name = typoAscender;
value = 819;
},
{
name = typoDescender;
value = -205;
},
{
name = typoLineGap;
value = 92;
},
{
name = underlinePosition;
value = -102;
},
{
name = underlineThickness;
value = 51;
}
);
descender = -205;
horizontalStems = (
20,
29,
30,
31,
32,
33,
34,
35,
80,
84,
109,
122
);
id = "CC11FE7D-5FF0-4B40-9597-DFC61EB94F41";
userData = {
angle = 0;
height = 33;
width = 38;
};
verticalStems = (
27,
28,
32,
87,
96,
105,
115
);
weight = Light;
weightValue = 36;
width = Condensed;
xHeight = 500;
},
{
alignmentZones = (
"{725, 15}",
"{675, 15}",
"{500, 15}",
"{0, -15}",
"{-200, -15}"
);
ascender = 725;
capHeight = 675;
descender = -200;
id = "6114C541-D024-4A3E-9713-6FAF49EAB318";
userData = {
angle = 5;
height = 98;
width = 121;
};
weight = Bold;
weightValue = 105;
width = Condensed;
xHeight = 500;
}
);
glyphs = (
{
glyphname = .notdef;
lastChange = "2015-08-27 12:06:28 +0000";
layers = (
{
layerId = "CC11FE7D-5FF0-4B40-9597-DFC61EB94F41";
name = "Light Condensed";
paths = (
{
closed = 1;
nodes = (
"51 0 LINE",
"461 0 LINE",
"461 546 LINE",
"51 546 LINE"
);
},
{
closed = 1;
nodes = (
"102 51 LINE",
"102 495 LINE",
"410 495 LINE",
"410 51 LINE"
);
}
);
width = 512;
},
{
layerId = "6114C541-D024-4A3E-9713-6FAF49EAB318";
name = "Bold Condensed";
width = 600;
}
);
note = .notdef;
},
{
glyphname = uni0D82;
lastChange = "2015-08-27 12:06:28 +0000";
layers = (
{
layerId = "CC11FE7D-5FF0-4B40-9597-DFC61EB94F41";
name = "Light Condensed";
paths = (
{
closed = 1;
nodes = (
"527 461 OFFCURVE",
"542 388 OFFCURVE",
"542 300 CURVE SMOOTH",
"542 211 OFFCURVE",
"522 30 OFFCURVE",
"420 30 CURVE SMOOTH",
"328 30 OFFCURVE",
"322 168 OFFCURVE",
"322 238 CURVE",
"290 238 LINE",
"290 167 OFFCURVE",
"288 30 OFFCURVE",
"200 30 CURVE SMOOTH",
"127 30 OFFCURVE",
"97 109 OFFCURVE",
"97 188 CURVE SMOOTH",
"97 264 OFFCURVE",
"119 319 OFFCURVE",
"143 353 CURVE",
"322 353 LINE",
"322.982 361.345 OFFCURVE",
"323.455 369.475 OFFCURVE",
"323.455 377.37 CURVE SMOOTH",
"323.455 465.985 OFFCURVE",
"263.864 525 OFFCURVE",
"195 525 CURVE SMOOTH",
"140.704 525 OFFCURVE",
"96.258 485.596 OFFCURVE",
"96.258 427.011 CURVE SMOOTH",
"96.258 413.304 OFFCURVE",
"98.691 398.548 OFFCURVE",
"104 383 CURVE",
"51 383 LINE",
"51 353 LINE",
"107 353 LINE",
"88 317 OFFCURVE",
"65 253 OFFCURVE",
"65 185 CURVE SMOOTH",
"65 79 OFFCURVE",
"113 0 OFFCURVE",
"202 0 CURVE SMOOTH",
"262 0 OFFCURVE",
"293 42 OFFCURVE",
"308 88 CURVE",
"324 42 OFFCURVE",
"357 0 OFFCURVE",
"418 0 CURVE SMOOTH",
"456.117 0 OFFCURVE",
"485.493 13.948 OFFCURVE",
"507.916 37.591 CURVE",
"516.551 17.561 OFFCURVE",
"526 -10.145 OFFCURVE",
"526 -41 CURVE SMOOTH",
"526 -147 OFFCURVE",
"410 -193 OFFCURVE",
"320 -193 CURVE SMOOTH",
"224 -193 OFFCURVE",
"127 -151 OFFCURVE",
"126 -62 CURVE",
"126 -36 OFFCURVE",
"135 -15 OFFCURVE",
"135 -15 CURVE",
"107 -5 LINE",
"107 -5 OFFCURVE",
"96 -30 OFFCURVE",
"96 -67 CURVE SMOOTH",
"97 -144 OFFCURVE",
"170 -223 OFFCURVE",
"320 -223 CURVE SMOOTH",
"470 -223 OFFCURVE",
"557 -138 OFFCURVE",
"557 -43 CURVE SMOOTH",
"557 5.253 OFFCURVE",
"538.241 47.821 OFFCURVE",
"529.01 65.848 CURVE",
"563.276 123.552 OFFCURVE",
"574 211.776 OFFCURVE",
"574 300 CURVE SMOOTH",
"574 484 OFFCURVE",
"514 606 OFFCURVE",
"450 670 CURVE SMOOTH",
"401 719 OFFCURVE",
"332 746 OFFCURVE",
"258 746 CURVE SMOOTH",
"245 746 OFFCURVE",
"235 745 OFFCURVE",
"222 743 CURVE",
"228 714 LINE",
"228 713 LINE",
"307 713 OFFCURVE",
"257 499 OFFCURVE",
"418 499 CURVE SMOOTH",
"461 499 OFFCURVE",
"489 509 OFFCURVE",
"506 518 CURVE"
);
},
{
closed = 1;
nodes = (
"344 703 OFFCURVE",
"401 676 OFFCURVE",
"426 650 CURVE SMOOTH",
"447.424 628.576 OFFCURVE",
"475.223 588.824 OFFCURVE",
"495.171 548.527 CURVE",
"483.767 539.403 OFFCURVE",
"460.917 529 OFFCURVE",
"416 529 CURVE SMOOTH",
"310 529 OFFCURVE",
"328 672 OFFCURVE",
"286 712 CURVE"
);
},
{
closed = 1;
nodes = (
"136 384 LINE",
"131.386 395.997 OFFCURVE",
"128.191 410.926 OFFCURVE",
"128.191 425.85 CURVE SMOOTH",
"128.191 459.441 OFFCURVE",
"144.378 493 OFFCURVE",
"197 493 CURVE SMOOTH",
"256.538 493 OFFCURVE",
"291.178 435.825 OFFCURVE",
"291.178 389.664 CURVE SMOOTH",
"291.178 387.756 OFFCURVE",
"291.119 385.866 OFFCURVE",
"291 384 CURVE"
);
}
);
width = 607;
},
{
layerId = "6114C541-D024-4A3E-9713-6FAF49EAB318";
name = "Bold Condensed";
width = 600;
}
);
note = uni0D82;
},
{
glyphname = si_A;
lastChange = "2015-08-27 12:33:23 +0000";
layers = (
{
layerId = "CC11FE7D-5FF0-4B40-9597-DFC61EB94F41";
name = "Light Condensed";
paths = (
{
closed = 1;
nodes = (
"345.07 34.378 LINE",
"333.106 32.022 OFFCURVE",
"313.938 29 OFFCURVE",
"287 29 CURVE SMOOTH",
"118 29 OFFCURVE",
"74 166 OFFCURVE",
"74 228 CURVE SMOOTH",
"74 332 OFFCURVE",
"141 394 OFFCURVE",
"233 394 CURVE SMOOTH",
"295.476 394 OFFCURVE",
"331.448 374.243 OFFCURVE",
"346.938 363.162 CURVE"
);
},
{
closed = 1;
nodes = (
"379 331 LINE SMOOTH",
"380 457 OFFCURVE",
"377 568 OFFCURVE",
"466 569 CURVE",
"466 569 OFFCURVE",
"452 555 OFFCURVE",
"452 519 CURVE SMOOTH",
"452 493 OFFCURVE",
"466 477 OFFCURVE",
"466 453 CURVE SMOOTH",
"466 428 OFFCURVE",
"448 399 OFFCURVE",
"421 372 CURVE",
"441 352 LINE",
"477 388 OFFCURVE",
"497 419 OFFCURVE",
"497 453 CURVE SMOOTH",
"497 485 OFFCURVE",
"484 496 OFFCURVE",
"484 522 CURVE SMOOTH",
"484 540 OFFCURVE",
"484 554 OFFCURVE",
"495 561 CURVE SMOOTH",
"503 566 LINE",
"497 575 OFFCURVE",
"479 600 OFFCURVE",
"479 600 CURVE SMOOTH",
"401.45 600 OFFCURVE",
"366.481 551.157 OFFCURVE",
"355.264 502.031 CURVE",
"337.63 541.292 OFFCURVE",
"301.093 592 OFFCURVE",
"230 592 CURVE SMOOTH",
"156 592 OFFCURVE",
"115 543 OFFCURVE",
"115 469 CURVE SMOOTH",
"115 441.292 OFFCURVE",
"125.036 416.535 OFFCURVE",
"134.203 399.702 CURVE",
"74.292 365.029 OFFCURVE",
"43 297.996 OFFCURVE",
"43 230 CURVE SMOOTH",
"43 118 OFFCURVE",
"121 -1 OFFCURVE",
"287 -1 CURVE SMOOTH",
"316.247 -1 OFFCURVE",
"333.737 1.494 OFFCURVE",
"345 3.717 CURVE",
"345 -206 LINE",
"379 -206 LINE",
"379 12.811 LINE",
"462.291 43.252 OFFCURVE",
"501.291 91.375 OFFCURVE",
"525 135 CURVE",
"503 153 LINE",
"478.177 108.87 OFFCURVE",
"438.138 63.894 OFFCURVE",
"379 42.941 CURVE"
);
},
{
closed = 1;
nodes = (
"345.371 389.231 OFFCURVE",
"345.277 389.181 OFFCURVE",
"346 389 CURVE",
"346 389.064 OFFCURVE",
"346.009 389.128 OFFCURVE",
"346.009 389.191 CURVE"
);
},
{
closed = 1;
nodes = (
"327.015 409.706 OFFCURVE",
"290.29 424 OFFCURVE",
"230 424 CURVE SMOOTH",
"204.838 424 OFFCURVE",
"182.101 419.916 OFFCURVE",
"161.859 412.574 CURVE",
"154.829 425.919 OFFCURVE",
"148 445.251 OFFCURVE",
"148 470 CURVE SMOOTH",
"148 502 OFFCURVE",
"154 560 OFFCURVE",
"230 560 CURVE SMOOTH",
"311.649 560 OFFCURVE",
"345.526 462.651 OFFCURVE",
"346.177 398.887 CURVE"
);
}
);
width = 548;
},
{
layerId = "6114C541-D024-4A3E-9713-6FAF49EAB318";
name = "Bold Condensed";
paths = (
{
closed = 1;
nodes = (
"213 419 LINE",
"205.038 428.953 OFFCURVE",
"201.148 440.997 OFFCURVE",
"201.148 452.649 CURVE SMOOTH",
"201.148 476.119 OFFCURVE",
"216.929 498 OFFCURVE",
"247 498 CURVE SMOOTH",
"276 498 OFFCURVE",
"297 474 OFFCURVE",
"297 436 CURVE SMOOTH",
"297 430 OFFCURVE",
"297 424 OFFCURVE",
"296 418 CURVE",
"278 420 OFFCURVE",
"266 421 OFFCURVE",
"247 421 CURVE SMOOTH",
"235 421 OFFCURVE",
"223.23 420.1 OFFCURVE",
"211.764 418.366 CURVE"
);
},
{
closed = 1;
nodes = (
"69.154 352.169 OFFCURVE",
"30 289.428 OFFCURVE",
"30 217 CURVE SMOOTH",
"30 97 OFFCURVE",
"128 5 OFFCURVE",
"247 0 CURVE SMOOTH",
"252.709 -0.23 OFFCURVE",
"258.32 -0.341 OFFCURVE",
"263.835 -0.341 CURVE SMOOTH",
"275.654 -0.341 OFFCURVE",
"287.03 0.172 OFFCURVE",
"297.976 1.142 CURVE",
"298 -4 LINE",
"298 -205 LINE",
"402 -205 LINE",
"402 27.457 LINE",
"490.611 66.806 OFFCURVE",
"532.327 136.174 OFFCURVE",
"546 156 CURVE",
"460 218 LINE",
"453.061 208.582 OFFCURVE",
"435.31 180.983 OFFCURVE",
"402 156.758 CURVE",
"402 285.305 LINE",
"516.868 293.018 OFFCURVE",
"541.561 343.605 OFFCURVE",
"541.561 399.081 CURVE SMOOTH",
"541.561 440.919 OFFCURVE",
"527.517 485.538 OFFCURVE",
"527.517 516.645 CURVE SMOOTH",
"527.517 532.886 OFFCURVE",
"531.345 545.444 OFFCURVE",
"543 552 CURVE",
"537 561 OFFCURVE",
"501 614 OFFCURVE",
"501 614 CURVE SMOOTH",
"439.346 614 OFFCURVE",
"381.071 561.29 OFFCURVE",
"361.172 540.864 CURVE",
"333.22 577.308 OFFCURVE",
"291.094 596 OFFCURVE",
"247 596 CURVE SMOOTH",
"163.179 596 OFFCURVE",
"106.561 531.33 OFFCURVE",
"106.561 461.191 CURVE SMOOTH",
"106.561 436.72 OFFCURVE",
"113.453 411.584 OFFCURVE",
"128.485 388.296 CURVE"
);
},
{
closed = 1;
nodes = (
"296.467 318 LINE",
"297.424 116.883 LINE",
"288.042 115.822 OFFCURVE",
"278.184 115.25 OFFCURVE",
"267.834 115.25 CURVE SMOOTH",
"261.1 115.25 OFFCURVE",
"254.157 115.492 OFFCURVE",
"247 116 CURVE SMOOTH",
"190 120 OFFCURVE",
"146 161 OFFCURVE",
"146 217 CURVE SMOOTH",
"146 273 OFFCURVE",
"191 318 OFFCURVE",
"247 318 CURVE SMOOTH"
);
},
{
closed = 1;
nodes = (
"402.544 425.8 OFFCURVE",
"406.39 464.074 OFFCURVE",
"443 489 CURVE",
"447.283 471.391 OFFCURVE",
"457.455 445.402 OFFCURVE",
"457.455 422.567 CURVE SMOOTH",
"457.455 398.004 OFFCURVE",
"445.686 377.089 OFFCURVE",
"402.16 374.177 CURVE"
);
}
);
width = 576;
}
);
note = si_A;
unicode = 0D85;
},
{
glyphname = si_U;
lastChange = "2015-08-27 12:36:40 +0000";
layers = (
{
layerId = "CC11FE7D-5FF0-4B40-9597-DFC61EB94F41";
name = "Light Condensed";
paths = (
{
closed = 1;
nodes = (
"408.046 416.968 OFFCURVE",
"386.334 417.915 OFFCURVE",
"365.806 417.915 CURVE SMOOTH",
"319.134 417.915 OFFCURVE",
"278.579 413.016 OFFCURVE",
"243.445 404.057 CURVE",
"231.096 424.492 OFFCURVE",
"224.556 448.069 OFFCURVE",
"224.556 470.704 CURVE SMOOTH",
"224.556 519 OFFCURVE",
"254.333 563 OFFCURVE",
"321 563 CURVE SMOOTH",
"362 563 OFFCURVE",
"432 530 OFFCURVE",
"431 415 CURVE"
);
},
{
closed = 1;
nodes = (
"76.118 346.541 OFFCURVE",
"35 227.547 OFFCURVE",
"35 105 CURVE SMOOTH",
"35 -50 OFFCURVE",
"127 -205 OFFCURVE",
"313 -205 CURVE SMOOTH",
"460 -205 OFFCURVE",
"552 -108 OFFCURVE",
"564 6 CURVE",
"536 11 LINE",
"522 -89 OFFCURVE",
"439 -171 OFFCURVE",
"314 -171 CURVE SMOOTH",
"153 -171 OFFCURVE",
"70 -42 OFFCURVE",
"70 106 CURVE SMOOTH",
"70 246 OFFCURVE",
"125 386 OFFCURVE",
"365 386 CURVE SMOOTH",
"412 386 OFFCURVE",
"431 384 OFFCURVE",
"457 381 CURVE",
"458.658 392.604 OFFCURVE",
"459.488 404.446 OFFCURVE",
"459.488 416.307 CURVE SMOOTH",
"459.488 504.621 OFFCURVE",
"413.449 594 OFFCURVE",
"320 594 CURVE SMOOTH",
"244.106 594 OFFCURVE",
"194.306 535.954 OFFCURVE",
"194.306 468.05 CURVE SMOOTH",
"194.306 444.243 OFFCURVE",
"200.428 419.224 OFFCURVE",
"213.692 395.07 CURVE"
);
}
);
width = 565;
},
{
layerId = "6114C541-D024-4A3E-9713-6FAF49EAB318";
name = "Bold Condensed";
paths = (
{
closed = 1;
nodes = (
"456 320 LINE",
"468 359 OFFCURVE",
"475 401 OFFCURVE",
"475 432 CURVE SMOOTH",
"475 541 OFFCURVE",
"404 598 OFFCURVE",
"327 598 CURVE SMOOTH",
"243.179 598 OFFCURVE",
"186.561 533.33 OFFCURVE",
"186.561 463.191 CURVE SMOOTH",
"186.561 442.064 OFFCURVE",
"191.698 420.441 OFFCURVE",
"202.776 399.94 CURVE",
"83.941 350.592 OFFCURVE",
"30 229.185 OFFCURVE",
"30 106 CURVE SMOOTH",
"30 -49 OFFCURVE",
"123 -205 OFFCURVE",
"309 -205 CURVE SMOOTH",
"456 -205 OFFCURVE",
"547 -108 OFFCURVE",
"559 6 CURVE",
"446 22 LINE",
"437 -41 OFFCURVE",
"384 -89 OFFCURVE",
"309 -89 CURVE SMOOTH",
"195 -89 OFFCURVE",
"144 0 OFFCURVE",
"144 106 CURVE SMOOTH",
"144 214 OFFCURVE",
"200 320 OFFCURVE",
"327 320 CURVE SMOOTH"
);
},
{
closed = 1;
nodes = (
"284.916 431.334 OFFCURVE",
"281.148 443.181 OFFCURVE",
"281.148 454.649 CURVE SMOOTH",
"281.148 478.119 OFFCURVE",
"296.929 500 OFFCURVE",
"327 500 CURVE SMOOTH",
"356 500 OFFCURVE",
"378 476 OFFCURVE",
"378 438 CURVE SMOOTH",
"378 432 OFFCURVE",
"377 426 OFFCURVE",
"376 420 CURVE",
"358 422 OFFCURVE",
"346 423 OFFCURVE",
"327 423 CURVE SMOOTH",
"315.164 423 OFFCURVE",
"303.707 422.482 OFFCURVE",
"292.625 421.474 CURVE"
);
}
);
width = 589;
}
);
note = si_U;
unicode = 0D8B;
},
{
glyphname = si_Ga;
lastChange = "2015-08-27 12:38:00 +0000";
layers = (
{
layerId = "CC11FE7D-5FF0-4B40-9597-DFC61EB94F41";
name = "Light Condensed";
paths = (
{
closed = 1;
nodes = (
"599 194 OFFCURVE",
"563 31 OFFCURVE",
"443 31 CURVE SMOOTH",
"395.36 31 OFFCURVE",
"377.35 51.174 OFFCURVE",
"364.944 69.998 CURVE",
"386.258 105.356 OFFCURVE",
"396 151.641 OFFCURVE",
"396 203 CURVE SMOOTH",
"396 248.631 OFFCURVE",
"377.788 304.669 OFFCURVE",
"324.405 325.888 CURVE",
"329.303 343.263 OFFCURVE",
"332 363.828 OFFCURVE",
"332 391 CURVE SMOOTH",
"332 486 OFFCURVE",
"348 564 OFFCURVE",
"436 564 CURVE SMOOTH",
"557 564 OFFCURVE",
"599 430 OFFCURVE",
"599 297 CURVE SMOOTH"
);
},
{
closed = 1;
nodes = (
"336.107 287.802 OFFCURVE",
"370 260.63 OFFCURVE",
"370 199 CURVE SMOOTH",
"370 55 OFFCURVE",
"292 28 OFFCURVE",
"232 28 CURVE SMOOTH",
"123 28 OFFCURVE",
"75 153 OFFCURVE",
"75 297 CURVE SMOOTH",
"75 427 OFFCURVE",
"139 562 OFFCURVE",
"226 562 CURVE SMOOTH",
"279.001 562 OFFCURVE",
"297.765 534.443 OFFCURVE",
"315.867 502.985 CURVE",
"306.666 473.695 OFFCURVE",
"302 436.904 OFFCURVE",
"302 392 CURVE SMOOTH",
"302 342 OFFCURVE",
"299 324 OFFCURVE",
"260 267 CURVE",
"282 247 LINE",
"295.465 267.198 OFFCURVE",
"306.916 283.366 OFFCURVE",
"315.447 301.745 CURVE"
);
},
{
closed = 1;
nodes = (
"311.596 563.69 OFFCURVE",
"276.738 594 OFFCURVE",
"227 594 CURVE SMOOTH",
"121 594 OFFCURVE",
"47 465 OFFCURVE",
"47 297 CURVE SMOOTH",
"47 127 OFFCURVE",
"102 1 OFFCURVE",
"230 0 CURVE SMOOTH",
"232 0 LINE SMOOTH",
"283.769 0 OFFCURVE",
"321.994 17.726 OFFCURVE",
"348.454 47.489 CURVE",
"365.358 25.584 OFFCURVE",
"394.248 0 OFFCURVE",
"440 0 CURVE SMOOTH",
"563 0 OFFCURVE",
"629 129 OFFCURVE",
"629 297 CURVE SMOOTH",
"629 467 OFFCURVE",
"571 594 OFFCURVE",
"436 594 CURVE SMOOTH",
"387.563 594 OFFCURVE",
"351.85 575.519 OFFCURVE",
"329.529 535.389 CURVE"
);
}
);
width = 678;
},
{
layerId = "6114C541-D024-4A3E-9713-6FAF49EAB318";
name = "Bold Condensed";
paths = (
{
closed = 1;
nodes = (
"546 0 OFFCURVE",
"644 63 OFFCURVE",
"644 297 CURVE SMOOTH",
"644 531 OFFCURVE",
"546 594 OFFCURVE",
"439 594 CURVE SMOOTH",
"398.93 594 OFFCURVE",
"357.605 577.191 OFFCURVE",
"326.335 544.578 CURVE",
"305.808 570.771 OFFCURVE",
"269.802 594 OFFCURVE",
"218 594 CURVE SMOOTH",
"114 594 OFFCURVE",
"30 520 OFFCURVE",
"30 297 CURVE SMOOTH",
"30 63 OFFCURVE",
"128 0 OFFCURVE",
"235 0 CURVE SMOOTH",
"281.019 0 OFFCURVE",
"317.412 12.957 OFFCURVE",
"345.263 33.843 CURVE",
"366.638 14.672 OFFCURVE",
"397.83 0 OFFCURVE",
"439 0 CURVE SMOOTH"
);
},
{
closed = 1;
nodes = (
"185 110 OFFCURVE",
"140 149 OFFCURVE",
"140 297 CURVE SMOOTH",
"140 439 OFFCURVE",
"175 486 OFFCURVE",
"218 486 CURVE SMOOTH",
"254.456 486 OFFCURVE",
"270.57 461.137 OFFCURVE",
"277.458 443.455 CURVE",
"275.203 430.148 OFFCURVE",
"274 415.992 OFFCURVE",
"274 401 CURVE SMOOTH",
"274 369 OFFCURVE",
"270 344 OFFCURVE",
"218 311 CURVE",
"271 220 LINE",
"282.446 226.486 OFFCURVE",
"293.346 233.627 OFFCURVE",
"303.492 241.327 CURVE",
"310.824 229.843 OFFCURVE",
"316 215.771 OFFCURVE",
"316 199 CURVE SMOOTH",
"316 155 OFFCURVE",
"296 110 OFFCURVE",
"235 110 CURVE SMOOTH"
);
},
{
closed = 1;
nodes = (
"373.795 337.403 OFFCURVE",
"376 349.603 OFFCURVE",
"376 362 CURVE SMOOTH",
"376 438 OFFCURVE",
"392 484 OFFCURVE",
"439 484 CURVE SMOOTH",
"489 484 OFFCURVE",
"534 445 OFFCURVE",
"534 297 CURVE SMOOTH",
"534 147 OFFCURVE",
"489 108 OFFCURVE",
"439 108 CURVE SMOOTH",
"424.831 108 OFFCURVE",
"413.735 111.756 OFFCURVE",
"405.059 117.386 CURVE",
"414.555 143.635 OFFCURVE",
"419 171.779 OFFCURVE",
"419 199 CURVE SMOOTH",
"419 241.557 OFFCURVE",
"405.622 293.589 OFFCURVE",
"369.71 325.55 CURVE"
);
}
);
width = 673;
}
);
note = si_Ga;
unicode = 0D9C;
},
{
glyphname = si_Tta;
lastChange = "2015-08-27 12:38:58 +0000";
layers = (
{
layerId = "CC11FE7D-5FF0-4B40-9597-DFC61EB94F41";
name = "Light Condensed";
paths = (
{
closed = 1;
nodes = (
"68 586 LINE",
"81 627 OFFCURVE",
"117 714 OFFCURVE",
"221 714 CURVE SMOOTH",
"381 714 OFFCURVE",
"417 512 OFFCURVE",
"417 377 CURVE SMOOTH",
"417 237 OFFCURVE",
"395 30 OFFCURVE",
"225 30 CURVE SMOOTH",
"94 30 OFFCURVE",
"59 158 OFFCURVE",
"59 247 CURVE SMOOTH",
"59 341 OFFCURVE",
"86 417 OFFCURVE",
"170 418 CURVE SMOOTH",
"198 418 OFFCURVE",
"218 410 OFFCURVE",
"233 403 CURVE",
"242 432 LINE",
"219 443 OFFCURVE",
"196 448 OFFCURVE",
"170 448 CURVE SMOOTH",
"85 448 OFFCURVE",
"27 389 OFFCURVE",
"27 247 CURVE SMOOTH",
"27 132 OFFCURVE",
"77 0 OFFCURVE",
"221 0 CURVE SMOOTH",
"445 0 OFFCURVE",
"449 263 OFFCURVE",
"449 377 CURVE SMOOTH",
"449 491 OFFCURVE",
"424 744 OFFCURVE",
"220 744 CURVE SMOOTH",
"122 744 OFFCURVE",
"60 673 OFFCURVE",
"39 596 CURVE"
);
}
);
width = 506;
},
{
layerId = "6114C541-D024-4A3E-9713-6FAF49EAB318";
name = "Bold Condensed";
paths = (
{
closed = 1;
nodes = (
"166 755 OFFCURVE",
"81 708 OFFCURVE",
"45 613 CURVE",
"154 577 LINE",
"171 619 OFFCURVE",
"212 640 OFFCURVE",
"253 640 CURVE SMOOTH",
"350 640 OFFCURVE",
"393 551 OFFCURVE",
"393 377 CURVE SMOOTH",
"393 170 OFFCURVE",
"333 115 OFFCURVE",
"260 115 CURVE SMOOTH",
"167 115 OFFCURVE",
"140 189 OFFCURVE",
"140 252 CURVE SMOOTH",
"140 309.86 OFFCURVE",
"163.843 356.716 OFFCURVE",
"204.359 356.716 CURVE SMOOTH",
"215.66 356.716 OFFCURVE",
"228.259 353.07 OFFCURVE",
"242 345 CURVE",
"280 445 LINE",
"251.634 464.784 OFFCURVE",
"222.587 473.83 OFFCURVE",
"194.795 473.83 CURVE SMOOTH",
"105.991 473.83 OFFCURVE",
"30 381.478 OFFCURVE",
"30 252 CURVE SMOOTH",
"30 136 OFFCURVE",
"82 0 OFFCURVE",
"260 0 CURVE SMOOTH",
"396 0 OFFCURVE",
"508 79 OFFCURVE",
"508 377 CURVE SMOOTH",
"508 627 OFFCURVE",
"422 755 OFFCURVE",
"253 755 CURVE SMOOTH"
);
}
);
width = 538;
}
);
note = si_Tta;
unicode = 0DA7;
},
{
glyphname = si_Dda;
lastChange = "2015-08-27 12:39:58 +0000";
layers = (
{
layerId = "CC11FE7D-5FF0-4B40-9597-DFC61EB94F41";
name = "Light Condensed";
paths = (
{
closed = 1;
nodes = (
"90 661 LINE",
"140.865 697.193 OFFCURVE",
"191.731 719.033 OFFCURVE",
"250.083 719.033 CURVE SMOOTH",
"251.385 719.033 OFFCURVE",
"252.691 719.022 OFFCURVE",
"254 719 CURVE SMOOTH",
"467 715 OFFCURVE",
"526 513 OFFCURVE",
"526 300 CURVE SMOOTH",
"526 202 OFFCURVE",
"507 32 OFFCURVE",
"405 32 CURVE SMOOTH",
"313 32 OFFCURVE",
"306 168 OFFCURVE",
"306 238 CURVE",
"274 238 LINE",
"274 167 OFFCURVE",
"272 32 OFFCURVE",
"184 32 CURVE SMOOTH",
"111 32 OFFCURVE",
"81 109 OFFCURVE",
"81 188 CURVE SMOOTH",
"81 259 OFFCURVE",
"105 311 OFFCURVE",
"132 343 CURVE",
"311 343 LINE",
"311.982 351.345 OFFCURVE",
"312.455 359.475 OFFCURVE",
"312.455 367.37 CURVE SMOOTH",
"312.455 455.985 OFFCURVE",
"252.864 515 OFFCURVE",
"184 515 CURVE SMOOTH",
"129.704 515 OFFCURVE",
"85.258 475.596 OFFCURVE",
"85.258 417.011 CURVE SMOOTH",
"85.258 403.304 OFFCURVE",
"87.691 388.548 OFFCURVE",
"93 373 CURVE",
"40 373 LINE",
"40 343 LINE",
"96 343 LINE",
"75 309 OFFCURVE",
"49 249 OFFCURVE",
"49 185 CURVE SMOOTH",
"49 79 OFFCURVE",
"97 0 OFFCURVE",
"186 0 CURVE SMOOTH",
"246 0 OFFCURVE",
"277 42 OFFCURVE",
"292 88 CURVE",
"308 42 OFFCURVE",
"341 0 OFFCURVE",
"402 0 CURVE SMOOTH",
"527 0 OFFCURVE",
"558 150 OFFCURVE",
"558 300 CURVE SMOOTH",
"558 559 OFFCURVE",
"467 751 OFFCURVE",
"253 751 CURVE SMOOTH",
"194 751 OFFCURVE",
"135 732 OFFCURVE",
"73 689 CURVE"
);
},
{
closed = 1;
nodes = (
"122 374 LINE",
"117.664 385.272 OFFCURVE",
"114.833 399.469 OFFCURVE",
"114.833 413.957 CURVE SMOOTH",
"114.833 449.595 OFFCURVE",
"131.967 487 OFFCURVE",
"186 487 CURVE SMOOTH",
"242.921 487 OFFCURVE",
"282.158 425.568 OFFCURVE",
"282.158 379.034 CURVE SMOOTH",
"282.158 377.335 OFFCURVE",
"282.106 375.656 OFFCURVE",
"282 374 CURVE"
);
}
);
width = 607;
},
{
layerId = "6114C541-D024-4A3E-9713-6FAF49EAB318";
name = "Bold Condensed";
paths = (
{
closed = 1;
nodes = (
"445 240 OFFCURVE",
"445 115 OFFCURVE",
"397 115 CURVE SMOOTH",
"354 115 OFFCURVE",
"339 177 OFFCURVE",
"339 250 CURVE",
"243 250 LINE",
"243 177 OFFCURVE",
"227 115 OFFCURVE",
"180 115 CURVE SMOOTH",
"150 115 OFFCURVE",
"143 157 OFFCURVE",
"143 193 CURVE SMOOTH",
"143 245 OFFCURVE",
"162 304 OFFCURVE",
"203 304 CURVE SMOOTH",
"353 304 LINE",
"357 323 OFFCURVE",
"360 349 OFFCURVE",
"360 364 CURVE SMOOTH",
"360 473 OFFCURVE",
"289 530 OFFCURVE",
"212 530 CURVE SMOOTH",
"138 530 OFFCURVE",
"86 484 OFFCURVE",
"86 412 CURVE SMOOTH",
"86 404.907 OFFCURVE",
"86.578 397.685 OFFCURVE",
"87.782 390.4 CURVE",
"30 391 LINE",
"30 306 LINE",
"61 306 LINE",
"47 280 OFFCURVE",
"36 234 OFFCURVE",
"36 193 CURVE SMOOTH",
"36 105 OFFCURVE",
"64 0 OFFCURVE",
"180 0 CURVE SMOOTH",
"233 0 OFFCURVE",
"272 32 OFFCURVE",
"288 79 CURVE",
"303 33 OFFCURVE",
"341 0 OFFCURVE",
"397 0 CURVE SMOOTH",
"555 0 OFFCURVE",
"560 182 OFFCURVE",
"560 293 CURVE SMOOTH",
"560 599 OFFCURVE",
"458 755 OFFCURVE",
"257 755 CURVE SMOOTH",
"170 755 OFFCURVE",
"86 708 OFFCURVE",
"50 613 CURVE",
"159 577 LINE",
"176 619 OFFCURVE",
"216 640 OFFCURVE",
"257 640 CURVE SMOOTH",
"382 640 OFFCURVE",
"445 523 OFFCURVE",
"445 293 CURVE SMOOTH"
);
},
{
closed = 1;
nodes = (
"179.655 389.446 LINE",
"178.564 394.038 OFFCURVE",
"178 398.632 OFFCURVE",
"178 403 CURVE SMOOTH",
"178 424 OFFCURVE",
"187 442 OFFCURVE",
"212 442 CURVE SMOOTH",
"245.595 442 OFFCURVE",
"263.076 416.487 OFFCURVE",
"264.444 388.566 CURVE"
);
}
);
width = 590;
}
);
note = si_Dda;
unicode = 0DA9;
},
{
glyphname = si_Ddha;
lastChange = "2015-08-27 12:40:15 +0000";
layers = (
{
layerId = "CC11FE7D-5FF0-4B40-9597-DFC61EB94F41";
name = "Light Condensed";
paths = (
{
closed = 1;
nodes = (
"511 461 OFFCURVE",
"526 388 OFFCURVE",
"526 300 CURVE SMOOTH",
"526 211 OFFCURVE",
"506 30 OFFCURVE",
"404 30 CURVE SMOOTH",
"312 30 OFFCURVE",
"306 168 OFFCURVE",
"306 238 CURVE",
"274 238 LINE",
"274 167 OFFCURVE",
"272 30 OFFCURVE",
"184 30 CURVE SMOOTH",
"111 30 OFFCURVE",
"81 109 OFFCURVE",
"81 188 CURVE SMOOTH",
"81 264 OFFCURVE",
"103 319 OFFCURVE",
"127 353 CURVE",
"306 353 LINE",
"306.982 361.345 OFFCURVE",
"307.455 369.475 OFFCURVE",
"307.455 377.37 CURVE SMOOTH",
"307.455 465.985 OFFCURVE",
"247.864 525 OFFCURVE",
"179 525 CURVE SMOOTH",
"124.704 525 OFFCURVE",
"80.258 485.596 OFFCURVE",
"80.258 427.011 CURVE SMOOTH",
"80.258 413.304 OFFCURVE",
"82.691 398.548 OFFCURVE",
"88 383 CURVE",
"35 383 LINE",
"35 353 LINE",
"91 353 LINE",
"72 317 OFFCURVE",
"49 253 OFFCURVE",
"49 185 CURVE SMOOTH",
"49 79 OFFCURVE",
"97 0 OFFCURVE",
"186 0 CURVE SMOOTH",
"246 0 OFFCURVE",
"277 42 OFFCURVE",
"292 88 CURVE",
"308 42 OFFCURVE",
"341 0 OFFCURVE",
"402 0 CURVE SMOOTH",
"527 0 OFFCURVE",
"558 150 OFFCURVE",
"558 300 CURVE SMOOTH",
"558 484 OFFCURVE",
"498 606 OFFCURVE",
"434 670 CURVE SMOOTH",
"385 719 OFFCURVE",
"316 746 OFFCURVE",
"242 746 CURVE SMOOTH",
"229 746 OFFCURVE",
"219 745 OFFCURVE",
"206 743 CURVE",
"212 714 LINE",
"212 713 LINE",
"291 713 OFFCURVE",
"241 499 OFFCURVE",
"402 499 CURVE SMOOTH",
"445 499 OFFCURVE",
"473 509 OFFCURVE",
"490 518 CURVE"
);
},
{
closed = 1;
nodes = (
"328 703 OFFCURVE",
"385 676 OFFCURVE",
"410 650 CURVE SMOOTH",
"431.424 628.576 OFFCURVE",
"459.223 588.824 OFFCURVE",
"479.171 548.527 CURVE",
"467.767 539.403 OFFCURVE",
"444.917 529 OFFCURVE",
"400 529 CURVE SMOOTH",
"294 529 OFFCURVE",
"312 672 OFFCURVE",
"270 712 CURVE"
);
},
{
closed = 1;
nodes = (
"120 384 LINE",
"115.386 395.997 OFFCURVE",
"112.191 410.926 OFFCURVE",
"112.191 425.85 CURVE SMOOTH",
"112.191 459.441 OFFCURVE",
"128.378 493 OFFCURVE",
"181 493 CURVE SMOOTH",
"240.538 493 OFFCURVE",
"275.178 435.825 OFFCURVE",
"275.178 389.664 CURVE SMOOTH",
"275.178 387.756 OFFCURVE",
"275.119 385.866 OFFCURVE",
"275 384 CURVE"
);
}
);
width = 598;
},
{
layerId = "6114C541-D024-4A3E-9713-6FAF49EAB318";
name = "Bold Condensed";
paths = (
{
closed = 1;
nodes = (
"560 410 OFFCURVE",
"542 515 OFFCURVE",
"518 588 CURVE SMOOTH",
"486 686 OFFCURVE",
"431 765 OFFCURVE",
"352 817 CURVE",
"280 733 LINE",
"291.876 724.34 OFFCURVE",
"296.345 717.088 OFFCURVE",
"296.345 709.942 CURVE SMOOTH",
"296.345 688.205 OFFCURVE",
"255 667.443 OFFCURVE",
"255 611 CURVE SMOOTH",
"255 525.059 OFFCURVE",
"352.866 463.085 OFFCURVE",
"430.84 461.004 CURVE",
"439.466 409.165 OFFCURVE",
"445 350.045 OFFCURVE",
"445 293 CURVE SMOOTH",
"445 240 OFFCURVE",
"445 115 OFFCURVE",
"397 115 CURVE SMOOTH",
"354 115 OFFCURVE",
"339 177 OFFCURVE",
"339 250 CURVE",
"243 250 LINE",
"243 177 OFFCURVE",
"227 115 OFFCURVE",
"180 115 CURVE SMOOTH",
"150 115 OFFCURVE",
"143 157 OFFCURVE",
"143 193 CURVE SMOOTH",
"143 245 OFFCURVE",
"162 304 OFFCURVE",
"203 304 CURVE SMOOTH",
"353 304 LINE",
"357 323 OFFCURVE",
"360 349 OFFCURVE",
"360 364 CURVE SMOOTH",
"360 473 OFFCURVE",
"289 530 OFFCURVE",
"212 530 CURVE SMOOTH",
"138 530 OFFCURVE",
"86 484 OFFCURVE",
"86 412 CURVE SMOOTH",
"86 404.907 OFFCURVE",
"86.578 397.685 OFFCURVE",
"87.782 390.4 CURVE",
"30 391 LINE",
"30 306 LINE",
"61 306 LINE",
"47 280 OFFCURVE",
"36 234 OFFCURVE",
"36 193 CURVE SMOOTH",
"36 105 OFFCURVE",
"64 0 OFFCURVE",
"180 0 CURVE SMOOTH",
"233 0 OFFCURVE",
"272 32 OFFCURVE",
"288 79 CURVE",
"303 33 OFFCURVE",
"341 0 OFFCURVE",
"397 0 CURVE SMOOTH",
"555 0 OFFCURVE",
"560 182 OFFCURVE",
"560 293 CURVE SMOOTH"
);
},
{
closed = 1;
nodes = (
"382.735 623.474 OFFCURVE",
"397.283 592.124 OFFCURVE",
"408.48 557.612 CURVE",
"361.868 563.077 OFFCURVE",
"341.542 589.607 OFFCURVE",
"341.542 613.759 CURVE SMOOTH",
"341.542 629.085 OFFCURVE",
"349.727 643.453 OFFCURVE",
"364.573 650.875 CURVE"
);
},
{
closed = 1;
nodes = (
"179.655 389.446 LINE",
"178.564 394.038 OFFCURVE",
"178 398.632 OFFCURVE",
"178 403 CURVE SMOOTH",
"178 424 OFFCURVE",
"187 442 OFFCURVE",
"212 442 CURVE SMOOTH",
"245.595 442 OFFCURVE",
"263.076 416.487 OFFCURVE",
"264.444 388.566 CURVE"
);
}
);
width = 590;
}
);
note = si_Ddha;
unicode = 0DAA;
},
{
glyphname = si_Nna;
lastChange = "2015-08-27 12:40:35 +0000";
layers = (
{
layerId = "CC11FE7D-5FF0-4B40-9597-DFC61EB94F41";
name = "Light Condensed";
paths = (
{
closed = 1;
nodes = (
"51 39 LINE",
"78 23 LINE",
"83 30 OFFCURVE",
"99 37 OFFCURVE",
"115 37 CURVE SMOOTH",
"140 37 OFFCURVE",
"179 -6 OFFCURVE",
"264 -6 CURVE SMOOTH",
"401 -6 OFFCURVE",
"478 89 OFFCURVE",
"478 272 CURVE SMOOTH",
"478 322.047 OFFCURVE",
"469.229 375.723 OFFCURVE",
"451.686 421.218 CURVE",
"454.739 461.445 OFFCURVE",
"470.247 519 OFFCURVE",
"534 519 CURVE SMOOTH",
"595 519 OFFCURVE",
"609 427 OFFCURVE",
"609 369 CURVE SMOOTH",
"609 249 LINE",
"641 249 LINE",
"641 370 LINE SMOOTH",
"641 427 OFFCURVE",
"641 519 OFFCURVE",
"713 519 CURVE SMOOTH",
"802.043 519 OFFCURVE",
"803 379.212 OFFCURVE",
"803 259.839 CURVE SMOOTH",
"803 252 LINE SMOOTH",
"803 141 OFFCURVE",
"803 24 OFFCURVE",
"670 24 CURVE SMOOTH",
"613 24 OFFCURVE",
"562 41 OFFCURVE",
"561 146 CURVE",
"529 146 LINE",
"528.971 144.214 OFFCURVE",
"528.956 142.403 OFFCURVE",
"528.956 140.572 CURVE SMOOTH",
"528.956 78.832 OFFCURVE",
"546.601 -7 OFFCURVE",
"668 -7 CURVE SMOOTH",
"836 -7 OFFCURVE",
"835 130 OFFCURVE",
"835 253 CURVE SMOOTH",
"835 411 OFFCURVE",
"829 549 OFFCURVE",
"711 549 CURVE SMOOTH",
"667.154 549 OFFCURVE",
"638.687 519.778 OFFCURVE",
"622.903 484.262 CURVE",
"607.651 517.426 OFFCURVE",
"579.219 549 OFFCURVE",
"535 549 CURVE SMOOTH",
"468.289 549 OFFCURVE",
"442.348 498.542 OFFCURVE",
"432.299 461.743 CURVE",
"422.971 477.519 OFFCURVE",
"412.215 491.353 OFFCURVE",
"400.031 502.468 CURVE",
"535 712 LINE",
"510 727 LINE",
"374.938 523.456 LINE",
"359.831 535.902 OFFCURVE",
"320.254 562 OFFCURVE",
"254 562 CURVE SMOOTH",
"154 562 OFFCURVE",
"43 478 OFFCURVE",
"43 331 CURVE SMOOTH",
"43 240.8 OFFCURVE",
"98.325 179.89 OFFCURVE",
"134.12 162.213 CURVE"
);
},
{
closed = 1;
nodes = (
"162 310 OFFCURVE",
"197 349 OFFCURVE",
"245 349 CURVE SMOOTH",
"303 349 OFFCURVE",
"330 302 OFFCURVE",
"330 258 CURVE SMOOTH",
"330 204 OFFCURVE",
"297 164 OFFCURVE",
"244 164 CURVE SMOOTH",
"191 164 OFFCURVE",
"162 204 OFFCURVE",
"162 258 CURVE SMOOTH"
);
},
{
closed = 1;
nodes = (
"392 490 LINE",
"392.323 489.677 OFFCURVE",
"392.49 490.032 OFFCURVE",
"392.546 490.848 CURVE"
);
},
{
closed = 1;
nodes = (
"383.319 476.478 LINE",
"409.98 448.848 OFFCURVE",
"446 392.034 OFFCURVE",
"446 272 CURVE SMOOTH",
"446 117 OFFCURVE",
"378 24 OFFCURVE",
"264 24 CURVE SMOOTH",
"187.611 24 OFFCURVE",
"158.656 68.047 OFFCURVE",
"117.888 68.047 CURVE SMOOTH",
"114.36 68.047 OFFCURVE",
"110.743 67.717 OFFCURVE",
"107 67 CURVE",
"166 149 LINE",
"185 144 OFFCURVE",
"201 134 OFFCURVE",
"243 134 CURVE SMOOTH",
"308 134 OFFCURVE",
"362 190 OFFCURVE",
"362 256 CURVE SMOOTH",
"362 299.653 OFFCURVE",
"340.126 339.37 OFFCURVE",
"306.507 361.26 CURVE"
);
},
{
closed = 1;
nodes = (
"278.024 374.491 LINE",
"268.205 377.424 OFFCURVE",
"257.81 379 OFFCURVE",
"247 379 CURVE SMOOTH",
"182 379 OFFCURVE",
"130 325 OFFCURVE",
"130 259 CURVE SMOOTH",
"130 233.941 OFFCURVE",
"135.478 209.89 OFFCURVE",
"146.38 189.695 CURVE",
"114.576 211.651 OFFCURVE",
"75 251.736 OFFCURVE",
"75 334 CURVE SMOOTH",
"75 477 OFFCURVE",
"196 532 OFFCURVE",
"255 532 CURVE SMOOTH",
"319.432 532 OFFCURVE",
"344.333 509 OFFCURVE",
"358.951 499.561 CURVE"
);
}
);
width = 879;
},
{
layerId = "6114C541-D024-4A3E-9713-6FAF49EAB318";
name = "Bold Condensed";
paths = (
{
closed = 1;
nodes = (
"184 325 OFFCURVE",
"206 348 OFFCURVE",
"233 348 CURVE SMOOTH",
"260 348 OFFCURVE",
"283 325 OFFCURVE",
"283 298 CURVE SMOOTH",
"283 271 OFFCURVE",
"260 249 OFFCURVE",
"233 249 CURVE SMOOTH",
"206 249 OFFCURVE",
"184 271 OFFCURVE",
"184 298 CURVE SMOOTH"
);
},
{
closed = 1;
nodes = (
"808 437 OFFCURVE",
"814 351 OFFCURVE",
"814 290 CURVE SMOOTH",
"814 221 OFFCURVE",
"810 110 OFFCURVE",
"726 110 CURVE SMOOTH",
"665 110 OFFCURVE",
"654 141 OFFCURVE",
"643 168 CURVE",
"547 134 LINE",
"559 48 OFFCURVE",
"641 0 OFFCURVE",
"726 0 CURVE SMOOTH",
"921 0 OFFCURVE",
"929 179 OFFCURVE",
"929 290 CURVE SMOOTH",
"929 399 OFFCURVE",
"908 551 OFFCURVE",
"772 551 CURVE SMOOTH",
"735 551 OFFCURVE",
"706 533 OFFCURVE",
"689 508 CURVE",
"675 529 OFFCURVE",
"646 551 OFFCURVE",
"605 551 CURVE SMOOTH",
"559.476 551 OFFCURVE",
"525.477 530.488 OFFCURVE",
"503.09 494.904 CURVE",
"488.661 514.268 OFFCURVE",
"471.985 530.778 OFFCURVE",
"453.585 544.448 CURVE",
"540 677 LINE",
"453 732 LINE",
"358.974 587.282 LINE",
"338.929 591.764 OFFCURVE",
"318.147 594 OFFCURVE",
"297 594 CURVE SMOOTH",
"155.966 594 OFFCURVE",
"73.4 475.952 OFFCURVE",
"73.4 354.123 CURVE SMOOTH",
"73.4 312.729 OFFCURVE",
"82.932 270.898 OFFCURVE",
"102.94 233.113 CURVE SMOOTH",
"107.589 223.642 OFFCURVE",
"113.229 214.76 OFFCURVE",
"119.729 206.593 CURVE",
"30 72 LINE",
"112 22 LINE",
"130.2 35.52 OFFCURVE",
"144.682 40.522 OFFCURVE",
"158.153 40.522 CURVE SMOOTH",
"196.492 40.522 OFFCURVE",
"226.64 0 OFFCURVE",
"311 0 CURVE SMOOTH",
"501.087 0 OFFCURVE",
"554.803 164.709 OFFCURVE",
"560.477 276.633 CURVE",
"566.725 332.588 OFFCURVE",
"559.102 437 OFFCURVE",
"605 437 CURVE SMOOTH",
"629 437 OFFCURVE",
"642 416 OFFCURVE",
"642 362 CURVE SMOOTH",
"642 269 LINE",
"735 269 LINE",
"735 362 LINE SMOOTH",
"735 416 OFFCURVE",
"748 437 OFFCURVE",
"772 437 CURVE SMOOTH"
);
},
{
closed = 1;
nodes = (
"196.093 450.805 OFFCURVE",
"233.03 480 OFFCURVE",
"297 480 CURVE SMOOTH",
"374 480 OFFCURVE",
"446 416 OFFCURVE",
"446 297 CURVE SMOOTH",
"446 178 OFFCURVE",
"378 112 OFFCURVE",
"284 112 CURVE SMOOTH",
"240.456 112 OFFCURVE",
"213.041 133.506 OFFCURVE",
"189.88 133.257 CURVE",
"204.585 154.265 LINE",
"214.704 152.125 OFFCURVE",
"225.214 151 OFFCURVE",
"236 151 CURVE SMOOTH",
"318 151 OFFCURVE",
"383 216 OFFCURVE",
"383 298 CURVE SMOOTH",
"383 336 OFFCURVE",
"369 372 OFFCURVE",
"345 398 CURVE SMOOTH",
"322 423 OFFCURVE",
"287 437 OFFCURVE",
"254 437 CURVE SMOOTH",
"226.803 437 OFFCURVE",
"200.176 427.868 OFFCURVE",
"181.019 413.485 CURVE"
);
}
);
width = 958;
}
);
note = si_Nna;
unicode = 0DAB;
},
{
glyphname = si_Da;
lastChange = "2015-08-31 09:19:52 +0000";
layers = (
{
background = {
paths = (
{
closed = 1;
nodes = (
"62 338 OFFCURVE",
"151 374 OFFCURVE",
"227 374 CURVE SMOOTH",
"284 374 OFFCURVE",
"343 355 OFFCURVE",
"343 355 CURVE SMOOTH",
"343 355 OFFCURVE",
"353 389 OFFCURVE",
"353 417 CURVE SMOOTH",
"353 528 OFFCURVE",
"293 584 OFFCURVE",
"224 584 CURVE SMOOTH",
"150 584 OFFCURVE",
"117 522 OFFCURVE",
"117 473 CURVE SMOOTH",
"117 432.319 OFFCURVE",
"131.262 403.353 OFFCURVE",
"139.429 390.102 CURVE",
"67.288 364.277 OFFCURVE",
"30 304.235 OFFCURVE",
"30 225 CURVE SMOOTH",
"30 129.665 OFFCURVE",
"72.707 46.431 OFFCURVE",
"179.138 22.136 CURVE",
"169.845 12.025 OFFCURVE",
"147 -18.017 OFFCURVE",
"147 -69 CURVE SMOOTH",
"147 -144 OFFCURVE",
"199 -211 OFFCURVE",
"285 -211 CURVE SMOOTH",
"345 -211 OFFCURVE",
"390 -183 OFFCURVE",
"438 -112 CURVE",
"414 -95 LINE",
"393 -134 OFFCURVE",
"356 -180 OFFCURVE",
"284 -180 CURVE SMOOTH",
"213 -180 OFFCURVE",
"179 -119 OFFCURVE",
"179 -70 CURVE SMOOTH",
"179 -21.153 OFFCURVE",
"202.197 7.81 OFFCURVE",
"210.822 16.89 CURVE",
"221.66 15.719 OFFCURVE",
"233.048 15.077 OFFCURVE",
"245 15 CURVE SMOOTH",
"307 15 OFFCURVE",
"356 39 OFFCURVE",
"356 39 CURVE",
"346 66 LINE",
"324 56 OFFCURVE",
"282 45 OFFCURVE",
"248 45 CURVE SMOOTH",
"210 45 OFFCURVE",
"62 54 OFFCURVE",
"62 224 CURVE SMOOTH"
);
},
{
closed = 1;
nodes = (
"164.98 404.877 OFFCURVE",
"149 438.139 OFFCURVE",
"149 473 CURVE SMOOTH",
"149 505 OFFCURVE",
"165 554 OFFCURVE",
"224 554 CURVE SMOOTH",
"299 554 OFFCURVE",
"321 462 OFFCURVE",
"321 417 CURVE SMOOTH",
"321 411 OFFCURVE",
"320 400 OFFCURVE",
"319 392 CURVE",
"319 392 OFFCURVE",
"279 404 OFFCURVE",
"228 404 CURVE SMOOTH",
"206.404 404 OFFCURVE",
"186.519 402.013 OFFCURVE",
"168.372 398.209 CURVE"
);
}
);
};
layerId = "CC11FE7D-5FF0-4B40-9597-DFC61EB94F41";
name = "Light Condensed";
paths = (
{
closed = 1;
nodes = (
"62 338 OFFCURVE",
"151 374 OFFCURVE",
"227 374 CURVE SMOOTH",
"284 374 OFFCURVE",
"343 355 OFFCURVE",
"343 355 CURVE SMOOTH",
"343 355 OFFCURVE",
"353 389 OFFCURVE",
"353 417 CURVE SMOOTH",
"353 528 OFFCURVE",
"293 584 OFFCURVE",
"224 584 CURVE SMOOTH",
"150 584 OFFCURVE",
"117 522 OFFCURVE",
"117 473 CURVE SMOOTH",
"117 432 OFFCURVE",
"131 403 OFFCURVE",
"139 390 CURVE",
"67 364 OFFCURVE",
"30 304 OFFCURVE",
"30 225 CURVE SMOOTH",
"30 130 OFFCURVE",
"73 46 OFFCURVE",
"179 22 CURVE",
"170 12 OFFCURVE",
"147 -18 OFFCURVE",
"147 -69 CURVE SMOOTH",
"147 -144 OFFCURVE",
"199 -211 OFFCURVE",
"285 -211 CURVE SMOOTH",
"345 -211 OFFCURVE",
"390 -183 OFFCURVE",
"438 -112 CURVE",
"414 -95 LINE",
"393 -134 OFFCURVE",
"356 -180 OFFCURVE",
"284 -180 CURVE SMOOTH",
"213 -180 OFFCURVE",
"179 -119 OFFCURVE",
"179 -70 CURVE SMOOTH",
"179 -21 OFFCURVE",
"202 8 OFFCURVE",
"211 17 CURVE",
"222 16 OFFCURVE",
"233 15 OFFCURVE",
"245 15 CURVE SMOOTH",
"307 15 OFFCURVE",
"356 39 OFFCURVE",
"356 39 CURVE",
"346 66 LINE",
"324 56 OFFCURVE",
"282 45 OFFCURVE",
"248 45 CURVE SMOOTH",
"210 45 OFFCURVE",
"62 54 OFFCURVE",
"62 224 CURVE SMOOTH"
);
},
{
closed = 1;
nodes = (
"165 405 OFFCURVE",
"149 438 OFFCURVE",
"149 473 CURVE SMOOTH",
"149 505 OFFCURVE",
"165 554 OFFCURVE",
"224 554 CURVE SMOOTH",
"299 554 OFFCURVE",
"321 462 OFFCURVE",
"321 417 CURVE SMOOTH",
"321 411 OFFCURVE",
"320 400 OFFCURVE",
"319 392 CURVE",
"319 392 OFFCURVE",
"279 404 OFFCURVE",
"228 404 CURVE SMOOTH",
"206 404 OFFCURVE",
"187 402 OFFCURVE",
"168 398 CURVE"
);
}
);
width = 419;
},
{
layerId = "6114C541-D024-4A3E-9713-6FAF49EAB318";
name = "Bold Condensed";
paths = (
{
closed = 1;
nodes = (
"391 -55 LINE",
"369 -85 OFFCURVE",
"342 -97 OFFCURVE",
"317 -97 CURVE SMOOTH",
"284.674 -97 OFFCURVE",
"269.352 -71.108 OFFCURVE",
"269.352 -43.347 CURVE SMOOTH",
"269.352 -26.562 OFFCURVE",
"274.954 -9.093 OFFCURVE",
"285.786 3.748 CURVE",
"339.966 14.34 OFFCURVE",
"387.551 46.76 OFFCURVE",
"420 93 CURVE",
"334 155 LINE",
"314 131 OFFCURVE",
"282 116 OFFCURVE",
"247 116 CURVE SMOOTH",
"191 116 OFFCURVE",
"146 161 OFFCURVE",
"146 217 CURVE SMOOTH",
"146 273 OFFCURVE",
"191 318 OFFCURVE",
"247 318 CURVE SMOOTH",
"376 318 LINE",
"388 357 OFFCURVE",
"395 399 OFFCURVE",
"395 430 CURVE SMOOTH",
"395 539 OFFCURVE",
"324 596 OFFCURVE",
"247 596 CURVE SMOOTH",
"160 596 OFFCURVE",
"108 534 OFFCURVE",
"108 458 CURVE SMOOTH",
"108 433.45 OFFCURVE",
"114.15 410.437 OFFCURVE",
"128.472 388.288 CURVE",
"69.149 352.16 OFFCURVE",
"30 289.423 OFFCURVE",
"30 217 CURVE SMOOTH",
"30 120.582 OFFCURVE",
"92.622 39.013 OFFCURVE",
"179.48 10.677 CURVE",
"167.843 -11.564 OFFCURVE",
"162.439 -34.689 OFFCURVE",
"162.439 -57.147 CURVE SMOOTH",
"162.439 -133.428 OFFCURVE",
"224.789 -202 OFFCURVE",
"317 -202 CURVE SMOOTH",
"367 -202 OFFCURVE",
"422 -176 OFFCURVE",
"468 -107 CURVE"
);
},
{
closed = 1;
nodes = (
"213 419 LINE",
"205 428 OFFCURVE",
"201 441 OFFCURVE",
"201 453 CURVE SMOOTH",
"201 477 OFFCURVE",
"218 498 OFFCURVE",
"247 498 CURVE SMOOTH",
"276 498 OFFCURVE",
"297 474 OFFCURVE",
"297 436 CURVE SMOOTH",
"297 430 OFFCURVE",
"297 424 OFFCURVE",
"296 418 CURVE",
"278 420 OFFCURVE",
"266 421 OFFCURVE",
"247 421 CURVE SMOOTH",
"235 421 OFFCURVE",
"223.23 420.1 OFFCURVE",
"211.764 418.366 CURVE"
);
}
);
width = 477;
}
);
note = si_Da;
unicode = 0DAF;
},
{
glyphname = si_Ma;
lastChange = "2015-08-27 12:43:16 +0000";
layers = (
{
layerId = "CC11FE7D-5FF0-4B40-9597-DFC61EB94F41";
name = "Light Condensed";
paths = (
{
closed = 1;
nodes = (
"510 546 OFFCURVE",
"450 755 OFFCURVE",
"264 756 CURVE SMOOTH",
"263 756 LINE SMOOTH",
"175 756 OFFCURVE",
"88 720 OFFCURVE",
"46 613 CURVE",
"77 603 LINE",
"111 693 OFFCURVE",
"194 723 OFFCURVE",
"255 723 CURVE SMOOTH",
"258 723 LINE SMOOTH",
"417 720 OFFCURVE",
"478 541 OFFCURVE",
"478 377 CURVE SMOOTH",
"478 224 OFFCURVE",
"436 35 OFFCURVE",
"261 35 CURVE SMOOTH",
"90 35 OFFCURVE",
"62 218 OFFCURVE",
"62 296 CURVE SMOOTH",
"62 367 OFFCURVE",
"74 493 OFFCURVE",
"149 493 CURVE SMOOTH",
"175 493 OFFCURVE",
"187 469 OFFCURVE",
"187 441 CURVE SMOOTH",
"187 417 OFFCURVE",
"185 390 OFFCURVE",
"185 339 CURVE SMOOTH",
"185 263 OFFCURVE",
"209 221 OFFCURVE",
"269 221 CURVE SMOOTH",
"353 221 OFFCURVE",
"365 294 OFFCURVE",
"365 380 CURVE SMOOTH",
"365 488 OFFCURVE",
"333 528 OFFCURVE",
"274 528 CURVE SMOOTH",
"241.947 528 OFFCURVE",
"219.065 517.565 OFFCURVE",
"205.175 500.074 CURVE",
"189.989 520.154 OFFCURVE",
"165.961 527 OFFCURVE",
"152 527 CURVE SMOOTH",
"48 527 OFFCURVE",
"30 391 OFFCURVE",
"30 296 CURVE SMOOTH",
"30 127 OFFCURVE",
"109 0 OFFCURVE",
"261 0 CURVE SMOOTH",
"470 0 OFFCURVE",
"510 204 OFFCURVE",
"510 377 CURVE SMOOTH"
);
},
{
closed = 1;
nodes = (
"227.027 494.797 OFFCURVE",
"255.201 497.126 OFFCURVE",
"268.529 497.126 CURVE SMOOTH",
"271.634 497.126 OFFCURVE",
"273.933 497 OFFCURVE",
"275 497 CURVE SMOOTH",
"317.004 497 OFFCURVE",
"337.136 462.369 OFFCURVE",
"337.136 391.368 CURVE SMOOTH",
"337.136 387.994 OFFCURVE",
"337.091 384.538 OFFCURVE",
"337 381 CURVE SMOOTH",
"335 301 OFFCURVE",
"323 253 OFFCURVE",
"271 253 CURVE SMOOTH",
"222 253 OFFCURVE",
"214 286 OFFCURVE",
"214 346 CURVE SMOOTH",
"214 391 OFFCURVE",
"217 404 OFFCURVE",
"219 451 CURVE SMOOTH",
"219.236 457.947 OFFCURVE",
"218.792 464.313 OFFCURVE",
"217.789 470.136 CURVE"
);
}
);
width = 540;
},
{
layerId = "6114C541-D024-4A3E-9713-6FAF49EAB318";
name = "Bold Condensed";
paths = (
{
closed = 1;
nodes = (
"520 442 OFFCURVE",
"513 559 OFFCURVE",
"461 646 CURVE SMOOTH",
"416.968 719.695 OFFCURVE",
"339.638 755.796 OFFCURVE",
"263.362 755.796 CURVE SMOOTH",
"175.071 755.796 OFFCURVE",
"88.19 707.425 OFFCURVE",
"56 613 CURVE",
"162 575 LINE",
"179.035 617.054 OFFCURVE",
"220.723 637.855 OFFCURVE",
"263.382 637.855 CURVE SMOOTH",
"300.859 637.855 OFFCURVE",
"339.084 621.801 OFFCURVE",
"362 590 CURVE SMOOTH",
"397 540 OFFCURVE",
"413 459 OFFCURVE",
"413 377 CURVE SMOOTH",
"413 244 OFFCURVE",
"388 115 OFFCURVE",
"271 115 CURVE SMOOTH",
"163 115 OFFCURVE",
"131 223 OFFCURVE",
"131 301 CURVE SMOOTH",
"131 382 OFFCURVE",
"139 433 OFFCURVE",
"159 433 CURVE SMOOTH",
"169.051 433 OFFCURVE",
"172.273 427.717 OFFCURVE",
"172.273 418.214 CURVE SMOOTH",
"172.273 401.245 OFFCURVE",
"162 370.82 OFFCURVE",
"162 333 CURVE SMOOTH",
"162 272 OFFCURVE",
"193 221 OFFCURVE",
"267 221 CURVE SMOOTH",
"370 221 OFFCURVE",
"371 300 OFFCURVE",
"371 383 CURVE SMOOTH",
"371 466 OFFCURVE",
"351 527 OFFCURVE",
"270 527 CURVE SMOOTH",
"247.596 527 OFFCURVE",
"228.51 520.694 OFFCURVE",
"213.757 509.232 CURVE",
"198.461 521.584 OFFCURVE",
"178.036 527 OFFCURVE",
"154 527 CURVE SMOOTH",
"50 527 OFFCURVE",
"30 411 OFFCURVE",
"30 296 CURVE SMOOTH",
"30 127 OFFCURVE",
"119 0 OFFCURVE",
"271 0 CURVE SMOOTH",
"480 0 OFFCURVE",
"520 204 OFFCURVE",
"520 377 CURVE SMOOTH"
);
},
{
closed = 1;
nodes = (
"252.179 443.013 OFFCURVE",
"258.028 444 OFFCURVE",
"264 444 CURVE SMOOTH",
"285 444 OFFCURVE",
"291 404 OFFCURVE",
"291 382 CURVE SMOOTH",
"291 350 OFFCURVE",
"286 309 OFFCURVE",
"266 309 CURVE SMOOTH",
"251 309 OFFCURVE",
"238 322 OFFCURVE",
"238 344 CURVE SMOOTH",
"238 365 OFFCURVE",
"250 385 OFFCURVE",
"250 408 CURVE SMOOTH",
"250 420.617 OFFCURVE",
"248.841 431.246 OFFCURVE",
"247.061 440.561 CURVE"
);
}
);
width = 549;
}
);
note = si_Ma;
unicode = 0DB8;
},
{
glyphname = si_Ya;
lastChange = "2015-08-27 12:43:36 +0000";
layers = (
{
layerId = "CC11FE7D-5FF0-4B40-9597-DFC61EB94F41";
name = "Light Condensed";
width = 571;
},
{
layerId = "6114C541-D024-4A3E-9713-6FAF49EAB318";
name = "Bold Condensed";
paths = (
{
closed = 1;
nodes = (
"397 320 LINE SMOOTH",
"437.79 320 OFFCURVE",
"457.522 268.525 OFFCURVE",
"457.522 218.068 CURVE SMOOTH",
"457.522 169.564 OFFCURVE",
"439.289 122 OFFCURVE",
"404 122 CURVE SMOOTH",
"361 122 OFFCURVE",
"348 177 OFFCURVE",
"348 250 CURVE",
"252 250 LINE",
"252 177 OFFCURVE",
"240 122 OFFCURVE",
"193 122 CURVE SMOOTH",
"143 122 OFFCURVE",
"131 229 OFFCURVE",
"131 283 CURVE SMOOTH",
"131 367 OFFCURVE",
"157 441 OFFCURVE",
"212 441 CURVE",
"214 549 LINE",
"90 549 OFFCURVE",
"30 418 OFFCURVE",
"30 269 CURVE SMOOTH",
"30 147 OFFCURVE",
"69 0 OFFCURVE",
"185 0 CURVE SMOOTH",
"238 0 OFFCURVE",
"281 32 OFFCURVE",
"297 79 CURVE",
"312 33 OFFCURVE",
"352 0 OFFCURVE",
"408 0 CURVE SMOOTH",
"510.022 0 OFFCURVE",
"556.447 103.591 OFFCURVE",
"556.447 208.572 CURVE SMOOTH",
"556.447 255.884 OFFCURVE",
"547.018 303.478 OFFCURVE",
"529 342 CURVE SMOOTH",
"522.301 356.553 OFFCURVE",
"514.375 368.651 OFFCURVE",
"504.913 378.578 CURVE",
"523.435 410.825 OFFCURVE",
"531.678 442.018 OFFCURVE",
"531.678 470.187 CURVE SMOOTH",
"531.678 541.891 OFFCURVE",
"478.265 594 OFFCURVE",
"405 594 CURVE SMOOTH",
"309.212 594 OFFCURVE",
"251.655 527.097 OFFCURVE",
"251.655 414.144 CURVE SMOOTH",
"251.655 385.593 OFFCURVE",
"255.333 354.099 OFFCURVE",
"263 320 CURVE"
);
},
{
closed = 1;
nodes = (
"418.253 415.968 OFFCURVE",
"401.503 417.127 OFFCURVE",
"382.737 417.127 CURVE SMOOTH",
"371.852 417.127 OFFCURVE",
"360.288 416.737 OFFCURVE",
"348 416 CURVE",
"346.664 424.499 OFFCURVE",
"346.051 432.188 OFFCURVE",
"346.051 439.138 CURVE SMOOTH",
"346.051 489.421 OFFCURVE",
"378.157 501 OFFCURVE",
"401 501 CURVE SMOOTH",
"427.156 501 OFFCURVE",
"444.31 482.049 OFFCURVE",
"444.31 454.583 CURVE SMOOTH",
"444.31 442.265 OFFCURVE",
"440.859 428.234 OFFCURVE",
"433.223 413.431 CURVE"
);
}
);
width = 586;
}
);
note = si_Ya;
unicode = 0DBA;
},
{
glyphname = si_Ra;
lastChange = "2015-08-27 12:43:51 +0000";
layers = (
{
layerId = "CC11FE7D-5FF0-4B40-9597-DFC61EB94F41";
name = "Light Condensed";
paths = (
{
closed = 1;
nodes = (
"351 534 OFFCURVE",
"391 421 OFFCURVE",
"391 295 CURVE SMOOTH",
"391 150 OFFCURVE",
"351 30 OFFCURVE",
"240 30 CURVE SMOOTH",
"112 30 OFFCURVE",
"64 150 OFFCURVE",
"64 295 CURVE SMOOTH",
"64 421 OFFCURVE",
"112 534 OFFCURVE",
"240 534 CURVE SMOOTH"
);
},
{
closed = 1;
nodes = (
"283 779 LINE",
"283 700 OFFCURVE",
"232 646 OFFCURVE",
"166 580 CURVE SMOOTH",
"137.399 551.399 OFFCURVE",
"115.018 526.584 OFFCURVE",
"100.121 509.351 CURVE",
"93.462 502.525 OFFCURVE",
"87.282 495.138 OFFCURVE",
"81.579 487.235 CURVE",
"79.873 485.119 OFFCURVE",
"79 484 OFFCURVE",
"79 484 CURVE",
"79.054 483.657 LINE",
"46.196 436.051 OFFCURVE",
"30 370.694 OFFCURVE",
"30 297 CURVE SMOOTH",
"30 127 OFFCURVE",
"98 0 OFFCURVE",
"238 0 CURVE SMOOTH",
"365 0 OFFCURVE",
"426 127 OFFCURVE",
"426 297 CURVE SMOOTH",
"426 448 OFFCURVE",
"365 564 OFFCURVE",
"238 564 CURVE SMOOTH",
"219.116 564 OFFCURVE",
"201.542 561.89 OFFCURVE",
"185.269 557.867 CURVE",
"256.734 624.257 OFFCURVE",
"312 691.147 OFFCURVE",
"312 779 CURVE"
);
}
);
width = 487;
},
{
layerId = "6114C541-D024-4A3E-9713-6FAF49EAB318";
name = "Bold Condensed";
paths = (
{
closed = 1;
nodes = (
"314 474 OFFCURVE",
"341 389 OFFCURVE",
"341 295 CURVE SMOOTH",
"341 199 OFFCURVE",
"314 120 OFFCURVE",
"239 120 CURVE SMOOTH",
"162 120 OFFCURVE",
"133 199 OFFCURVE",
"133 295 CURVE SMOOTH",
"133 389 OFFCURVE",
"162 474 OFFCURVE",
"239 474 CURVE SMOOTH"
);
},
{
closed = 1;
nodes = (
"263 779 LINE",
"263 723 OFFCURVE",
"230 679 OFFCURVE",
"186 630 CURVE SMOOTH",
"155.773 595.625 OFFCURVE",
"128.357 564.411 OFFCURVE",
"111.037 544.686 CURVE",
"56.685 492.178 OFFCURVE",
"30 402.241 OFFCURVE",
"30 297 CURVE SMOOTH",
"30 127 OFFCURVE",
"98 0 OFFCURVE",
"238 0 CURVE SMOOTH",
"378 0 OFFCURVE",
"446 127 OFFCURVE",
"446 297 CURVE SMOOTH",
"446 442.701 OFFCURVE",
"394.853 559.069 OFFCURVE",
"289.95 587.393 CURVE",
"297.703 596.035 OFFCURVE",
"305.246 604.451 OFFCURVE",
"312 612 CURVE SMOOTH",
"350 655 OFFCURVE",
"374 720 OFFCURVE",
"374 779 CURVE"
);
}
);
width = 475;
}
);
note = si_Ra;
unicode = 0DBB;
},
{
glyphname = si_La;
lastChange = "2015-08-27 12:44:11 +0000";
layers = (
{
layerId = "CC11FE7D-5FF0-4B40-9597-DFC61EB94F41";
name = "Light Condensed";
paths = (
{
closed = 1;
nodes = (
"144 -159 OFFCURVE",
"89 40 OFFCURVE",
"89 173 CURVE SMOOTH",
"89 326 OFFCURVE",
"141 509 OFFCURVE",
"305 509 CURVE SMOOTH",
"431 509 OFFCURVE",
"506 429 OFFCURVE",
"506 305 CURVE SMOOTH",
"506 201 OFFCURVE",
"444 162 OFFCURVE",
"383 162 CURVE SMOOTH",
"325 162 OFFCURVE",
"293 198 OFFCURVE",
"293 253 CURVE SMOOTH",
"293 315 OFFCURVE",
"326 339 OFFCURVE",
"359 339 CURVE SMOOTH",
"399 339 LINE",
"399 371 LINE",
"208 371 LINE",
"208 339 LINE",
"286 339 LINE",
"271 320 OFFCURVE",
"258 289 OFFCURVE",
"258 254 CURVE SMOOTH",
"258 164 OFFCURVE",
"317 130 OFFCURVE",
"384 130 CURVE SMOOTH",
"462 130 OFFCURVE",
"535 182 OFFCURVE",
"535 307 CURVE SMOOTH",
"535 436 OFFCURVE",
"462 540 OFFCURVE",
"305 540 CURVE SMOOTH",
"91 540 OFFCURVE",
"57 289 OFFCURVE",
"57 173 CURVE SMOOTH",
"57 57 OFFCURVE",
"109 -188 OFFCURVE",
"313 -188 CURVE SMOOTH",
"484 -188 OFFCURVE",
"524 -53 OFFCURVE",
"525 38 CURVE",
"497 38 LINE",
"497 -52 OFFCURVE",
"448 -159 OFFCURVE",
"313 -159 CURVE SMOOTH"
);
}
);
width = 590;
},
{
layerId = "6114C541-D024-4A3E-9713-6FAF49EAB318";
name = "Bold Condensed";
paths = (
{
closed = 1;
nodes = (
"144 289 OFFCURVE",
"173 450 OFFCURVE",
"318 450 CURVE SMOOTH",
"423 450 OFFCURVE",
"472 400 OFFCURVE",
"473 305 CURVE SMOOTH",
"473 228 OFFCURVE",
"452 195 OFFCURVE",
"400 195 CURVE SMOOTH",
"364 195 OFFCURVE",
"349 224 OFFCURVE",
"349 245 CURVE SMOOTH",
"349 260.734 OFFCURVE",
"355.858 288.813 OFFCURVE",
"383.771 298 CURVE",
"415 298 LINE",
"415 393 LINE",
"219 393 LINE",
"219 298 LINE",
"242.299 298 LINE",
"234.969 277.922 OFFCURVE",
"232 252.992 OFFCURVE",
"232 234 CURVE SMOOTH",
"232 144 OFFCURVE",
"297 86 OFFCURVE",
"399 86 CURVE SMOOTH",
"506 86 OFFCURVE",
"586 151 OFFCURVE",
"587 307 CURVE SMOOTH",
"587 424 OFFCURVE",
"509 560 OFFCURVE",
"319 560 CURVE SMOOTH",
"71 560 OFFCURVE",
"30 289 OFFCURVE",
"30 174 CURVE SMOOTH",
"30 59 OFFCURVE",
"78 -205 OFFCURVE",
"327 -205 CURVE SMOOTH",
"508 -205 OFFCURVE",
"569 -62 OFFCURVE",
"580 -5 CURVE",
"483 29 LINE",
"461 -29 OFFCURVE",
"420 -95 OFFCURVE",
"327 -95 CURVE SMOOTH",
"196 -95 OFFCURVE",
"144 44 OFFCURVE",
"144 175 CURVE SMOOTH"
);
}
);
width = 617;
}
);
note = si_La;
unicode = 0DBD;
},
{
glyphname = si_Va;
lastChange = "2015-08-27 12:44:25 +0000";
layers = (
{
layerId = "CC11FE7D-5FF0-4B40-9597-DFC61EB94F41";
name = "Light Condensed";
paths = (
{
closed = 1;
nodes = (
"504 546 OFFCURVE",
"454 756 OFFCURVE",
"247 756 CURVE SMOOTH",
"159 756 OFFCURVE",
"72 707 OFFCURVE",
"40 613 CURVE",
"69 603 LINE",
"98 682 OFFCURVE",
"174 723 OFFCURVE",
"244 723 CURVE SMOOTH",
"415 723 OFFCURVE",
"472 557 OFFCURVE",
"472 376 CURVE SMOOTH",
"472 196 OFFCURVE",
"435 32 OFFCURVE",
"248 32 CURVE SMOOTH",
"147 32 OFFCURVE",
"58 91 OFFCURVE",
"58 218 CURVE SMOOTH",
"58 292 OFFCURVE",
"81 355 OFFCURVE",
"146 355 CURVE SMOOTH",
"311 355 LINE",
"311 355 OFFCURVE",
"310.996 355.009 OFFCURVE",
"310.988 355.026 CURVE",
"315 355 LINE",
"316.064 364.047 OFFCURVE",
"316.578 372.834 OFFCURVE",
"316.578 381.336 CURVE SMOOTH",
"316.578 468.697 OFFCURVE",
"262.348 526 OFFCURVE",
"194 526 CURVE SMOOTH",
"137.312 526 OFFCURVE",
"95.8 484.808 OFFCURVE",
"95.8 431.153 CURVE SMOOTH",
"95.8 415.165 OFFCURVE",
"99.486 398.07 OFFCURVE",
"107.555 380.629 CURVE",
"69.961 365.617 OFFCURVE",
"25 321.296 OFFCURVE",
"25 219 CURVE SMOOTH",
"25 116 OFFCURVE",
"83 0 OFFCURVE",
"245 0 CURVE SMOOTH",
"500 0 OFFCURVE",
"504 265 OFFCURVE",
"504 377 CURVE SMOOTH"
);
},
{
closed = 1;
nodes = (
"138 387 LINE",
"129.792 399.147 OFFCURVE",
"125.034 415.068 OFFCURVE",
"125.034 430.974 CURVE SMOOTH",
"125.034 463.516 OFFCURVE",
"144.952 496 OFFCURVE",
"196 496 CURVE SMOOTH",
"250.671 496 OFFCURVE",
"284.183 438.043 OFFCURVE",
"284.183 391.835 CURVE SMOOTH",
"284.183 389.867 OFFCURVE",
"284.123 387.92 OFFCURVE",
"284 386 CURVE"
);
}
);
width = 534;
},
{
layerId = "6114C541-D024-4A3E-9713-6FAF49EAB318";
name = "Bold Condensed";
paths = (
{
closed = 1;
nodes = (
"164 755 OFFCURVE",
"80 708 OFFCURVE",
"44 613 CURVE",
"153 577 LINE",
"170 619 OFFCURVE",
"210 640 OFFCURVE",
"251 640 CURVE SMOOTH",
"334 640 OFFCURVE",
"406 583 OFFCURVE",
"406 354 CURVE SMOOTH",
"406 195 OFFCURVE",
"364 115 OFFCURVE",
"260 115 CURVE SMOOTH",
"167 115 OFFCURVE",
"141 174 OFFCURVE",
"141 227 CURVE SMOOTH",
"141 271 OFFCURVE",
"153 306 OFFCURVE",
"209 306 CURVE SMOOTH",
"334 306 LINE",
"338 325 OFFCURVE",
"341 351 OFFCURVE",
"341 366 CURVE SMOOTH",
"341 475 OFFCURVE",
"270 532 OFFCURVE",
"193 532 CURVE SMOOTH",
"119 532 OFFCURVE",
"70 481 OFFCURVE",
"70 409 CURVE SMOOTH",
"70 393.18 OFFCURVE",
"72.976 377.361 OFFCURVE",
"78.927 361.054 CURVE",
"49.524 334.659 OFFCURVE",
"30 279.27 OFFCURVE",
"30 219 CURVE SMOOTH",
"30 137 OFFCURVE",
"82 0 OFFCURVE",
"260 0 CURVE SMOOTH",
"440 0 OFFCURVE",
"521 118 OFFCURVE",
"521 354 CURVE SMOOTH",
"521 676 OFFCURVE",
"390 755 OFFCURVE",
"251 755 CURVE SMOOTH"
);
},
{
closed = 1;
nodes = (
"166 391 LINE SMOOTH",
"164.399 391 OFFCURVE",
"162.816 390.979 OFFCURVE",
"161.249 390.939 CURVE",
"159.843 395.531 OFFCURVE",
"159 400.23 OFFCURVE",
"159 405 CURVE SMOOTH",
"159 426 OFFCURVE",
"168 444 OFFCURVE",
"193 444 CURVE SMOOTH",
"226.421 444 OFFCURVE",
"243.895 418.75 OFFCURVE",
"245.422 391 CURVE"
);
}
);
width = 551;
}
);
note = si_Va;
unicode = 0DC0;
},
{
glyphname = si_Sa;
lastChange = "2015-08-27 12:44:47 +0000";
layers = (
{
layerId = "CC11FE7D-5FF0-4B40-9597-DFC61EB94F41";
name = "Light Condensed";
paths = (
{
closed = 1;
nodes = (
"77 302 OFFCURVE",
"119 375 OFFCURVE",
"147 375 CURVE SMOOTH",
"389 375 LINE SMOOTH",
"489 375 OFFCURVE",
"517 296 OFFCURVE",
"517 220 CURVE SMOOTH",
"517 82 OFFCURVE",
"456 31 OFFCURVE",
"404 31 CURVE SMOOTH",
"315 31 OFFCURVE",
"312 161 OFFCURVE",
"312 237 CURVE",
"280 237 LINE",
"280 161 OFFCURVE",
"272 31 OFFCURVE",
"186 31 CURVE SMOOTH",
"94 31 OFFCURVE",
"77 127 OFFCURVE",
"77 204 CURVE SMOOTH"
);
},
{
closed = 1;
nodes = (
"145.306 405 LINE",
"134.735 423.335 OFFCURVE",
"126 456.723 OFFCURVE",
"126 482 CURVE SMOOTH",
"126 527 OFFCURVE",
"152 562 OFFCURVE",
"189 562 CURVE SMOOTH",
"243.332 561.109 OFFCURVE",
"278.625 495.958 OFFCURVE",
"278.625 429.437 CURVE SMOOTH",
"278.625 421.273 OFFCURVE",
"278.093 413.089 OFFCURVE",
"277 405 CURVE"
);
},
{
closed = 1;
nodes = (
"20 405 LINE",
"20 375 LINE",
"95 375 LINE",
"95 375 OFFCURVE",
"45 322 OFFCURVE",
"45 202 CURVE SMOOTH",
"45 97 OFFCURVE",
"84 1 OFFCURVE",
"185 1 CURVE SMOOTH",
"241.15 1 OFFCURVE",
"280.413 44.155 OFFCURVE",
"294.381 93.369 CURVE",
"307.995 35.181 OFFCURVE",
"351.738 1 OFFCURVE",
"403 1 CURVE SMOOTH",
"504 1 OFFCURVE",
"549 98 OFFCURVE",
"549 203 CURVE SMOOTH",
"549 258 OFFCURVE",
"543 292 OFFCURVE",
"522 335 CURVE SMOOTH",
"511.808 356.27 OFFCURVE",
"497.1 372.434 OFFCURVE",
"478.398 383.842 CURVE",
"493.675 416.283 OFFCURVE",
"500.253 446.517 OFFCURVE",
"500.253 473.353 CURVE SMOOTH",
"500.253 545.433 OFFCURVE",
"452.798 593 OFFCURVE",
"399 593 CURVE SMOOTH",
"348.167 593 OFFCURVE",
"309.998 564.219 OFFCURVE",
"294.537 511.461 CURVE",
"271.833 567.213 OFFCURVE",
"232.915 593 OFFCURVE",
"188 593 CURVE SMOOTH",
"138 593 OFFCURVE",
"94 550 OFFCURVE",
"94 486 CURVE SMOOTH",
"94 462.012 OFFCURVE",
"99.525 434.077 OFFCURVE",
"113.382 405 CURVE"
);
},
{
closed = 1;
nodes = (
"433.833 402.054 OFFCURVE",
"413.055 405 OFFCURVE",
"390 405 CURVE SMOOTH",
"315 405 LINE",
"313.764 414.396 OFFCURVE",
"313.154 423.868 OFFCURVE",
"313.154 433.254 CURVE SMOOTH",
"313.154 499.79 OFFCURVE",
"343.789 562 OFFCURVE",
"399 562 CURVE SMOOTH",
"444.098 562 OFFCURVE",
"471.526 522.13 OFFCURVE",
"471.526 471.667 CURVE SMOOTH",
"471.526 447.772 OFFCURVE",
"465.376 421.502 OFFCURVE",
"452.041 395.965 CURVE"
);
}
);
width = 569;
},
{
layerId = "6114C541-D024-4A3E-9713-6FAF49EAB318";
name = "Bold Condensed";
paths = (
{
closed = 1;
nodes = (
"170.711 114 OFFCURVE",
"152.478 163.005 OFFCURVE",
"152.478 212.979 CURVE SMOOTH",
"152.478 264.966 OFFCURVE",
"172.21 318 OFFCURVE",
"213 318 CURVE SMOOTH",
"410 318 LINE SMOOTH",
"450.79 318 OFFCURVE",
"470.522 265.226 OFFCURVE",
"470.522 213.493 CURVE SMOOTH",
"470.522 163.765 OFFCURVE",
"452.289 115 OFFCURVE",
"417 115 CURVE SMOOTH",
"374 115 OFFCURVE",
"360 177 OFFCURVE",
"360 250 CURVE",
"264 250 LINE",
"264 176 OFFCURVE",
"253 114 OFFCURVE",
"206 114 CURVE SMOOTH"
);
},
{
closed = 1;
nodes = (
"30 416 LINE",
"30 320 LINE",
"74 320 LINE",
"59.343 283.502 OFFCURVE",
"51.789 241.552 OFFCURVE",
"51.789 200.3 CURVE SMOOTH",
"51.789 98.008 OFFCURVE",
"98.234 0 OFFCURVE",
"198 0 CURVE SMOOTH",
"251 0 OFFCURVE",
"294 32 OFFCURVE",
"310 79 CURVE",
"325 33 OFFCURVE",
"365 0 OFFCURVE",
"421 0 CURVE SMOOTH",
"523.022 0 OFFCURVE",
"569.447 103.591 OFFCURVE",
"569.447 208.572 CURVE SMOOTH",
"569.447 255.884 OFFCURVE",
"560.018 303.478 OFFCURVE",
"542 342 CURVE SMOOTH",
"535.897 355.259 OFFCURVE",
"528.775 366.48 OFFCURVE",
"520.401 375.878 CURVE",
"539.38 401.715 OFFCURVE",
"548.036 430.489 OFFCURVE",
"548.036 458.443 CURVE SMOOTH",
"548.036 528.822 OFFCURVE",
"493.165 594 OFFCURVE",
"410 594 CURVE SMOOTH",
"371.695 594 OFFCURVE",
"337.597 579.894 OFFCURVE",
"313 552.298 CURVE",
"288.403 579.894 OFFCURVE",
"254.305 594 OFFCURVE",
"216 594 CURVE SMOOTH",
"132.396 594 OFFCURVE",
"76.364 529.664 OFFCURVE",
"76.364 459.734 CURVE SMOOTH",
"76.364 445.222 OFFCURVE",
"78.777 430.469 OFFCURVE",
"83.858 416 CURVE"
);
},
{
closed = 1;
nodes = (
"181.05 416 LINE",
"183 417 LINE",
"174.886 427.143 OFFCURVE",
"170.886 439.572 OFFCURVE",
"170.886 451.582 CURVE SMOOTH",
"170.886 475.094 OFFCURVE",
"186.214 497 OFFCURVE",
"216 497 CURVE SMOOTH",
"245 497 OFFCURVE",
"267 472 OFFCURVE",
"267 434 CURVE SMOOTH",
"267 428 OFFCURVE",
"267 422 OFFCURVE",
"266 416 CURVE"
);
},
{
closed = 1;
nodes = (
"360 422 OFFCURVE",
"359 428 OFFCURVE",
"359 434 CURVE SMOOTH",
"359 472 OFFCURVE",
"381 496 OFFCURVE",
"410 496 CURVE SMOOTH",
"439.199 496 OFFCURVE",
"453.662 474.106 OFFCURVE",
"453.662 450.535 CURVE SMOOTH",
"453.662 437.871 OFFCURVE",
"449.487 424.722 OFFCURVE",
"441.179 414.224 CURVE",
"427.514 416.211 OFFCURVE",
"412.423 417.127 OFFCURVE",
"395.737 417.127 CURVE SMOOTH",
"384.852 417.127 OFFCURVE",
"373.288 416.737 OFFCURVE",
"361 416 CURVE"
);
}
);
width = 598;
}
);
note = si_Sa;
unicode = 0DC3;
},
{
glyphname = si_TI;
lastChange = "2015-08-27 12:06:28 +0000";
layers = (
{
layerId = "CC11FE7D-5FF0-4B40-9597-DFC61EB94F41";
name = "Light Condensed";
paths = (
{
closed = 1;
nodes = (
"40 659 OFFCURVE",
"59 589 OFFCURVE",
"126 589 CURVE SMOOTH",
"170 589 OFFCURVE",
"204 608 OFFCURVE",
"241 608 CURVE SMOOTH",
"360 608 OFFCURVE",
"417 497 OFFCURVE",
"417 377 CURVE SMOOTH",
"417 237 OFFCURVE",
"395 30 OFFCURVE",
"225 30 CURVE SMOOTH",
"94 30 OFFCURVE",
"59 158 OFFCURVE",
"59 247 CURVE SMOOTH",
"59 341 OFFCURVE",
"86 417 OFFCURVE",
"170 418 CURVE SMOOTH",
"198 418 OFFCURVE",
"218 410 OFFCURVE",
"233 403 CURVE",
"242 432 LINE",
"219 443 OFFCURVE",
"196 448 OFFCURVE",
"170 448 CURVE SMOOTH",
"85 448 OFFCURVE",
"27 389 OFFCURVE",
"27 247 CURVE SMOOTH",
"27 132 OFFCURVE",
"77 0 OFFCURVE",
"221 0 CURVE SMOOTH",
"445 0 OFFCURVE",
"449 263 OFFCURVE",
"449 377 CURVE SMOOTH",
"449 451.758 OFFCURVE",
"428.387 534.531 OFFCURVE",
"376.55 586.88 CURVE",
"391.331 594.656 OFFCURVE",
"426 620.612 OFFCURVE",
"426 693 CURVE SMOOTH",
"426 778 OFFCURVE",
"346 839 OFFCURVE",
"241 839 CURVE SMOOTH",
"161 839 OFFCURVE",
"41 809 OFFCURVE",
"40 687 CURVE SMOOTH"
);
},
{
closed = 1;
nodes = (
"325.41 627.04 OFFCURVE",
"288.223 640 OFFCURVE",
"242 640 CURVE SMOOTH",
"203 640 OFFCURVE",
"156 621 OFFCURVE",
"129 621 CURVE SMOOTH",
"82 621 OFFCURVE",
"73 664 OFFCURVE",
"73 694 CURVE SMOOTH",
"73 769 OFFCURVE",
"151 808 OFFCURVE",
"241 808 CURVE SMOOTH",
"332 808 OFFCURVE",
"398 756 OFFCURVE",
"398 694 CURVE SMOOTH",
"398 633.294 OFFCURVE",
"368.476 612.15 OFFCURVE",
"354.802 605.613 CURVE"
);
}
);
width = 506;
},
{
layerId = "6114C541-D024-4A3E-9713-6FAF49EAB318";
name = "Bold Condensed";
width = 600;
}
);
note = si_TI;
},
{
glyphname = si_TI.rakar;
lastChange = "2015-08-27 12:06:28 +0000";
layers = (
{
layerId = "CC11FE7D-5FF0-4B40-9597-DFC61EB94F41";
name = "Light Condensed";
paths = (
{
closed = 1;
nodes = (
"40 659 OFFCURVE",
"59 589 OFFCURVE",
"126 589 CURVE SMOOTH",
"170 589 OFFCURVE",
"204 608 OFFCURVE",
"241 608 CURVE SMOOTH",
"360 608 OFFCURVE",
"417 497 OFFCURVE",
"417 377 CURVE SMOOTH",
"417 237 OFFCURVE",
"395 30 OFFCURVE",
"225 30 CURVE SMOOTH",
"94 30 OFFCURVE",
"59 158 OFFCURVE",
"59 247 CURVE SMOOTH",
"59 341 OFFCURVE",
"86 417 OFFCURVE",
"170 418 CURVE SMOOTH",
"198 418 OFFCURVE",
"218 410 OFFCURVE",
"233 403 CURVE",
"242 432 LINE",
"219 443 OFFCURVE",
"196 448 OFFCURVE",
"170 448 CURVE SMOOTH",
"85 448 OFFCURVE",
"27 389 OFFCURVE",
"27 247 CURVE SMOOTH",
"27 132 OFFCURVE",
"77 0 OFFCURVE",
"221 0 CURVE SMOOTH",
"284.886 0 OFFCURVE",
"330.877 21.393 OFFCURVE",
"363.984 54.622 CURVE",
"373.705 34.233 OFFCURVE",
"389 -0.646 OFFCURVE",
"389 -39 CURVE SMOOTH",
"389 -145 OFFCURVE",
"325 -190 OFFCURVE",
"232 -190 CURVE SMOOTH",
"131 -190 OFFCURVE",
"79 -144 OFFCURVE",
"78 -55 CURVE",
"78 -29 OFFCURVE",
"87 -8 OFFCURVE",
"87 -8 CURVE",
"59 2 LINE",
"59 2 OFFCURVE",
"48 -23 OFFCURVE",
"48 -60 CURVE SMOOTH",
"49 -137 OFFCURVE",
"86 -219 OFFCURVE",
"230 -219 CURVE SMOOTH",
"380 -219 OFFCURVE",
"419 -134 OFFCURVE",
"419 -39 CURVE SMOOTH",
"419 25 OFFCURVE",
"386 79 OFFCURVE",
"386 79 CURVE",
"384.078 78.252 LINE",
"447.3 165.072 OFFCURVE",
"449 302.69 OFFCURVE",
"449 377 CURVE SMOOTH",
"449 451.758 OFFCURVE",
"428.387 534.531 OFFCURVE",
"376.55 586.88 CURVE",
"391.331 594.656 OFFCURVE",
"426 620.612 OFFCURVE",
"426 693 CURVE SMOOTH",
"426 778 OFFCURVE",
"346 839 OFFCURVE",
"241 839 CURVE SMOOTH",
"161 839 OFFCURVE",
"41 809 OFFCURVE",
"40 687 CURVE SMOOTH"
);
},
{
closed = 1;
nodes = (
"325.41 627.04 OFFCURVE",
"288.223 640 OFFCURVE",
"242 640 CURVE SMOOTH",
"203 640 OFFCURVE",
"156 621 OFFCURVE",
"129 621 CURVE SMOOTH",
"82 621 OFFCURVE",
"73 664 OFFCURVE",
"73 694 CURVE SMOOTH",
"73 769 OFFCURVE",
"151 808 OFFCURVE",
"241 808 CURVE SMOOTH",
"332 808 OFFCURVE",
"398 756 OFFCURVE",
"398 694 CURVE SMOOTH",
"398 633.294 OFFCURVE",
"368.476 612.15 OFFCURVE",
"354.802 605.613 CURVE"
);
}
);
width = 506;
},
{
layerId = "6114C541-D024-4A3E-9713-6FAF49EAB318";
name = "Bold Condensed";
width = 600;
}
);
note = si_TI.rakar;
},
{
glyphname = NameMe.12;
lastChange = "2015-08-27 12:35:38 +0000";
layers = (
{
layerId = "CC11FE7D-5FF0-4B40-9597-DFC61EB94F41";
name = "Light Condensed";
width = 630;
},
{
layerId = "6114C541-D024-4A3E-9713-6FAF49EAB318";
name = "Bold Condensed";
paths = (
{
closed = 1;
nodes = (
"357 592 OFFCURVE",
"352 608 OFFCURVE",
"352 625 CURVE",
"363 619 OFFCURVE",
"375 610 OFFCURVE",
"385 601 CURVE SMOOTH",
"401 587 OFFCURVE",
"417 565 OFFCURVE",
"429 546 CURVE",
"424.021 544.838 OFFCURVE",
"419.262 544.282 OFFCURVE",
"414.723 544.282 CURVE SMOOTH",
"391.917 544.282 OFFCURVE",
"374.676 558.315 OFFCURVE",
"363 580 CURVE SMOOTH"
);
},
{
closed = 1;
nodes = (
"225 750 LINE",
"243 657 LINE",
"243 652 LINE",
"244 652 LINE",
"248 653 LINE",
"249 653 LINE",
"249.412 653.034 OFFCURVE",
"249.816 653.051 OFFCURVE",
"250.213 653.051 CURVE SMOOTH",
"292.448 653.051 OFFCURVE",
"245.423 459.776 OFFCURVE",
"418.993 459.776 CURVE SMOOTH",
"433.413 459.776 OFFCURVE",
"449.356 461.11 OFFCURVE",
"467 464 CURVE",
"484.306 409.696 OFFCURVE",
"493.065 348.982 OFFCURVE",
"493.065 291.421 CURVE SMOOTH",
"493.065 252.524 OFFCURVE",
"489.065 215.067 OFFCURVE",
"481 182 CURVE SMOOTH",
"467 125 OFFCURVE",
"439 122 OFFCURVE",
"420 122 CURVE SMOOTH",
"379 122 OFFCURVE",
"363 173 OFFCURVE",
"363 244 CURVE SMOOTH",
"363 250 LINE",
"267 250 LINE",
"267 244 LINE SMOOTH",
"267 173 OFFCURVE",
"253 122 OFFCURVE",
"208 122 CURVE SMOOTH",
"173 122 OFFCURVE",
"157 155 OFFCURVE",
"157 199 CURVE SMOOTH",
"157 238 OFFCURVE",
"170 281 OFFCURVE",
"191 308 CURVE",
"350 308 LINE",
"350 312 LINE",
"351.747 326.383 OFFCURVE",
"352.575 339.985 OFFCURVE",
"352.575 352.823 CURVE SMOOTH",
"352.575 464.949 OFFCURVE",
"289.398 518.822 OFFCURVE",
"223 526 CURVE SMOOTH",
"217.735 526.576 OFFCURVE",
"212.471 526.861 OFFCURVE",
"207.237 526.861 CURVE SMOOTH",
"148.85 526.861 OFFCURVE",
"94.342 491.406 OFFCURVE",
"87 429 CURVE SMOOTH",
"86.732 425.785 OFFCURVE",
"86.608 422.569 OFFCURVE",
"86.608 419.315 CURVE SMOOTH",
"86.608 410.426 OFFCURVE",
"87.536 401.249 OFFCURVE",
"89 391 CURVE",
"25 391 LINE",
"25 306 LINE",
"79 306 LINE",
"63 277 OFFCURVE",
"51 229 OFFCURVE",
"51 187 CURVE SMOOTH",
"51 81 OFFCURVE",
"107 0 OFFCURVE",
"201 0 CURVE SMOOTH",
"254 0 OFFCURVE",
"297 32 OFFCURVE",
"313 79 CURVE",
"328 33 OFFCURVE",
"368 0 OFFCURVE",
"424 0 CURVE SMOOTH",
"445.062 0 OFFCURVE",
"464.036 3.914 OFFCURVE",
"481.005 10.989 CURVE",
"488.904 -5.799 OFFCURVE",
"492.474 -21.063 OFFCURVE",
"492.474 -34.838 CURVE SMOOTH",
"492.474 -102.317 OFFCURVE",
"406.798 -134.057 OFFCURVE",
"324.5 -134.057 CURVE SMOOTH",
"248.447 -134.057 OFFCURVE",
"175.28 -106.951 OFFCURVE",
"175.28 -55.894 CURVE SMOOTH",
"175.28 -47.853 OFFCURVE",
"177.095 -39.217 OFFCURVE",
"181 -30 CURVE",
"74 8 LINE",
"63.96 -17.338 OFFCURVE",
"59.355 -41 OFFCURVE",
"59.355 -62.877 CURVE SMOOTH",
"59.355 -178.279 OFFCURVE",
"187.498 -244 OFFCURVE",
"322 -244 CURVE SMOOTH",
"471.867 -244 OFFCURVE",
"597.763 -176.18 OFFCURVE",
"597.763 -49.035 CURVE SMOOTH",
"597.763 -9.945 OFFCURVE",
"585.863 34.752 OFFCURVE",
"559.102 84.81 CURVE",
"575.921 114.923 OFFCURVE",
"586.727 150.465 OFFCURVE",
"592 187 CURVE SMOOTH",
"597.616 226.712 OFFCURVE",
"600.456 266.062 OFFCURVE",
"600.456 304.494 CURVE SMOOTH",
"600.456 457.676 OFFCURVE",
"555.333 596.263 OFFCURVE",
"461 685 CURVE SMOOTH",
"408.917 733.552 OFFCURVE",
"337.351 765.74 OFFCURVE",
"260.062 765.74 CURVE SMOOTH",
"249.798 765.74 OFFCURVE",
"239.433 765.172 OFFCURVE",
"229 764 CURVE",
"223 763 LINE",
"226 750 LINE"
);
},
{
closed = 1;
nodes = (
"202.53 446.038 OFFCURVE",
"206.233 446.602 OFFCURVE",
"209.965 446.602 CURVE SMOOTH",
"224.205 446.602 OFFCURVE",
"238.869 438.393 OFFCURVE",
"246 417 CURVE",
"248 410 OFFCURVE",
"250 402 OFFCURVE",
"250 392 CURVE",
"177 392 LINE",
"174.695 398.453 OFFCURVE",
"173.666 404.428 OFFCURVE",
"173.666 409.876 CURVE SMOOTH",
"173.666 428.067 OFFCURVE",
"185.148 440.383 OFFCURVE",
"199 445 CURVE"
);
}
);
width = 630;
}
);
note = NameMe.12;
},
{
glyphname = H;
lastChange = "2015-09-03 09:18:27 +0000";
layers = (
{
layerId = "CC11FE7D-5FF0-4B40-9597-DFC61EB94F41";
name = "Light Condensed";
paths = (
{
closed = 1;
nodes = (
"90 675 LINE",
"90 0 LINE",
"129 0 LINE",
"129 675 LINE"
);
},
{
closed = 1;
nodes = (
"536 0 LINE",
"536 675 LINE",
"497 675 LINE",
"497 0 LINE"
);
},
{
closed = 1;
nodes = (
"110 336 LINE",
"516 336 LINE",
"516 371 LINE",
"110 371 LINE"
);
}
);
width = 600;
},
{
layerId = "6114C541-D024-4A3E-9713-6FAF49EAB318";
name = "Bold Condensed";
paths = (
{
closed = 1;
nodes = (
"55 675 LINE",
"55 0 LINE",
"177 0 LINE",
"177 675 LINE"
);
},
{
closed = 1;
nodes = (
"552 0 LINE",
"552 675 LINE",
"430 675 LINE",
"430 0 LINE"
);
},
{
closed = 1;
nodes = (
"114 301 LINE",
"490 301 LINE",
"490 406 LINE",
"114 406 LINE"
);
}
);
width = 607;
}
);
unicode = 0048;
},
{
glyphname = N;
lastChange = "2015-09-03 09:18:59 +0000";
layers = (
{
background = {
paths = (
{
closed = 0;
nodes = (
"111 0 LINE",
"111 660 LINE",
"510 40 LINE",
"510 700 LINE"
);
}
);
};
layerId = "CC11FE7D-5FF0-4B40-9597-DFC61EB94F41";
name = "Light Condensed";
paths = (
{
closed = 1;
nodes = (
"502 82 LINE",
"130 682 LINE",
"90 675 LINE",
"90 0 LINE",
"129 0 LINE",
"129 603 LINE",
"504 -7 LINE",
"541 0 LINE",
"541 675 LINE",
"502 675 LINE"
);
}
);
width = 631;
},
{
background = {
paths = (
{
closed = 1;
nodes = (
"493 72 LINE",
"131 707 LINE",
"91 700 LINE",
"91 0 LINE",
"130 0 LINE",
"130 638 LINE",
"495 -7 LINE",
"532 0 LINE",
"532 700 LINE",
"493 700 LINE"
);
}
);
};
layerId = "6114C541-D024-4A3E-9713-6FAF49EAB318";
name = "Bold Condensed";
paths = (
{
closed = 1;
nodes = (
"439 250 LINE",
"173 685 LINE",
"55 675 LINE",
"55 0 LINE",
"173 0 LINE",
"173 425 LINE",
"439 -10 LINE",
"557 0 LINE",
"557 675 LINE",
"439 675 LINE"
);
}
);
width = 612;
}
);
unicode = 004E;
},
{
glyphname = O;
lastChange = "2015-09-03 09:18:44 +0000";
layers = (
{
background = {
paths = (
{
closed = 1;
nodes = (
"539 139 OFFCURVE",
"443 -7 OFFCURVE",
"304 -7 CURVE SMOOTH",
"158 -7 OFFCURVE",
"65 139 OFFCURVE",
"65 318 CURVE SMOOTH",
"65 498 OFFCURVE",
"164 644 OFFCURVE",
"304 644 CURVE SMOOTH",
"445 644 OFFCURVE",
"539 498 OFFCURVE",
"539 318 CURVE SMOOTH"
);
}
);
};
layerId = "CC11FE7D-5FF0-4B40-9597-DFC61EB94F41";
name = "Light Condensed";
paths = (
{
closed = 1;
nodes = (
"515 163 OFFCURVE",
"436 30 OFFCURVE",
"302 30 CURVE SMOOTH",
"165 30 OFFCURVE",
"89 161 OFFCURVE",
"89 336 CURVE SMOOTH",
"89 510 OFFCURVE",
"170 645 OFFCURVE",
"304 645 CURVE SMOOTH",
"439 645 OFFCURVE",
"515 512 OFFCURVE",
"515 336 CURVE SMOOTH"
);
},
{
closed = 1;
nodes = (
"559 531 OFFCURVE",
"471 682 OFFCURVE",
"304 682 CURVE SMOOTH",
"146 682 OFFCURVE",
"45 529 OFFCURVE",
"45 336 CURVE SMOOTH",
"45 142 OFFCURVE",
"130 -7 OFFCURVE",
"302 -7 CURVE SMOOTH",
"460 -7 OFFCURVE",
"559 144 OFFCURVE",
"559 336 CURVE SMOOTH"
);
}
);
width = 604;
},
{
layerId = "6114C541-D024-4A3E-9713-6FAF49EAB318";
name = "Bold Condensed";
paths = (
{
closed = 1;
nodes = (
"466 204 OFFCURVE",
"416 95 OFFCURVE",
"312 95 CURVE SMOOTH",
"207 95 OFFCURVE",
"158 202 OFFCURVE",
"158 336 CURVE SMOOTH",
"158 468 OFFCURVE",
"209 579 OFFCURVE",
"314 579 CURVE SMOOTH",
"417 579 OFFCURVE",
"466 472 OFFCURVE",
"466 335 CURVE SMOOTH"
);
},
{
closed = 1;
nodes = (
"596 540 OFFCURVE",
"499 690 OFFCURVE",
"314 690 CURVE SMOOTH",
"131 690 OFFCURVE",
"28 534 OFFCURVE",
"28 335 CURVE SMOOTH",
"28 133 OFFCURVE",
"126 -15 OFFCURVE",
"311 -15 CURVE SMOOTH",
"495 -15 OFFCURVE",
"596 137 OFFCURVE",
"596 336 CURVE SMOOTH"
);
}
);
width = 624;
}
);
unicode = 004F;
},
{
glyphname = a;
lastChange = "2015-09-02 16:14:45 +0000";
layers = (
{
background = {
paths = (
{
closed = 1;
nodes = (
"308 18 OFFCURVE",
"333 -7 OFFCURVE",
"416 -7 CURVE",
"416 26 LINE",
"356 26 OFFCURVE",
"346 43 OFFCURVE",
"346 103 CURVE SMOOTH",
"346 364 LINE SMOOTH",
"346 465 OFFCURVE",
"292 507 OFFCURVE",
"205 507 CURVE SMOOTH",
"137 507 OFFCURVE",
"86 482 OFFCURVE",
"44 454 CURVE",
"62 426 LINE",
"100 450 OFFCURVE",
"140 474 OFFCURVE",
"204 474 CURVE SMOOTH",
"271 474 OFFCURVE",
"308 439 OFFCURVE",
"308 361 CURVE SMOOTH",
"308 156 LINE SMOOTH",
"308 67 OFFCURVE",
"229 24 OFFCURVE",
"182 24 CURVE SMOOTH",
"113 24 OFFCURVE",
"71 65 OFFCURVE",
"71 142 CURVE SMOOTH",
"71 202 OFFCURVE",
"111 254 OFFCURVE",
"234 254 CURVE SMOOTH",
"267 254 OFFCURVE",
"292 252 OFFCURVE",
"321 247 CURVE",
"321 278 LINE",
"294 283 OFFCURVE",
"269 285 OFFCURVE",
"236 285 CURVE SMOOTH",
"104 285 OFFCURVE",
"31 228 OFFCURVE",
"31 142 CURVE SMOOTH",
"31 46 OFFCURVE",
"88 -7 OFFCURVE",
"175 -7 CURVE SMOOTH",
"230 -7 OFFCURVE",
"299 26 OFFCURVE",
"330 96 CURVE",
"308 101 LINE"
);
}
);
};
layerId = "CC11FE7D-5FF0-4B40-9597-DFC61EB94F41";
name = "Light Condensed";
paths = (
{
closed = 1;
nodes = (
"308 18 OFFCURVE",
"333 -7 OFFCURVE",
"416 -7 CURVE",
"416 26 LINE",
"356 26 OFFCURVE",
"346 43 OFFCURVE",
"346 103 CURVE SMOOTH",
"346 364 LINE SMOOTH",
"346 462 OFFCURVE",
"281 507 OFFCURVE",
"202 507 CURVE SMOOTH",
"151 507 OFFCURVE",
"94 489 OFFCURVE",
"44 453 CURVE",
"62 426 LINE",
"108 457 OFFCURVE",
"158 475 OFFCURVE",
"201 475 CURVE SMOOTH",
"262 475 OFFCURVE",
"308 441 OFFCURVE",
"308 361 CURVE SMOOTH",
"308 156 LINE SMOOTH",
"308 67 OFFCURVE",
"229 24 OFFCURVE",
"182 24 CURVE SMOOTH",
"113 24 OFFCURVE",
"71 65 OFFCURVE",
"71 142 CURVE SMOOTH",
"71 202 OFFCURVE",
"111 254 OFFCURVE",
"234 254 CURVE SMOOTH",
"267 254 OFFCURVE",
"292 252 OFFCURVE",
"321 247 CURVE",
"321 278 LINE",
"294 283 OFFCURVE",
"269 285 OFFCURVE",
"236 285 CURVE SMOOTH",
"106 285 OFFCURVE",
"31 225 OFFCURVE",
"31 142 CURVE SMOOTH",
"31 46 OFFCURVE",
"88 -7 OFFCURVE",
"175 -7 CURVE SMOOTH",
"230 -7 OFFCURVE",
"299 26 OFFCURVE",
"330 96 CURVE",
"308 101 LINE"
);
}
);
width = 436;
},
{
background = {
paths = (
{
closed = 1;
nodes = (
"319 18 OFFCURVE",
"344 -7 OFFCURVE",
"427 -7 CURVE",
"427 26 LINE",
"367 26 OFFCURVE",
"357 43 OFFCURVE",
"357 103 CURVE SMOOTH",
"357 374 LINE SMOOTH",
"357 465 OFFCURVE",
"303 507 OFFCURVE",
"226 507 CURVE SMOOTH",
"168 507 OFFCURVE",
"117 482 OFFCURVE",
"75 454 CURVE",
"93 426 LINE",
"131 450 OFFCURVE",
"171 474 OFFCURVE",
"225 474 CURVE SMOOTH",
"282 474 OFFCURVE",
"319 439 OFFCURVE",
"319 371 CURVE SMOOTH",
"319 156 LINE SMOOTH",
"319 67 OFFCURVE",
"250 24 OFFCURVE",
"203 24 CURVE SMOOTH",
"144 24 OFFCURVE",
"102 65 OFFCURVE",
"102 142 CURVE SMOOTH",
"102 202 OFFCURVE",
"142 259 OFFCURVE",
"255 259 CURVE SMOOTH",
"278 259 OFFCURVE",
"303 257 OFFCURVE",
"332 252 CURVE",
"332 283 LINE",
"305 288 OFFCURVE",
"280 290 OFFCURVE",
"257 290 CURVE SMOOTH",
"135 290 OFFCURVE",
"62 228 OFFCURVE",
"62 142 CURVE SMOOTH",
"62 46 OFFCURVE",
"119 -7 OFFCURVE",
"196 -7 CURVE SMOOTH",
"251 -7 OFFCURVE",
"310 26 OFFCURVE",
"341 96 CURVE",
"319 101 LINE"
);
},
{
closed = 0;
nodes = (
"290 329 LINE SMOOTH",
"290 117 LINE SMOOTH",
"290 7 OFFCURVE",
"341 -15 OFFCURVE",
"446 -15 CURVE",
"446 75 LINE",
"421 75 OFFCURVE",
"410 84 OFFCURVE",
"410 109 CURVE SMOOTH",
"410 339 LINE SMOOTH"
);
}
);
};
layerId = "6114C541-D024-4A3E-9713-6FAF49EAB318";
name = "Bold Condensed";
paths = (
{
closed = 1;
nodes = (
"299 0 OFFCURVE",
"362 -15 OFFCURVE",
"447 -15 CURVE",
"447 75 LINE",
"407 75 OFFCURVE",
"399 93 OFFCURVE",
"399 133 CURVE SMOOTH",
"399 336 LINE SMOOTH",
"399 455 OFFCURVE",
"321 514 OFFCURVE",
"222 514 CURVE SMOOTH",
"163 514 OFFCURVE",
"96 493 OFFCURVE",
"41 458 CURVE",
"80 379 LINE",
"117 401 OFFCURVE",
"159 417 OFFCURVE",
"199 417 CURVE SMOOTH",
"244 417 OFFCURVE",
"279 395 OFFCURVE",
"279 331 CURVE SMOOTH",
"279 196 LINE SMOOTH",
"279 113 OFFCURVE",
"253 84 OFFCURVE",
"203 84 CURVE SMOOTH",
"169 84 OFFCURVE",
"147 105 OFFCURVE",
"147 142 CURVE SMOOTH",
"147 197 OFFCURVE",
"177 224 OFFCURVE",
"245 224 CURVE SMOOTH",
"278 224 OFFCURVE",
"303 222 OFFCURVE",
"332 217 CURVE",
"332 297 LINE",
"305 302 OFFCURVE",
"260 304 OFFCURVE",
"237 304 CURVE SMOOTH",
"103 304 OFFCURVE",
"25 242 OFFCURVE",
"25 142 CURVE SMOOTH",
"25 40 OFFCURVE",
"88 -15 OFFCURVE",
"179 -15 CURVE SMOOTH",
"248 -15 OFFCURVE",
"310 34 OFFCURVE",
"316 100 CURVE",
"299 100 LINE"
);
}
);
width = 462;
},
{
associatedMasterId = "CC11FE7D-5FF0-4B40-9597-DFC61EB94F41";
background = {
paths = (
{
closed = 0;
nodes = (
"77 435 LINE",
"140 470 OFFCURVE",
"174 475 OFFCURVE",
"218 475 CURVE SMOOTH",
"276 475 OFFCURVE",
"332 445 OFFCURVE",
"332 369 CURVE SMOOTH",
"332 306 OFFCURVE",
"330 101 OFFCURVE",
"330 101 CURVE",
"330 43 OFFCURVE",
"341 21 OFFCURVE",
"420 21 CURVE"
);
},
{
closed = 0;
nodes = (
"325 268 LINE",
"171 268 OFFCURVE",
"74 249 OFFCURVE",
"74 134 CURVE SMOOTH",
"74 45 OFFCURVE",
"131 19 OFFCURVE",
"190 19 CURVE SMOOTH",
"252 19 OFFCURVE",
"299 65 OFFCURVE",
"329 112 CURVE"
);
},
{
closed = 1;
nodes = (
"360 26 OFFCURVE",
"348 32 OFFCURVE",
"350 103 CURVE SMOOTH",
"350 384 LINE SMOOTH",
"351 466 OFFCURVE",
"291 508 OFFCURVE",
"214 508 CURVE SMOOTH",
"168 508 OFFCURVE",
"116 483 OFFCURVE",
"68 454 CURVE",
"86 427 LINE",
"128 451 OFFCURVE",
"174 474 OFFCURVE",
"213 474 CURVE SMOOTH",
"269 474 OFFCURVE",
"312 446 OFFCURVE",
"312 381 CURVE SMOOTH",
"312 101 LINE SMOOTH",
"312 15 OFFCURVE",
"337 -7 OFFCURVE",
"420 -7 CURVE",
"420 26 LINE"
);
},
{
closed = 1;
nodes = (
"292 55 OFFCURVE",
"243 24 OFFCURVE",
"196 24 CURVE SMOOTH",
"139 24 OFFCURVE",
"95 63 OFFCURVE",
"95 141 CURVE SMOOTH",
"95 221 OFFCURVE",
"153 263 OFFCURVE",
"325 263 CURVE",
"325 293 LINE",
"159 293 OFFCURVE",
"55 251 OFFCURVE",
"55 141 CURVE SMOOTH",
"55 44 OFFCURVE",
"114 -7 OFFCURVE",
"189 -7 CURVE SMOOTH",
"244 -7 OFFCURVE",
"303 26 OFFCURVE",
"334 96 CURVE",
"313 117 LINE"
);
}
);
};
layerId = "C67DF83B-54C0-4C98-BCB8-D29C4D2F3407";
name = "Light Condensed Aug 31 15, 11:21";
paths = (
{
closed = 1;
nodes = (
"360 26 OFFCURVE",
"350 43 OFFCURVE",
"350 103 CURVE SMOOTH",
"350 374 LINE SMOOTH",
"350 466 OFFCURVE",
"296 508 OFFCURVE",
"219 508 CURVE SMOOTH",
"161 508 OFFCURVE",
"110 483 OFFCURVE",
"68 455 CURVE",
"86 427 LINE",
"124 451 OFFCURVE",
"164 474 OFFCURVE",
"218 474 CURVE SMOOTH",
"275 474 OFFCURVE",
"312 440 OFFCURVE",
"312 371 CURVE SMOOTH",
"312 101 LINE SMOOTH",
"312 18 OFFCURVE",
"337 -7 OFFCURVE",
"420 -7 CURVE",
"420 26 LINE"
);
},
{
closed = 1;
nodes = (
"292 60 OFFCURVE",
"243 24 OFFCURVE",
"196 24 CURVE SMOOTH",
"139 24 OFFCURVE",
"95 63 OFFCURVE",
"95 142 CURVE SMOOTH",
"95 221 OFFCURVE",
"153 283 OFFCURVE",
"325 253 CURVE",
"325 283 LINE",
"159 313 OFFCURVE",
"55 251 OFFCURVE",
"55 142 CURVE SMOOTH",
"55 44 OFFCURVE",
"114 -7 OFFCURVE",
"189 -7 CURVE SMOOTH",
"244 -7 OFFCURVE",
"303 26 OFFCURVE",
"334 96 CURVE",
"313 126 LINE"
);
}
);
width = 453;
},
{
associatedMasterId = "CC11FE7D-5FF0-4B40-9597-DFC61EB94F41";
background = {
paths = (
{
closed = 0;
nodes = (
"77 435 LINE",
"140 470 OFFCURVE",
"174 475 OFFCURVE",
"218 475 CURVE SMOOTH",
"276 475 OFFCURVE",
"332 445 OFFCURVE",
"332 369 CURVE SMOOTH",
"332 306 OFFCURVE",
"330 101 OFFCURVE",
"330 101 CURVE",
"330 43 OFFCURVE",
"341 21 OFFCURVE",
"420 21 CURVE"
);
},
{
closed = 0;
nodes = (
"325 268 LINE",
"171 268 OFFCURVE",
"74 249 OFFCURVE",
"74 134 CURVE SMOOTH",
"74 45 OFFCURVE",
"131 19 OFFCURVE",
"190 19 CURVE SMOOTH",
"252 19 OFFCURVE",
"299 65 OFFCURVE",
"329 112 CURVE"
);
},
{
closed = 1;
nodes = (
"360 26 OFFCURVE",
"348 32 OFFCURVE",
"350 103 CURVE SMOOTH",
"350 384 LINE SMOOTH",
"351 466 OFFCURVE",
"291 508 OFFCURVE",
"214 508 CURVE SMOOTH",
"168 508 OFFCURVE",
"116 483 OFFCURVE",
"68 454 CURVE",
"86 427 LINE",
"128 451 OFFCURVE",
"174 474 OFFCURVE",
"213 474 CURVE SMOOTH",
"269 474 OFFCURVE",
"312 446 OFFCURVE",
"312 381 CURVE SMOOTH",
"312 101 LINE SMOOTH",
"312 15 OFFCURVE",
"337 -7 OFFCURVE",
"420 -7 CURVE",
"420 26 LINE"
);
},
{
closed = 1;
nodes = (
"292 55 OFFCURVE",
"243 24 OFFCURVE",
"196 24 CURVE SMOOTH",
"139 24 OFFCURVE",
"95 63 OFFCURVE",
"95 141 CURVE SMOOTH",
"95 221 OFFCURVE",
"153 263 OFFCURVE",
"325 263 CURVE",
"325 293 LINE",
"159 293 OFFCURVE",
"55 251 OFFCURVE",
"55 141 CURVE SMOOTH",
"55 44 OFFCURVE",
"114 -7 OFFCURVE",
"189 -7 CURVE SMOOTH",
"244 -7 OFFCURVE",
"303 26 OFFCURVE",
"334 96 CURVE",
"313 117 LINE"
);
}
);
};
layerId = "3598FAD8-C0C7-4F67-AF94-7D4DBDD480BE";
name = "Light Condensed Sep 2 15, 17:44";
paths = (
{
closed = 1;
nodes = (
"312 18 OFFCURVE",
"337 -7 OFFCURVE",
"420 -7 CURVE",
"420 26 LINE",
"360 26 OFFCURVE",
"350 43 OFFCURVE",
"350 103 CURVE SMOOTH",
"350 374 LINE SMOOTH",
"350 465 OFFCURVE",
"296 507 OFFCURVE",
"219 507 CURVE SMOOTH",
"161 507 OFFCURVE",
"110 482 OFFCURVE",
"68 454 CURVE",
"86 426 LINE",
"124 450 OFFCURVE",
"164 474 OFFCURVE",
"218 474 CURVE SMOOTH",
"275 474 OFFCURVE",
"312 439 OFFCURVE",
"312 371 CURVE SMOOTH",
"312 156 LINE SMOOTH",
"312 67 OFFCURVE",
"243 24 OFFCURVE",
"196 24 CURVE SMOOTH",
"137 24 OFFCURVE",
"95 65 OFFCURVE",
"95 142 CURVE SMOOTH",
"95 202 OFFCURVE",
"135 259 OFFCURVE",
"248 259 CURVE SMOOTH",
"271 259 OFFCURVE",
"296 257 OFFCURVE",
"325 252 CURVE",
"325 283 LINE",
"298 288 OFFCURVE",
"273 290 OFFCURVE",
"250 290 CURVE SMOOTH",
"128 290 OFFCURVE",
"55 228 OFFCURVE",
"55 142 CURVE SMOOTH",
"55 46 OFFCURVE",
"112 -7 OFFCURVE",
"189 -7 CURVE SMOOTH",
"244 -7 OFFCURVE",
"303 26 OFFCURVE",
"334 96 CURVE",
"312 101 LINE"
);
}
);
width = 453;
}
);
unicode = 0061;
},
{
glyphname = b;
lastChange = "2015-09-03 11:01:02 +0000";
layers = (
{
background = {
paths = (
{
closed = 0;
nodes = (
"109 725 LINE",
"109 54 LINE",
"142 32 OFFCURVE",
"193 19 OFFCURVE",
"244 19 CURVE SMOOTH",
"351 19 OFFCURVE",
"424 115 OFFCURVE",
"424 275 CURVE SMOOTH",
"424 396 OFFCURVE",
"362 487 OFFCURVE",
"271 487 CURVE SMOOTH",
"197 487 OFFCURVE",
"136 439 OFFCURVE",
"110 318 CURVE"
);
}
);
};
layerId = "CC11FE7D-5FF0-4B40-9597-DFC61EB94F41";
name = "Light Condensed";
paths = (
{
closed = 1;
nodes = (
"365 -7 OFFCURVE",
"445 111 OFFCURVE",
"445 273 CURVE SMOOTH",
"445 422 OFFCURVE",
"368 507 OFFCURVE",
"272 507 CURVE SMOOTH",
"200 507 OFFCURVE",
"138 464 OFFCURVE",
"104 372 CURVE",
"128 373 LINE",
"128 725 LINE",
"90 725 LINE",
"90 34 LINE",
"125 13 OFFCURVE",
"185 -7 OFFCURVE",
"244 -7 CURVE SMOOTH"
);
},
{
closed = 1;
nodes = (
"207 26 OFFCURVE",
"162 37 OFFCURVE",
"128 55 CURVE",
"128 294 LINE SMOOTH",
"128 411 OFFCURVE",
"197 474 OFFCURVE",
"266 474 CURVE SMOOTH",
"335 474 OFFCURVE",
"405 410 OFFCURVE",
"405 273 CURVE SMOOTH",
"405 126 OFFCURVE",
"343 26 OFFCURVE",
"238 26 CURVE SMOOTH"
);
}
);
width = 488;
},
{
background = {
paths = (
{
closed = 0;
nodes = (
"122 725 LINE",
"122 54 LINE",
"155 32 OFFCURVE",
"206 19 OFFCURVE",
"257 19 CURVE SMOOTH",
"364 19 OFFCURVE",
"437 115 OFFCURVE",
"437 275 CURVE SMOOTH",
"437 396 OFFCURVE",
"375 487 OFFCURVE",
"284 487 CURVE SMOOTH",
"210 487 OFFCURVE",
"149 439 OFFCURVE",
"123 318 CURVE"
);
},
{
closed = 1;
nodes = (
"141 294 LINE SMOOTH",
"141 403 OFFCURVE",
"207 474 OFFCURVE",
"274 474 CURVE SMOOTH",
"355 474 OFFCURVE",
"418 404 OFFCURVE",
"418 273 CURVE SMOOTH",
"418 129 OFFCURVE",
"355 26 OFFCURVE",
"257 26 CURVE SMOOTH",
"213 26 OFFCURVE",
"171 35 OFFCURVE",
"141 53 CURVE"
);
},
{
closed = 1;
nodes = (
"141 700 LINE",
"103 700 LINE",
"103 37 LINE",
"137 10 OFFCURVE",
"198 -7 OFFCURVE",
"257 -7 CURVE SMOOTH",
"378 -7 OFFCURVE",
"458 111 OFFCURVE",
"458 273 CURVE SMOOTH",
"458 422 OFFCURVE",
"381 507 OFFCURVE",
"285 507 CURVE SMOOTH",
"213 507 OFFCURVE",
"151 464 OFFCURVE",
"117 372 CURVE",
"141 373 LINE"
);
}
);
};
layerId = "6114C541-D024-4A3E-9713-6FAF49EAB318";
name = "Bold Condensed";
paths = (
{
closed = 1;
nodes = (
"386 -15 OFFCURVE",
"478 91 OFFCURVE",
"478 276 CURVE SMOOTH",
"478 425 OFFCURVE",
"404 515 OFFCURVE",
"300 515 CURVE SMOOTH",
"228 515 OFFCURVE",
"166 470 OFFCURVE",
"139 370 CURVE",
"184 370 LINE",
"181 725 LINE",
"61 725 LINE",
"60 30 LINE",
"122 -3 OFFCURVE",
"182 -15 OFFCURVE",
"247 -15 CURVE SMOOTH"
);
},
{
closed = 1;
nodes = (
"227 85 OFFCURVE",
"205 89 OFFCURVE",
"180 99 CURVE",
"181 289 LINE SMOOTH",
"181 371 OFFCURVE",
"215 415 OFFCURVE",
"267 415 CURVE SMOOTH",
"320 415 OFFCURVE",
"355 367 OFFCURVE",
"355 274 CURVE SMOOTH",
"355 160 OFFCURVE",
"324 85 OFFCURVE",
"246 85 CURVE SMOOTH"
);
}
);
width = 511;
}
);
unicode = 0062;
},
{
glyphname = c;
lastChange = "2015-09-03 10:46:53 +0000";
layers = (
{
layerId = "CC11FE7D-5FF0-4B40-9597-DFC61EB94F41";
name = "Light Condensed";
paths = (
{
closed = 1;
nodes = (
"274 -7 OFFCURVE",
"312 5 OFFCURVE",
"363 29 CURVE",
"351 60 LINE",
"307 39 OFFCURVE",
"277 27 OFFCURVE",
"237 27 CURVE SMOOTH",
"133 27 OFFCURVE",
"85 105 OFFCURVE",
"85 249 CURVE SMOOTH",
"85 382 OFFCURVE",
"137 474 OFFCURVE",
"232 474 CURVE SMOOTH",
"286 474 OFFCURVE",
"320 447 OFFCURVE",
"340 408 CURVE",
"372 429 LINE",
"345 478 OFFCURVE",
"300 507 OFFCURVE",
"232 507 CURVE SMOOTH",
"115 507 OFFCURVE",
"45 400 OFFCURVE",
"45 250 CURVE SMOOTH",
"45 85 OFFCURVE",
"106 -7 OFFCURVE",
"230 -7 CURVE SMOOTH"
);
}
);
width = 392;
},
{
background = {
paths = (
{
closed = 1;
nodes = (
"313 -15 OFFCURVE",
"363 2 OFFCURVE",
"420 42 CURVE",
"386 123 LINE",
"340 98 OFFCURVE",
"307 85 OFFCURVE",
"269 85 CURVE SMOOTH",
"189 85 OFFCURVE",
"156 139 OFFCURVE",
"156 251 CURVE SMOOTH",
"156 366 OFFCURVE",
"195 420 OFFCURVE",
"252 420 CURVE SMOOTH",
"283 420 OFFCURVE",
"306 406 OFFCURVE",
"319 378 CURVE",
"425 416 LINE",
"395 480 OFFCURVE",
"342 515 OFFCURVE",
"259 515 CURVE SMOOTH",
"141 515 OFFCURVE",
"33 435 OFFCURVE",
"33 256 CURVE SMOOTH",
"33 77 OFFCURVE",
"123 -15 OFFCURVE",
"258 -15 CURVE SMOOTH"
);
}
);
};
layerId = "6114C541-D024-4A3E-9713-6FAF49EAB318";
name = "Bold Condensed";
paths = (
{
closed = 1;
nodes = (
"313 -15 OFFCURVE",
"363 2 OFFCURVE",
"420 42 CURVE",
"386 123 LINE",
"340 98 OFFCURVE",
"307 85 OFFCURVE",
"269 85 CURVE SMOOTH",
"189 85 OFFCURVE",
"156 139 OFFCURVE",
"156 251 CURVE SMOOTH",
"156 363 OFFCURVE",
"192 419 OFFCURVE",
"251 419 CURVE SMOOTH",
"290 419 OFFCURVE",
"317 395 OFFCURVE",
"339 345 CURVE",
"434 386 LINE",
"399 478 OFFCURVE",
"338 519 OFFCURVE",
"258 519 CURVE SMOOTH",
"138 519 OFFCURVE",
"33 418 OFFCURVE",
"33 256 CURVE SMOOTH",
"33 77 OFFCURVE",
"123 -15 OFFCURVE",
"258 -15 CURVE SMOOTH"
);
}
);
width = 441;
}
);
unicode = 0063;
},
{
glyphname = d;
lastChange = "2015-09-03 15:02:52 +0000";
layers = (
{
layerId = "CC11FE7D-5FF0-4B40-9597-DFC61EB94F41";
name = "Light Condensed";
paths = (
{
closed = 1;
nodes = (
"288 -7 OFFCURVE",
"350 36 OFFCURVE",
"384 128 CURVE",
"362 127 LINE",
"363 0 LINE",
"398 0 LINE",
"398 725 LINE",
"360 725 LINE",
"360 206 LINE SMOOTH",
"360 89 OFFCURVE",
"291 26 OFFCURVE",
"222 26 CURVE SMOOTH",
"153 26 OFFCURVE",
"83 90 OFFCURVE",
"83 227 CURVE SMOOTH",
"83 374 OFFCURVE",
"145 474 OFFCURVE",
"250 474 CURVE SMOOTH",
"281 474 OFFCURVE",
"326 463 OFFCURVE",
"360 445 CURVE",
"390 466 LINE",
"355 487 OFFCURVE",
"303 507 OFFCURVE",
"244 507 CURVE SMOOTH",
"123 507 OFFCURVE",
"43 389 OFFCURVE",
"43 227 CURVE SMOOTH",
"43 78 OFFCURVE",
"120 -7 OFFCURVE",
"216 -7 CURVE SMOOTH"
);
}
);
width = 488;
},
{
layerId = "6114C541-D024-4A3E-9713-6FAF49EAB318";
name = "Bold Condensed";
paths = (
{
closed = 1;
nodes = (
"283 -15 OFFCURVE",
"345 30 OFFCURVE",
"372 130 CURVE",
"332 130 LINE",
"340 0 LINE",
"450 0 LINE",
"451 725 LINE",
"331 725 LINE",
"330 211 LINE SMOOTH",
"330 129 OFFCURVE",
"296 85 OFFCURVE",
"244 85 CURVE SMOOTH",
"191 85 OFFCURVE",
"156 133 OFFCURVE",
"156 226 CURVE SMOOTH",
"156 340 OFFCURVE",
"187 415 OFFCURVE",
"265 415 CURVE SMOOTH",
"284 415 OFFCURVE",
"306 411 OFFCURVE",
"331 401 CURVE",
"411 470 LINE",
"349 503 OFFCURVE",
"309 515 OFFCURVE",
"264 515 CURVE SMOOTH",
"125 515 OFFCURVE",
"33 409 OFFCURVE",
"33 224 CURVE SMOOTH",
"33 75 OFFCURVE",
"107 -15 OFFCURVE",
"211 -15 CURVE SMOOTH"
);
}
);
width = 511;
}
);
unicode = 0064;
},
{
glyphname = e;
lastChange = "2015-09-02 20:50:58 +0000";
layers = (
{
background = {
paths = (
{
closed = 1;
nodes = (
"394 121 OFFCURVE",
"341 26 OFFCURVE",
"240 26 CURVE SMOOTH",
"135 26 OFFCURVE",
"85 119 OFFCURVE",
"85 249 CURVE SMOOTH",
"85 377 OFFCURVE",
"141 474 OFFCURVE",
"240 474 CURVE SMOOTH",
"341 474 OFFCURVE",
"394 379 OFFCURVE",
"394 249 CURVE SMOOTH"
);
},
{
closed = 1;
nodes = (
"434 397 OFFCURVE",
"365 507 OFFCURVE",
"240 507 CURVE SMOOTH",
"118 507 OFFCURVE",
"45 396 OFFCURVE",
"45 249 CURVE SMOOTH",
"45 100 OFFCURVE",
"112 -7 OFFCURVE",
"240 -7 CURVE SMOOTH",
"364 -7 OFFCURVE",
"434 102 OFFCURVE",
"434 249 CURVE SMOOTH"
);
}
);
};
layerId = "CC11FE7D-5FF0-4B40-9597-DFC61EB94F41";
name = "Light Condensed";
paths = (
{
closed = 1;
nodes = (
"295 -7 OFFCURVE",
"343 5 OFFCURVE",
"394 29 CURVE",
"382 60 LINE",
"338 39 OFFCURVE",
"298 27 OFFCURVE",
"258 27 CURVE SMOOTH",
"154 27 OFFCURVE",
"86 105 OFFCURVE",
"86 249 CURVE SMOOTH",
"86 382 OFFCURVE",
"138 474 OFFCURVE",
"233 474 CURVE SMOOTH",
"337 474 OFFCURVE",
"367 372 OFFCURVE",
"366 285 CURVE",
"69 284 LINE",
"69 251 LINE",
"405 251 LINE",
"405 271 LINE SMOOTH",
"405 408 OFFCURVE",
"358 507 OFFCURVE",
"233 507 CURVE SMOOTH",
"116 507 OFFCURVE",
"46 400 OFFCURVE",
"46 250 CURVE SMOOTH",
"46 85 OFFCURVE",
"127 -7 OFFCURVE",
"251 -7 CURVE SMOOTH"
);
}
);
width = 442;
},
{
background = {
paths = (
{
closed = 1;
nodes = (
"347 147 OFFCURVE",
"317 85 OFFCURVE",
"247 85 CURVE SMOOTH",
"180 85 OFFCURVE",
"150 151 OFFCURVE",
"150 250 CURVE SMOOTH",
"150 346 OFFCURVE",
"179 415 OFFCURVE",
"250 415 CURVE SMOOTH",
"318 415 OFFCURVE",
"347 347 OFFCURVE",
"347 248 CURVE SMOOTH"
);
},
{
closed = 1;
nodes = (
"469 412 OFFCURVE",
"394 515 OFFCURVE",
"252 515 CURVE SMOOTH",
"110 515 OFFCURVE",
"27 411 OFFCURVE",
"27 248 CURVE SMOOTH",
"27 89 OFFCURVE",
"103 -16 OFFCURVE",
"245 -15 CURVE SMOOTH",
"387 -14 OFFCURVE",
"469 84 OFFCURVE",
"469 250 CURVE SMOOTH"
);
},
{
closed = 1;
nodes = (
"318 -15 OFFCURVE",
"378 8 OFFCURVE",
"439 47 CURVE",
"398 123 LINE",
"353 98 OFFCURVE",
"309 85 OFFCURVE",
"267 85 CURVE SMOOTH",
"198 85 OFFCURVE",
"149 140 OFFCURVE",
"149 251 CURVE SMOOTH",
"149 366 OFFCURVE",
"189 420 OFFCURVE",
"246 420 CURVE SMOOTH",
"297 420 OFFCURVE",
"326 381 OFFCURVE",
"326 306 CURVE",
"97 303 LINE",
"95 214 LINE",
"448 214 LINE",
"448 248 LINE SMOOTH",
"448 417 OFFCURVE",
"385 515 OFFCURVE",
"251 515 CURVE SMOOTH",
"136 515 OFFCURVE",
"27 435 OFFCURVE",
"27 256 CURVE SMOOTH",
"27 78 OFFCURVE",
"132 -15 OFFCURVE",
"260 -15 CURVE SMOOTH"
);
}
);
};
layerId = "6114C541-D024-4A3E-9713-6FAF49EAB318";
name = "Bold Condensed";
paths = (
{
closed = 1;
nodes = (
"322 -15 OFFCURVE",
"382 2 OFFCURVE",
"439 42 CURVE",
"405 123 LINE",
"359 98 OFFCURVE",
"316 85 OFFCURVE",
"278 85 CURVE SMOOTH",
"198 85 OFFCURVE",
"150 139 OFFCURVE",
"150 251 CURVE SMOOTH",
"150 366 OFFCURVE",
"189 420 OFFCURVE",
"246 420 CURVE SMOOTH",
"297 420 OFFCURVE",
"326 382 OFFCURVE",
"326 307 CURVE",
"97 305 LINE",
"95 216 LINE",
"447 216 LINE",
"447 250 LINE SMOOTH",
"447 419 OFFCURVE",
"391 515 OFFCURVE",
"253 515 CURVE SMOOTH",
"135 515 OFFCURVE",
"27 435 OFFCURVE",
"27 256 CURVE SMOOTH",
"27 77 OFFCURVE",
"132 -15 OFFCURVE",
"267 -15 CURVE SMOOTH"
);
}
);
width = 469;
},
{
associatedMasterId = "CC11FE7D-5FF0-4B40-9597-DFC61EB94F41";
background = {
paths = (
{
closed = 0;
nodes = (
"73 844 LINE",
"384 855 LINE",
"384 855 OFFCURVE",
"402 1068 OFFCURVE",
"234 1068 CURVE SMOOTH",
"141 1068 OFFCURVE",
"65 974 OFFCURVE",
"65 841 CURVE SMOOTH",
"65 686 OFFCURVE",
"151 607 OFFCURVE",
"254 607 CURVE SMOOTH",
"317 607 OFFCURVE",
"387 638 OFFCURVE",
"387 638 CURVE"
);
},
{
closed = 1;
nodes = (
"394 121 OFFCURVE",
"341 26 OFFCURVE",
"240 26 CURVE SMOOTH",
"135 26 OFFCURVE",
"85 119 OFFCURVE",
"85 249 CURVE SMOOTH",
"85 377 OFFCURVE",
"141 474 OFFCURVE",
"240 474 CURVE SMOOTH",
"341 474 OFFCURVE",
"394 379 OFFCURVE",
"394 249 CURVE SMOOTH"
);
},
{
closed = 1;
nodes = (
"434 397 OFFCURVE",
"365 507 OFFCURVE",
"240 507 CURVE SMOOTH",
"118 507 OFFCURVE",
"45 396 OFFCURVE",
"45 249 CURVE SMOOTH",
"45 100 OFFCURVE",
"112 -7 OFFCURVE",
"240 -7 CURVE SMOOTH",
"364 -7 OFFCURVE",
"434 102 OFFCURVE",
"434 249 CURVE SMOOTH"
);
}
);
};
layerId = "476F1763-E42A-4165-891D-A0F8405A1DD5";
name = "Light Condensed Sep 2 15, 22:27";
paths = (
{
closed = 1;
nodes = (
"405 264 LINE",
"405 408 OFFCURVE",
"358 507 OFFCURVE",
"233 507 CURVE SMOOTH",
"116 507 OFFCURVE",
"46 400 OFFCURVE",
"46 250 CURVE SMOOTH",
"46 74 OFFCURVE",
"134 -10 OFFCURVE",
"251 -10 CURVE SMOOTH",
"296 -10 OFFCURVE",
"342 2 OFFCURVE",
"391 27 CURVE",
"377 58 LINE",
"335 36 OFFCURVE",
"294 26 OFFCURVE",
"255 26 CURVE SMOOTH",
"158 26 OFFCURVE",
"86 92 OFFCURVE",
"86 249 CURVE SMOOTH",
"86 382 OFFCURVE",
"138 474 OFFCURVE",
"233 474 CURVE SMOOTH",
"357 474 OFFCURVE",
"367 329 OFFCURVE",
"366 282 CURVE",
"69 284 LINE",
"69 252 LINE",
"387 250 LINE"
);
}
);
width = 442;
}
);
unicode = 0065;
},
{
glyphname = f;
lastChange = "2015-09-03 11:11:14 +0000";
layers = (
{
layerId = "CC11FE7D-5FF0-4B40-9597-DFC61EB94F41";
name = "Light Condensed";
paths = (
{
closed = 1;
nodes = (
"308 609 LINE",
"279 631 OFFCURVE",
"248 642 OFFCURVE",
"220 642 CURVE SMOOTH",
"160 642 OFFCURVE",
"111 600 OFFCURVE",
"111 508 CURVE SMOOTH",
"111 0 LINE",
"149 0 LINE",
"149 496 LINE SMOOTH",
"149 573 OFFCURVE",
"181 609 OFFCURVE",
"226 609 CURVE SMOOTH",
"245 609 OFFCURVE",
"269 601 OFFCURVE",
"292 586 CURVE"
);
},
{
closed = 1;
nodes = (
"293 396 LINE",
"35 396 LINE",
"35 363 LINE",
"293 363 LINE"
);
}
);
width = 318;
},
{
layerId = "6114C541-D024-4A3E-9713-6FAF49EAB318";
name = "Bold Condensed";
paths = (
{
closed = 1;
nodes = (
"349 605 LINE",
"323 626 OFFCURVE",
"283 650 OFFCURVE",
"224 650 CURVE SMOOTH",
"155 650 OFFCURVE",
"90 611 OFFCURVE",
"90 484 CURVE SMOOTH",
"90 0 LINE",
"210 0 LINE",
"210 478 LINE SMOOTH",
"210 525 OFFCURVE",
"228 549 OFFCURVE",
"262 549 CURVE SMOOTH",
"276 549 OFFCURVE",
"294 544 OFFCURVE",
"314 532 CURVE"
);
},
{
closed = 1;
nodes = (
"313 425 LINE",
"32 425 LINE",
"32 335 LINE",
"313 335 LINE"
);
}
);
width = 349;
}
);
unicode = 0066;
},
{
glyphname = g;
lastChange = "2015-09-03 11:05:35 +0000";
layers = (
{
background = {
paths = (
{
closed = 1;
nodes = (
"362 243 OFFCURVE",
"311 179 OFFCURVE",
"228 179 CURVE SMOOTH",
"149 179 OFFCURVE",
"90 243 OFFCURVE",
"90 332 CURVE SMOOTH",
"90 421 OFFCURVE",
"136 493 OFFCURVE",
"226 493 CURVE SMOOTH",
"316 493 OFFCURVE",
"362 421 OFFCURVE",
"362 332 CURVE SMOOTH"
);
},
{
closed = 0;
nodes = (
"226 493 LINE",
"426 493 LINE"
);
},
{
closed = 0;
nodes = (
"165 197 LINE",
"123 175 OFFCURVE",
"102 140 OFFCURVE",
"102 110 CURVE SMOOTH",
"102 78 OFFCURVE",
"125 52 OFFCURVE",
"169 52 CURVE SMOOTH",
"267 54 LINE SMOOTH",
"358 54 OFFCURVE",
"404 -3 OFFCURVE",
"404 -64 CURVE SMOOTH",
"404 -135 OFFCURVE",
"343 -212 OFFCURVE",
"218 -212 CURVE SMOOTH",
"117 -212 OFFCURVE",
"64 -158 OFFCURVE",
"64 -95 CURVE SMOOTH",
"64 -46 OFFCURVE",
"97 8 OFFCURVE",
"166 45 CURVE"
);
}
);
};
layerId = "CC11FE7D-5FF0-4B40-9597-DFC61EB94F41";
name = "Light Condensed";
paths = (
{
closed = 1;
nodes = (
"345 241 OFFCURVE",
"285 195 OFFCURVE",
"227 195 CURVE SMOOTH",
"168 195 OFFCURVE",
"107 242 OFFCURVE",
"107 332 CURVE SMOOTH",
"107 428 OFFCURVE",
"168 475 OFFCURVE",
"226 475 CURVE SMOOTH",
"285 475 OFFCURVE",
"345 428 OFFCURVE",
"345 332 CURVE SMOOTH"
);
},
{
closed = 1;
nodes = (
"381 449 OFFCURVE",
"305 507 OFFCURVE",
"227 507 CURVE SMOOTH",
"150 507 OFFCURVE",
"71 449 OFFCURVE",
"71 332 CURVE SMOOTH",
"71 220 OFFCURVE",
"148 163 OFFCURVE",
"226 163 CURVE SMOOTH",
"303 163 OFFCURVE",
"381 219 OFFCURVE",
"381 332 CURVE SMOOTH"
);
},
{
closed = 1;
nodes = (
"226 500 LINE",
"306 475 LINE",
"426 474 LINE",
"426 507 LINE"
);
},
{
closed = 1;
nodes = (
"87 22 OFFCURVE",
"45 -20 OFFCURVE",
"45 -79 CURVE SMOOTH",
"45 -159 OFFCURVE",
"114 -212 OFFCURVE",
"222 -212 CURVE SMOOTH",
"342 -212 OFFCURVE",
"423 -151 OFFCURVE",
"423 -57 CURVE SMOOTH",
"423 19 OFFCURVE",
"358 70 OFFCURVE",
"257 69 CURVE SMOOTH",
"169 68 LINE SMOOTH",
"136 68 OFFCURVE",
"117 91 OFFCURVE",
"117 115 CURVE SMOOTH",
"117 139 OFFCURVE",
"136 166 OFFCURVE",
"177 175 CURVE",
"164 194 LINE",
"108 181 OFFCURVE",
"82 144 OFFCURVE",
"82 109 CURVE SMOOTH",
"82 71 OFFCURVE",
"116 34 OFFCURVE",
"178 36 CURVE SMOOTH",
"257 38 LINE SMOOTH",
"338 40 OFFCURVE",
"385 1 OFFCURVE",
"385 -57 CURVE SMOOTH",
"385 -133 OFFCURVE",
"322 -179 OFFCURVE",
"222 -179 CURVE SMOOTH",
"140 -179 OFFCURVE",
"83 -140 OFFCURVE",
"83 -79 CURVE SMOOTH",
"83 -32 OFFCURVE",
"115 8 OFFCURVE",
"173 39 CURVE",
"157 60 LINE"
);
}
);
width = 466;
},
{
background = {
paths = (
{
closed = 1;
nodes = (
"380 241 OFFCURVE",
"320 195 OFFCURVE",
"262 195 CURVE SMOOTH",
"203 195 OFFCURVE",
"142 242 OFFCURVE",
"142 332 CURVE SMOOTH",
"142 428 OFFCURVE",
"203 475 OFFCURVE",
"261 475 CURVE SMOOTH",
"320 475 OFFCURVE",
"380 428 OFFCURVE",
"380 332 CURVE SMOOTH"
);
},
{
closed = 1;
nodes = (
"416 449 OFFCURVE",
"340 507 OFFCURVE",
"262 507 CURVE SMOOTH",
"185 507 OFFCURVE",
"106 449 OFFCURVE",
"106 332 CURVE SMOOTH",
"106 220 OFFCURVE",
"183 163 OFFCURVE",
"261 163 CURVE SMOOTH",
"338 163 OFFCURVE",
"416 219 OFFCURVE",
"416 332 CURVE SMOOTH"
);
},
{
closed = 1;
nodes = (
"261 500 LINE",
"341 475 LINE",
"461 474 LINE",
"461 507 LINE"
);
},
{
closed = 1;
nodes = (
"122 22 OFFCURVE",
"80 -30 OFFCURVE",
"80 -89 CURVE SMOOTH",
"80 -169 OFFCURVE",
"149 -229 OFFCURVE",
"257 -229 CURVE SMOOTH",
"377 -229 OFFCURVE",
"458 -161 OFFCURVE",
"458 -67 CURVE SMOOTH",
"458 14 OFFCURVE",
"393 70 OFFCURVE",
"292 69 CURVE SMOOTH",
"204 68 LINE SMOOTH",
"171 68 OFFCURVE",
"152 91 OFFCURVE",
"152 115 CURVE SMOOTH",
"152 139 OFFCURVE",
"171 166 OFFCURVE",
"212 175 CURVE",
"199 194 LINE",
"143 181 OFFCURVE",
"117 144 OFFCURVE",
"117 109 CURVE SMOOTH",
"117 71 OFFCURVE",
"151 34 OFFCURVE",
"213 36 CURVE SMOOTH",
"292 38 LINE SMOOTH",
"373 40 OFFCURVE",
"420 -4 OFFCURVE",
"420 -67 CURVE SMOOTH",
"420 -143 OFFCURVE",
"357 -196 OFFCURVE",
"257 -196 CURVE SMOOTH",
"175 -196 OFFCURVE",
"118 -150 OFFCURVE",
"118 -89 CURVE SMOOTH",
"118 -42 OFFCURVE",
"150 8 OFFCURVE",
"208 39 CURVE",
"192 60 LINE"
);
}
);
};
layerId = "6114C541-D024-4A3E-9713-6FAF49EAB318";
name = "Bold Condensed";
paths = (
{
closed = 1;
nodes = (
"315 255 OFFCURVE",
"288 228 OFFCURVE",
"242 228 CURVE SMOOTH",
"198 228 OFFCURVE",
"163 261 OFFCURVE",
"163 319 CURVE SMOOTH",
"163 382 OFFCURVE",
"190 414 OFFCURVE",
"238 414 CURVE SMOOTH",
"285 414 OFFCURVE",
"315 378 OFFCURVE",
"315 317 CURVE SMOOTH"
);
},
{
closed = 1;
nodes = (
"435 425 OFFCURVE",
"347 509 OFFCURVE",
"240 509 CURVE SMOOTH",
"123 509 OFFCURVE",
"43 432 OFFCURVE",
"43 317 CURVE SMOOTH",
"43 209 OFFCURVE",
"127 133 OFFCURVE",
"240 133 CURVE SMOOTH",
"353 133 OFFCURVE",
"435 208 OFFCURVE",
"435 319 CURVE SMOOTH"
);
},
{
closed = 1;
nodes = (
"240 498 LINE",
"238 422 LINE",
"490 414 LINE",
"490 508 LINE"
);
},
{
closed = 1;
nodes = (
"68 1 OFFCURVE",
"25 -53 OFFCURVE",
"25 -99 CURVE SMOOTH",
"25 -176 OFFCURVE",
"119 -215 OFFCURVE",
"221 -215 CURVE SMOOTH",
"344 -215 OFFCURVE",
"478 -158 OFFCURVE",
"478 -55 CURVE SMOOTH",
"478 39 OFFCURVE",
"409 82 OFFCURVE",
"299 80 CURVE SMOOTH",
"202 78 LINE SMOOTH",
"158 77 OFFCURVE",
"144 92 OFFCURVE",
"144 109 CURVE SMOOTH",
"144 124 OFFCURVE",
"156 141 OFFCURVE",
"168 146 CURVE",
"153 213 LINE",
"81 189 OFFCURVE",
"47 137 OFFCURVE",
"47 88 CURVE SMOOTH",
"47 32 OFFCURVE",
"93 -22 OFFCURVE",
"181 -20 CURVE SMOOTH",
"281 -18 LINE SMOOTH",
"328 -17 OFFCURVE",
"357 -28 OFFCURVE",
"357 -57 CURVE SMOOTH",
"357 -96 OFFCURVE",
"307 -119 OFFCURVE",
"239 -119 CURVE SMOOTH",
"176 -119 OFFCURVE",
"135 -101 OFFCURVE",
"135 -65 CURVE SMOOTH",
"135 -47 OFFCURVE",
"153 -23 OFFCURVE",
"194 -3 CURVE",
"157 36 LINE"
);
}
);
width = 510;
}
);
unicode = 0067;
},
{
glyphname = h;
lastChange = "2015-09-03 10:48:11 +0000";
layers = (
{
layerId = "CC11FE7D-5FF0-4B40-9597-DFC61EB94F41";
name = "Light Condensed";
paths = (
{
closed = 1;
nodes = (
"467 26 LINE",
"427 26 OFFCURVE",
"418 39 OFFCURVE",
"418 89 CURVE SMOOTH",
"418 344 LINE SMOOTH",
"418 448 OFFCURVE",
"365 507 OFFCURVE",
"270 507 CURVE SMOOTH",
"199 507 OFFCURVE",
"136 463 OFFCURVE",
"111 372 CURVE",
"128 372 LINE",
"128 725 LINE",
"90 725 LINE",
"90 0 LINE",
"128 0 LINE",
"128 294 LINE SMOOTH",
"128 413 OFFCURVE",
"196 477 OFFCURVE",
"268 477 CURVE SMOOTH",
"336 477 OFFCURVE",
"380 430 OFFCURVE",
"380 341 CURVE SMOOTH",
"380 89 LINE SMOOTH",
"380 19 OFFCURVE",
"397 -7 OFFCURVE",
"467 -7 CURVE"
);
}
);
width = 507;
},
{
layerId = "6114C541-D024-4A3E-9713-6FAF49EAB318";
name = "Bold Condensed";
paths = (
{
closed = 1;
nodes = (
"502 75 LINE",
"477 75 OFFCURVE",
"466 84 OFFCURVE",
"466 109 CURVE SMOOTH",
"466 339 LINE SMOOTH",
"466 451 OFFCURVE",
"410 515 OFFCURVE",
"313 515 CURVE SMOOTH",
"248 515 OFFCURVE",
"168 463 OFFCURVE",
"141 350 CURVE",
"180 350 LINE",
"180 725 LINE",
"60 725 LINE",
"60 0 LINE",
"180 0 LINE",
"180 260 LINE SMOOTH",
"180 361 OFFCURVE",
"220 420 OFFCURVE",
"276 420 CURVE SMOOTH",
"323 420 OFFCURVE",
"346 381 OFFCURVE",
"346 329 CURVE SMOOTH",
"346 117 LINE SMOOTH",
"346 7 OFFCURVE",
"397 -15 OFFCURVE",
"502 -15 CURVE"
);
}
);
width = 527;
}
);
unicode = 0068;
},
{
glyphname = i;
lastChange = "2015-09-03 09:47:19 +0000";
layers = (
{
background = {
paths = (
{
closed = 0;
nodes = (
"100 497 LINE",
"100 0 LINE"
);
},
{
closed = 0;
nodes = (
"97 657 LINE",
"97 626 LINE"
);
}
);
};
layerId = "CC11FE7D-5FF0-4B40-9597-DFC61EB94F41";
name = "Light Condensed";
paths = (
{
closed = 1;
nodes = (
"119 0 LINE",
"119 500 LINE",
"81 500 LINE",
"81 0 LINE"
);
},
{
closed = 1;
nodes = (
"119 599 OFFCURVE",
"130 615 OFFCURVE",
"130 634 CURVE SMOOTH",
"130 652 OFFCURVE",
"119 668 OFFCURVE",
"100 668 CURVE SMOOTH",
"81 668 OFFCURVE",
"70 652 OFFCURVE",
"70 634 CURVE SMOOTH",
"70 615 OFFCURVE",
"81 599 OFFCURVE",
"100 599 CURVE SMOOTH"
);
}
);
width = 200;
},
{
background = {
paths = (
{
closed = 1;
nodes = (
"100 500 LINE",
"62 500 LINE",
"62 0 LINE",
"100 0 LINE"
);
},
{
closed = 1;
nodes = (
"97 599 OFFCURVE",
"108 615 OFFCURVE",
"108 634 CURVE SMOOTH",
"108 652 OFFCURVE",
"97 668 OFFCURVE",
"78 668 CURVE SMOOTH",
"59 668 OFFCURVE",
"48 652 OFFCURVE",
"48 634 CURVE SMOOTH",
"48 615 OFFCURVE",
"59 599 OFFCURVE",
"78 599 CURVE SMOOTH"
);
}
);
};
layerId = "6114C541-D024-4A3E-9713-6FAF49EAB318";
name = "Bold Condensed";
paths = (
{
closed = 1;
nodes = (
"182 0 LINE",
"182 500 LINE",
"62 500 LINE",
"62 0 LINE"
);
},
{
closed = 1;
nodes = (
"168 557 OFFCURVE",
"195 596 OFFCURVE",
"195 640 CURVE SMOOTH",
"195 683 OFFCURVE",
"168 720 OFFCURVE",
"122 720 CURVE SMOOTH",
"76 720 OFFCURVE",
"50 683 OFFCURVE",
"50 640 CURVE SMOOTH",
"50 596 OFFCURVE",
"76 557 OFFCURVE",
"122 557 CURVE SMOOTH"
);
}
);
width = 244;
}
);
unicode = 0069;
},
{
glyphname = j;
lastChange = "2015-09-03 11:04:17 +0000";
layers = (
{
layerId = "CC11FE7D-5FF0-4B40-9597-DFC61EB94F41";
name = "Light Condensed";
paths = (
{
closed = 1;
nodes = (
"119 599 OFFCURVE",
"130 615 OFFCURVE",
"130 634 CURVE SMOOTH",
"130 652 OFFCURVE",
"119 668 OFFCURVE",
"100 668 CURVE SMOOTH",
"81 668 OFFCURVE",
"70 652 OFFCURVE",
"70 634 CURVE SMOOTH",
"70 615 OFFCURVE",
"81 599 OFFCURVE",
"100 599 CURVE SMOOTH"
);
},
{
closed = 1;
nodes = (
"-78 -179 LINE",
"-49 -201 OFFCURVE",
"-18 -212 OFFCURVE",
"10 -212 CURVE SMOOTH",
"70 -212 OFFCURVE",
"119 -170 OFFCURVE",
"119 -78 CURVE SMOOTH",
"119 500 LINE",
"81 500 LINE",
"81 -66 LINE SMOOTH",
"81 -143 OFFCURVE",
"49 -179 OFFCURVE",
"4 -179 CURVE SMOOTH",
"-15 -179 OFFCURVE",
"-39 -171 OFFCURVE",
"-62 -156 CURVE"
);
}
);
width = 200;
},
{
layerId = "6114C541-D024-4A3E-9713-6FAF49EAB318";
name = "Bold Condensed";
paths = (
{
closed = 1;
nodes = (
"168 557 OFFCURVE",
"195 596 OFFCURVE",
"195 640 CURVE SMOOTH",
"195 683 OFFCURVE",
"168 720 OFFCURVE",
"122 720 CURVE SMOOTH",
"76 720 OFFCURVE",
"50 683 OFFCURVE",
"50 640 CURVE SMOOTH",
"50 596 OFFCURVE",
"76 557 OFFCURVE",
"122 557 CURVE SMOOTH"
);
},
{
closed = 1;
nodes = (
"-77 -170 LINE",
"-51 -191 OFFCURVE",
"-11 -215 OFFCURVE",
"48 -215 CURVE SMOOTH",
"117 -215 OFFCURVE",
"182 -176 OFFCURVE",
"182 -49 CURVE SMOOTH",
"182 500 LINE",
"62 500 LINE",
"62 -43 LINE SMOOTH",
"62 -90 OFFCURVE",
"44 -114 OFFCURVE",
"10 -114 CURVE SMOOTH",
"-4 -114 OFFCURVE",
"-22 -109 OFFCURVE",
"-42 -97 CURVE"
);
}
);
width = 244;
}
);
unicode = 006A;
},
{
glyphname = l;
lastChange = "2015-09-03 09:49:16 +0000";
layers = (
{
background = {
paths = (
{
closed = 0;
nodes = (
"109 726 LINE",
"109 70 LINE SMOOTH",
"109 24 OFFCURVE",
"144 -4 OFFCURVE",
"195 16 CURVE"
);
}
);
};
layerId = "CC11FE7D-5FF0-4B40-9597-DFC61EB94F41";
name = "Light Condensed";
paths = (
{
closed = 1;
nodes = (
"170 -7 OFFCURVE",
"184 -5 OFFCURVE",
"199 0 CURVE",
"193 28 LINE",
"183 25 OFFCURVE",
"174 23 OFFCURVE",
"166 23 CURVE SMOOTH",
"144 23 OFFCURVE",
"128 35 OFFCURVE",
"128 68 CURVE SMOOTH",
"128 725 LINE",
"90 725 LINE",
"90 68 LINE SMOOTH",
"90 15 OFFCURVE",
"119 -7 OFFCURVE",
"157 -7 CURVE SMOOTH"
);
}
);
width = 239;
},
{
background = {
paths = (
{
closed = 0;
nodes = (
"148 726 LINE",
"148 70 LINE SMOOTH",
"148 24 OFFCURVE",
"183 -4 OFFCURVE",
"234 16 CURVE"
);
},
{
closed = 1;
nodes = (
"222 25 OFFCURVE",
"213 23 OFFCURVE",
"205 23 CURVE SMOOTH",
"183 23 OFFCURVE",
"167 35 OFFCURVE",
"167 68 CURVE SMOOTH",
"167 725 LINE",
"129 725 LINE",
"129 68 LINE SMOOTH",
"129 15 OFFCURVE",
"158 -7 OFFCURVE",
"196 -7 CURVE SMOOTH",
"209 -7 OFFCURVE",
"223 -5 OFFCURVE",
"238 0 CURVE",
"232 28 LINE"
);
}
);
};
layerId = "6114C541-D024-4A3E-9713-6FAF49EAB318";
name = "Bold Condensed";
paths = (
{
closed = 1;
nodes = (
"211 -15 OFFCURVE",
"239 -10 OFFCURVE",
"270 0 CURVE",
"252 86 LINE",
"242 83 OFFCURVE",
"233 82 OFFCURVE",
"226 82 CURVE SMOOTH",
"197 82 OFFCURVE",
"188 103 OFFCURVE",
"188 133 CURVE SMOOTH",
"188 725 LINE",
"68 725 LINE",
"68 115 LINE SMOOTH",
"68 30 OFFCURVE",
"112 -15 OFFCURVE",
"186 -15 CURVE SMOOTH"
);
}
);
width = 275;
}
);
unicode = 006C;
},
{
glyphname = m;
lastChange = "2015-09-03 09:59:53 +0000";
layers = (
{
background = {
paths = (
{
closed = 0;
nodes = (
"109 480 LINE",
"109 -16 LINE"
);
},
{
closed = 0;
nodes = (
"110 299 LINE",
"130 362 OFFCURVE",
"206 468 OFFCURVE",
"286 468 CURVE SMOOTH",
"372 468 OFFCURVE",
"403 399 OFFCURVE",
"403 309 CURVE SMOOTH",
"403 -12 LINE"
);
},
{
closed = 0;
nodes = (
"404 308 LINE",
"427 380 OFFCURVE",
"496 468 OFFCURVE",
"568 468 CURVE SMOOTH",
"653 468 OFFCURVE",
"684 399 OFFCURVE",
"684 309 CURVE SMOOTH",
"684 80 LINE SMOOTH",
"684 30 OFFCURVE",
"692 5 OFFCURVE",
"747 0 CURVE"
);
}
);
};
layerId = "CC11FE7D-5FF0-4B40-9597-DFC61EB94F41";
name = "Light Condensed";
paths = (
{
closed = 1;
nodes = (
"738 26 LINE",
"698 26 OFFCURVE",
"689 39 OFFCURVE",
"689 89 CURVE SMOOTH",
"689 344 LINE SMOOTH",
"689 448 OFFCURVE",
"638 507 OFFCURVE",
"546 507 CURVE SMOOTH",
"478 507 OFFCURVE",
"418 463 OFFCURVE",
"393 365 CURVE",
"407 365 LINE",
"398 450 OFFCURVE",
"348 507 OFFCURVE",
"266 507 CURVE SMOOTH",
"197 507 OFFCURVE",
"136 463 OFFCURVE",
"111 372 CURVE",
"128 372 LINE",
"126 500 LINE",
"90 500 LINE",
"90 0 LINE",
"128 0 LINE",
"128 294 LINE SMOOTH",
"128 413 OFFCURVE",
"194 477 OFFCURVE",
"264 477 CURVE SMOOTH",
"329 477 OFFCURVE",
"371 430 OFFCURVE",
"371 341 CURVE SMOOTH",
"371 0 LINE",
"409 0 LINE",
"409 294 LINE SMOOTH",
"409 413 OFFCURVE",
"474 477 OFFCURVE",
"544 477 CURVE SMOOTH",
"609 477 OFFCURVE",
"651 430 OFFCURVE",
"651 341 CURVE SMOOTH",
"651 89 LINE SMOOTH",
"651 19 OFFCURVE",
"668 -7 OFFCURVE",
"738 -7 CURVE"
);
}
);
width = 778;
},
{
background = {
paths = (
{
closed = 1;
nodes = (
"502 75 LINE",
"477 75 OFFCURVE",
"466 84 OFFCURVE",
"466 109 CURVE SMOOTH",
"466 339 LINE SMOOTH",
"466 451 OFFCURVE",
"410 515 OFFCURVE",
"313 515 CURVE SMOOTH",
"248 515 OFFCURVE",
"168 463 OFFCURVE",
"141 350 CURVE",
"180 350 LINE",
"175 505 LINE",
"60 505 LINE",
"60 0 LINE",
"180 0 LINE",
"180 260 LINE SMOOTH",
"180 361 OFFCURVE",
"220 420 OFFCURVE",
"276 420 CURVE SMOOTH",
"323 420 OFFCURVE",
"346 381 OFFCURVE",
"346 329 CURVE SMOOTH",
"346 117 LINE SMOOTH",
"346 7 OFFCURVE",
"397 -15 OFFCURVE",
"502 -15 CURVE"
);
}
);
};
layerId = "6114C541-D024-4A3E-9713-6FAF49EAB318";
name = "Bold Condensed";
paths = (
{
closed = 1;
nodes = (
"768 75 LINE",
"743 75 OFFCURVE",
"732 84 OFFCURVE",
"732 109 CURVE SMOOTH",
"732 339 LINE SMOOTH",
"732 451 OFFCURVE",
"681 515 OFFCURVE",
"589 515 CURVE SMOOTH",
"524 515 OFFCURVE",
"444 463 OFFCURVE",
"417 350 CURVE",
"456 350 LINE",
"452 454 OFFCURVE",
"401 515 OFFCURVE",
"313 515 CURVE SMOOTH",
"248 515 OFFCURVE",
"168 463 OFFCURVE",
"141 350 CURVE",
"180 350 LINE",
"175 505 LINE",
"60 505 LINE",
"60 0 LINE",
"180 0 LINE",
"180 260 LINE SMOOTH",
"180 361 OFFCURVE",
"220 420 OFFCURVE",
"276 420 CURVE SMOOTH",
"318 420 OFFCURVE",
"336 381 OFFCURVE",
"336 329 CURVE SMOOTH",
"336 0 LINE",
"456 0 LINE",
"456 260 LINE SMOOTH",
"456 361 OFFCURVE",
"496 420 OFFCURVE",
"552 420 CURVE SMOOTH",
"594 420 OFFCURVE",
"612 381 OFFCURVE",
"612 329 CURVE SMOOTH",
"612 117 LINE SMOOTH",
"612 7 OFFCURVE",
"663 -15 OFFCURVE",
"768 -15 CURVE"
);
}
);
width = 793;
},
{
associatedMasterId = "CC11FE7D-5FF0-4B40-9597-DFC61EB94F41";
background = {
paths = (
{
closed = 0;
nodes = (
"109 480 LINE",
"109 -16 LINE"
);
},
{
closed = 0;
nodes = (
"110 299 LINE",
"130 362 OFFCURVE",
"206 468 OFFCURVE",
"286 468 CURVE SMOOTH",
"372 468 OFFCURVE",
"403 399 OFFCURVE",
"403 309 CURVE SMOOTH",
"403 -12 LINE"
);
},
{
closed = 0;
nodes = (
"404 308 LINE",
"427 380 OFFCURVE",
"496 468 OFFCURVE",
"568 468 CURVE SMOOTH",
"653 468 OFFCURVE",
"684 399 OFFCURVE",
"684 309 CURVE SMOOTH",
"684 80 LINE SMOOTH",
"684 30 OFFCURVE",
"692 5 OFFCURVE",
"747 0 CURVE"
);
}
);
};
layerId = "5DD8FCBC-D7B2-4501-9C44-8E89FE26CC94";
name = "Light Condensed Sep 3 15, 11:53";
paths = (
{
closed = 1;
nodes = (
"128 480 LINE",
"90 480 LINE",
"90 0 LINE",
"128 0 LINE"
);
},
{
closed = 1;
nodes = (
"422 309 LINE SMOOTH",
"422 422 OFFCURVE",
"374 485 OFFCURVE",
"281 485 CURVE SMOOTH",
"175 485 OFFCURVE",
"120 369 OFFCURVE",
"100 304 CURVE",
"125 294 LINE",
"150 374 OFFCURVE",
"211 452 OFFCURVE",
"281 452 CURVE SMOOTH",
"350 452 OFFCURVE",
"384 404 OFFCURVE",
"384 309 CURVE SMOOTH",
"384 0 LINE",
"422 0 LINE"
);
},
{
closed = 1;
nodes = (
"711 29 OFFCURVE",
"703 40 OFFCURVE",
"703 89 CURVE SMOOTH",
"703 309 LINE SMOOTH",
"703 422 OFFCURVE",
"655 486 OFFCURVE",
"563 485 CURVE SMOOTH",
"476 484 OFFCURVE",
"424 407 OFFCURVE",
"394 313 CURVE",
"419 303 LINE",
"445 383 OFFCURVE",
"495 451 OFFCURVE",
"563 452 CURVE SMOOTH",
"632 453 OFFCURVE",
"665 404 OFFCURVE",
"665 309 CURVE SMOOTH",
"665 89 LINE SMOOTH",
"665 24 OFFCURVE",
"685 -2 OFFCURVE",
"745 -7 CURVE",
"749 25 LINE"
);
}
);
width = 794;
}
);
unicode = 006D;
},
{
glyphname = n;
lastChange = "2015-09-03 09:20:23 +0000";
layers = (
{
background = {
paths = (
{
closed = 0;
nodes = (
"109 487 LINE",
"109 -2 LINE"
);
},
{
closed = 0;
nodes = (
"108 327 LINE",
"145 465 OFFCURVE",
"204 488 OFFCURVE",
"282 488 CURVE SMOOTH",
"364 488 OFFCURVE",
"399 420 OFFCURVE",
"399 350 CURVE SMOOTH",
"399 90 LINE SMOOTH",
"399 31 OFFCURVE",
"413 10 OFFCURVE",
"469 10 CURVE"
);
},
{
closed = 0;
nodes = (
"415 374 LINE",
"415 466 OFFCURVE",
"361 508 OFFCURVE",
"284 508 CURVE SMOOTH"
);
},
{
closed = 0;
nodes = (
"283 474 LINE",
"340 474 OFFCURVE",
"377 440 OFFCURVE",
"377 371 CURVE SMOOTH"
);
},
{
closed = 1;
nodes = (
"190 507 OFFCURVE",
"133 458 OFFCURVE",
"111 372 CURVE",
"128 372 LINE",
"128 500 LINE",
"90 500 LINE",
"90 0 LINE",
"128 0 LINE",
"128 294 LINE SMOOTH",
"128 390 OFFCURVE",
"173 474 OFFCURVE",
"267 474 CURVE SMOOTH",
"336 474 OFFCURVE",
"380 433 OFFCURVE",
"380 341 CURVE SMOOTH",
"380 89 LINE SMOOTH",
"380 19 OFFCURVE",
"397 -7 OFFCURVE",
"467 -7 CURVE",
"467 26 LINE",
"427 26 OFFCURVE",
"418 39 OFFCURVE",
"418 89 CURVE SMOOTH",
"418 344 LINE SMOOTH",
"418 455 OFFCURVE",
"356 507 OFFCURVE",
"265 507 CURVE SMOOTH"
);
}
);
};
layerId = "CC11FE7D-5FF0-4B40-9597-DFC61EB94F41";
name = "Light Condensed";
paths = (
{
closed = 1;
nodes = (
"467 26 LINE",
"427 26 OFFCURVE",
"418 39 OFFCURVE",
"418 89 CURVE SMOOTH",
"418 344 LINE SMOOTH",
"418 448 OFFCURVE",
"365 507 OFFCURVE",
"270 507 CURVE SMOOTH",
"199 507 OFFCURVE",
"136 463 OFFCURVE",
"111 372 CURVE",
"128 372 LINE",
"126 500 LINE",
"90 500 LINE",
"90 0 LINE",
"128 0 LINE",
"128 294 LINE SMOOTH",
"128 413 OFFCURVE",
"196 477 OFFCURVE",
"268 477 CURVE SMOOTH",
"336 477 OFFCURVE",
"380 430 OFFCURVE",
"380 341 CURVE SMOOTH",
"380 89 LINE SMOOTH",
"380 19 OFFCURVE",
"397 -7 OFFCURVE",
"467 -7 CURVE"
);
}
);
width = 507;
},
{
background = {
paths = (
{
closed = 1;
nodes = (
"430 450 OFFCURVE",
"382 507 OFFCURVE",
"286 507 CURVE SMOOTH",
"220 507 OFFCURVE",
"146 465 OFFCURVE",
"123 372 CURVE",
"140 372 LINE",
"140 500 LINE",
"102 500 LINE",
"102 0 LINE",
"140 0 LINE",
"140 294 LINE SMOOTH",
"140 413 OFFCURVE",
"211 474 OFFCURVE",
"289 474 CURVE SMOOTH",
"363 474 OFFCURVE",
"392 421 OFFCURVE",
"392 331 CURVE SMOOTH",
"392 89 LINE SMOOTH",
"392 19 OFFCURVE",
"409 -7 OFFCURVE",
"479 -7 CURVE",
"479 26 LINE",
"439 26 OFFCURVE",
"430 39 OFFCURVE",
"430 89 CURVE SMOOTH",
"430 334 LINE SMOOTH"
);
},
{
closed = 1;
nodes = (
"471 451 OFFCURVE",
"425 515 OFFCURVE",
"313 515 CURVE SMOOTH",
"238 515 OFFCURVE",
"168 462 OFFCURVE",
"139 350 CURVE",
"180 350 LINE",
"180 505 LINE",
"60 505 LINE",
"60 0 LINE",
"180 0 LINE",
"180 272 LINE SMOOTH",
"180 368 OFFCURVE",
"210 420 OFFCURVE",
"276 420 CURVE SMOOTH",
"333 420 OFFCURVE",
"351 376 OFFCURVE",
"351 319 CURVE SMOOTH",
"351 117 LINE SMOOTH",
"351 2 OFFCURVE",
"397 -15 OFFCURVE",
"507 -15 CURVE",
"507 75 LINE",
"482 75 OFFCURVE",
"471 84 OFFCURVE",
"471 109 CURVE SMOOTH",
"471 329 LINE SMOOTH"
);
}
);
};
layerId = "6114C541-D024-4A3E-9713-6FAF49EAB318";
name = "Bold Condensed";
paths = (
{
closed = 1;
nodes = (
"502 75 LINE",
"477 75 OFFCURVE",
"466 84 OFFCURVE",
"466 109 CURVE SMOOTH",
"466 339 LINE SMOOTH",
"466 451 OFFCURVE",
"410 515 OFFCURVE",
"313 515 CURVE SMOOTH",
"248 515 OFFCURVE",
"168 463 OFFCURVE",
"141 350 CURVE",
"180 350 LINE",
"175 505 LINE",
"60 505 LINE",
"60 0 LINE",
"180 0 LINE",
"180 260 LINE SMOOTH",
"180 361 OFFCURVE",
"220 420 OFFCURVE",
"276 420 CURVE SMOOTH",
"323 420 OFFCURVE",
"346 381 OFFCURVE",
"346 329 CURVE SMOOTH",
"346 117 LINE SMOOTH",
"346 7 OFFCURVE",
"397 -15 OFFCURVE",
"502 -15 CURVE"
);
}
);
width = 527;
},
{
associatedMasterId = "CC11FE7D-5FF0-4B40-9597-DFC61EB94F41";
background = {
paths = (
{
closed = 0;
nodes = (
"109 487 LINE",
"109 -2 LINE"
);
},
{
closed = 0;
nodes = (
"108 327 LINE",
"145 465 OFFCURVE",
"204 488 OFFCURVE",
"282 488 CURVE SMOOTH",
"361 488 OFFCURVE",
"399 420 OFFCURVE",
"399 350 CURVE SMOOTH",
"399 100 LINE SMOOTH",
"399 49 OFFCURVE",
"404 25 OFFCURVE",
"460 20 CURVE"
);
},
{
closed = 0;
nodes = (
"415 374 LINE",
"415 466 OFFCURVE",
"361 508 OFFCURVE",
"284 508 CURVE SMOOTH"
);
},
{
closed = 0;
nodes = (
"283 474 LINE",
"340 474 OFFCURVE",
"377 440 OFFCURVE",
"377 371 CURVE SMOOTH"
);
},
{
closed = 1;
nodes = (
"190 507 OFFCURVE",
"133 458 OFFCURVE",
"111 372 CURVE",
"128 372 LINE",
"128 500 LINE",
"90 500 LINE",
"90 0 LINE",
"128 0 LINE",
"128 294 LINE SMOOTH",
"128 390 OFFCURVE",
"173 474 OFFCURVE",
"267 474 CURVE SMOOTH",
"336 474 OFFCURVE",
"380 433 OFFCURVE",
"380 341 CURVE SMOOTH",
"380 89 LINE SMOOTH",
"380 19 OFFCURVE",
"397 -7 OFFCURVE",
"467 -7 CURVE",
"467 26 LINE",
"427 26 OFFCURVE",
"418 39 OFFCURVE",
"418 89 CURVE SMOOTH",
"418 344 LINE SMOOTH",
"418 455 OFFCURVE",
"356 507 OFFCURVE",
"265 507 CURVE SMOOTH"
);
}
);
};
layerId = "4C875926-BB40-4456-A340-8CC6AC7CE139";
name = "Light Condensed Aug 31 15, 11:36";
paths = (
{
closed = 1;
nodes = (
"354 507 OFFCURVE",
"268 507 CURVE SMOOTH",
"202 507 OFFCURVE",
"134 465 OFFCURVE",
"111 372 CURVE",
"128 372 LINE",
"128 500 LINE",
"90 500 LINE",
"90 0 LINE",
"128 0 LINE",
"128 294 LINE SMOOTH",
"128 413 OFFCURVE",
"193 474 OFFCURVE",
"271 474 CURVE SMOOTH",
"338 474 OFFCURVE",
"380 431 OFFCURVE",
"380 346 CURVE SMOOTH",
"380 89 LINE SMOOTH",
"380 19 OFFCURVE",
"397 -7 OFFCURVE",
"467 -7 CURVE",
"467 26 LINE",
"427 26 OFFCURVE",
"418 39 OFFCURVE",
"418 89 CURVE SMOOTH",
"418 349 LINE SMOOTH",
"418 450 OFFCURVE"
);
}
);
width = 507;
},
{
associatedMasterId = "6114C541-D024-4A3E-9713-6FAF49EAB318";
background = {
paths = (
{
closed = 1;
nodes = (
"418 450 OFFCURVE",
"370 507 OFFCURVE",
"274 507 CURVE SMOOTH",
"208 507 OFFCURVE",
"134 465 OFFCURVE",
"111 372 CURVE",
"128 372 LINE",
"128 500 LINE",
"90 500 LINE",
"90 0 LINE",
"128 0 LINE",
"128 294 LINE SMOOTH",
"128 413 OFFCURVE",
"199 474 OFFCURVE",
"277 474 CURVE SMOOTH",
"351 474 OFFCURVE",
"380 421 OFFCURVE",
"380 331 CURVE SMOOTH",
"380 89 LINE SMOOTH",
"380 19 OFFCURVE",
"397 -7 OFFCURVE",
"467 -7 CURVE",
"467 26 LINE",
"427 26 OFFCURVE",
"418 39 OFFCURVE",
"418 89 CURVE SMOOTH",
"418 334 LINE SMOOTH"
);
},
{
closed = 1;
nodes = (
"459 451 OFFCURVE",
"413 515 OFFCURVE",
"301 515 CURVE SMOOTH",
"226 515 OFFCURVE",
"156 462 OFFCURVE",
"127 350 CURVE",
"168 350 LINE",
"168 505 LINE",
"48 505 LINE",
"48 0 LINE",
"168 0 LINE",
"168 272 LINE SMOOTH",
"168 368 OFFCURVE",
"198 420 OFFCURVE",
"264 420 CURVE SMOOTH",
"321 420 OFFCURVE",
"339 376 OFFCURVE",
"339 319 CURVE SMOOTH",
"339 117 LINE SMOOTH",
"339 2 OFFCURVE",
"385 -15 OFFCURVE",
"495 -15 CURVE",
"495 75 LINE",
"470 75 OFFCURVE",
"459 84 OFFCURVE",
"459 109 CURVE SMOOTH",
"459 329 LINE SMOOTH"
);
}
);
};
layerId = "CB2CC8D6-B944-4076-8649-BB14CA353136";
name = "Bold Condensed Sep 2 15, 15:19";
paths = (
{
closed = 1;
nodes = (
"459 451 OFFCURVE",
"413 515 OFFCURVE",
"301 515 CURVE SMOOTH",
"226 515 OFFCURVE",
"156 463 OFFCURVE",
"129 350 CURVE",
"168 350 LINE",
"168 505 LINE",
"48 505 LINE",
"48 0 LINE",
"168 0 LINE",
"168 260 LINE SMOOTH",
"168 361 OFFCURVE",
"198 420 OFFCURVE",
"264 420 CURVE SMOOTH",
"321 420 OFFCURVE",
"339 376 OFFCURVE",
"339 329 CURVE SMOOTH",
"339 117 LINE SMOOTH",
"339 2 OFFCURVE",
"385 -15 OFFCURVE",
"495 -15 CURVE",
"495 75 LINE",
"470 75 OFFCURVE",
"459 84 OFFCURVE",
"459 109 CURVE SMOOTH",
"459 339 LINE SMOOTH"
);
}
);
width = 515;
}
);
unicode = 006E;
},
{
glyphname = o;
lastChange = "2015-09-03 09:19:49 +0000";
layers = (
{
background = {
paths = (
{
closed = 1;
nodes = (
"394 122 OFFCURVE",
"330 27 OFFCURVE",
"239 27 CURVE SMOOTH",
"146 27 OFFCURVE",
"83 120 OFFCURVE",
"83 250 CURVE SMOOTH",
"83 381 OFFCURVE",
"150 474 OFFCURVE",
"239 474 CURVE SMOOTH",
"328 474 OFFCURVE",
"394 383 OFFCURVE",
"394 250 CURVE SMOOTH"
);
},
{
closed = 1;
nodes = (
"432 401 OFFCURVE",
"352 507 OFFCURVE",
"239 507 CURVE SMOOTH",
"127 507 OFFCURVE",
"45 400 OFFCURVE",
"45 250 CURVE SMOOTH",
"45 101 OFFCURVE",
"123 -7 OFFCURVE",
"239 -7 CURVE SMOOTH",
"353 -7 OFFCURVE",
"432 103 OFFCURVE",
"432 250 CURVE SMOOTH"
);
},
{
closed = 1;
nodes = (
"413 121 OFFCURVE",
"347 10 OFFCURVE",
"239 10 CURVE SMOOTH",
"131 10 OFFCURVE",
"64 115 OFFCURVE",
"64 250 CURVE SMOOTH",
"64 385 OFFCURVE",
"135 490 OFFCURVE",
"239 490 CURVE SMOOTH",
"345 490 OFFCURVE",
"413 385 OFFCURVE",
"413 250 CURVE SMOOTH"
);
}
);
};
layerId = "CC11FE7D-5FF0-4B40-9597-DFC61EB94F41";
name = "Light Condensed";
paths = (
{
closed = 1;
nodes = (
"393 121 OFFCURVE",
"339 26 OFFCURVE",
"238 26 CURVE SMOOTH",
"138 26 OFFCURVE",
"84 119 OFFCURVE",
"84 249 CURVE SMOOTH",
"84 377 OFFCURVE",
"142 474 OFFCURVE",
"241 474 CURVE SMOOTH",
"340 474 OFFCURVE",
"393 379 OFFCURVE",
"393 249 CURVE SMOOTH"
);
},
{
closed = 1;
nodes = (
"433 397 OFFCURVE",
"370 507 OFFCURVE",
"242 507 CURVE SMOOTH",
"120 507 OFFCURVE",
"44 396 OFFCURVE",
"44 249 CURVE SMOOTH",
"44 100 OFFCURVE",
"106 -7 OFFCURVE",
"237 -7 CURVE SMOOTH",
"361 -7 OFFCURVE",
"433 102 OFFCURVE",
"433 249 CURVE SMOOTH"
);
}
);
width = 477;
},
{
background = {
paths = (
{
closed = 1;
nodes = (
"165 57 OFFCURVE",
"123 134 OFFCURVE",
"123 252 CURVE SMOOTH",
"123 371 OFFCURVE",
"166 448 OFFCURVE",
"250 449 CURVE SMOOTH",
"334 450 OFFCURVE",
"377 371 OFFCURVE",
"377 252 CURVE SMOOTH",
"377 134 OFFCURVE",
"335 57 OFFCURVE",
"250 57 CURVE SMOOTH"
);
},
{
closed = 1;
nodes = (
"394 -23 OFFCURVE",
"487 87 OFFCURVE",
"487 252 CURVE SMOOTH",
"487 417 OFFCURVE",
"400 528 OFFCURVE",
"251 529 CURVE SMOOTH",
"103 530 OFFCURVE",
"13 417 OFFCURVE",
"13 252 CURVE SMOOTH",
"13 87 OFFCURVE",
"99 -23 OFFCURVE",
"246 -23 CURVE SMOOTH"
);
}
);
};
layerId = "6114C541-D024-4A3E-9713-6FAF49EAB318";
name = "Bold Condensed";
paths = (
{
closed = 1;
nodes = (
"350 147 OFFCURVE",
"320 85 OFFCURVE",
"250 85 CURVE SMOOTH",
"183 85 OFFCURVE",
"153 151 OFFCURVE",
"153 250 CURVE SMOOTH",
"153 346 OFFCURVE",
"182 415 OFFCURVE",
"253 415 CURVE SMOOTH",
"321 415 OFFCURVE",
"350 347 OFFCURVE",
"350 248 CURVE SMOOTH"
);
},
{
closed = 1;
nodes = (
"472 412 OFFCURVE",
"397 515 OFFCURVE",
"255 515 CURVE SMOOTH",
"113 515 OFFCURVE",
"30 411 OFFCURVE",
"30 248 CURVE SMOOTH",
"30 89 OFFCURVE",
"106 -16 OFFCURVE",
"248 -15 CURVE SMOOTH",
"390 -14 OFFCURVE",
"472 84 OFFCURVE",
"472 250 CURVE SMOOTH"
);
}
);
width = 502;
},
{
associatedMasterId = "CC11FE7D-5FF0-4B40-9597-DFC61EB94F41";
background = {
paths = (
{
closed = 1;
nodes = (
"510 443 OFFCURVE",
"408 505 OFFCURVE",
"296 505 CURVE SMOOTH",
"147 505 OFFCURVE",
"66 385 OFFCURVE",
"66 248 CURVE SMOOTH",
"66 75 OFFCURVE",
"149 -8 OFFCURVE",
"279 -8 CURVE SMOOTH",
"425 -8 OFFCURVE",
"510 112 OFFCURVE",
"510 256 CURVE SMOOTH"
);
},
{
closed = 1;
nodes = (
"455 100 OFFCURVE",
"375 36 OFFCURVE",
"290 36 CURVE SMOOTH",
"183 36 OFFCURVE",
"121 115 OFFCURVE",
"121 252 CURVE SMOOTH",
"121 397 OFFCURVE",
"203 462 OFFCURVE",
"289 462 CURVE SMOOTH",
"398 462 OFFCURVE",
"455 383 OFFCURVE",
"455 253 CURVE SMOOTH"
);
}
);
};
layerId = "5995AB5B-F92A-411C-AC26-1313A457B321";
name = "Light Condensed Aug 28 15, 18:11";
paths = (
{
closed = 1;
nodes = (
"422 -17 OFFCURVE",
"510 92 OFFCURVE",
"510 252 CURVE SMOOTH",
"510 413 OFFCURVE",
"422 522 OFFCURVE",
"290 522 CURVE SMOOTH",
"158 522 OFFCURVE",
"70 413 OFFCURVE",
"70 252 CURVE SMOOTH",
"70 92 OFFCURVE",
"158 -17 OFFCURVE",
"290 -17 CURVE SMOOTH"
);
},
{
closed = 1;
nodes = (
"181 17 OFFCURVE",
"108 110 OFFCURVE",
"108 252 CURVE SMOOTH",
"108 394 OFFCURVE",
"181 488 OFFCURVE",
"290 489 CURVE SMOOTH",
"399 488 OFFCURVE",
"472 394 OFFCURVE",
"472 252 CURVE SMOOTH",
"472 110 OFFCURVE",
"399 17 OFFCURVE",
"290 17 CURVE SMOOTH"
);
}
);
width = 580;
}
);
unicode = 006F;
},
{
glyphname = p;
lastChange = "2015-09-03 11:01:18 +0000";
layers = (
{
layerId = "CC11FE7D-5FF0-4B40-9597-DFC61EB94F41";
name = "Light Condensed";
paths = (
{
closed = 1;
nodes = (
"128 -205 LINE",
"128 294 LINE SMOOTH",
"128 411 OFFCURVE",
"197 474 OFFCURVE",
"266 474 CURVE SMOOTH",
"335 474 OFFCURVE",
"405 410 OFFCURVE",
"405 273 CURVE SMOOTH",
"405 126 OFFCURVE",
"343 26 OFFCURVE",
"238 26 CURVE SMOOTH",
"207 26 OFFCURVE",
"162 37 OFFCURVE",
"128 55 CURVE",
"90 34 LINE",
"125 13 OFFCURVE",
"185 -7 OFFCURVE",
"244 -7 CURVE SMOOTH",
"365 -7 OFFCURVE",
"445 111 OFFCURVE",
"445 273 CURVE SMOOTH",
"445 422 OFFCURVE",
"368 507 OFFCURVE",
"272 507 CURVE SMOOTH",
"200 507 OFFCURVE",
"138 464 OFFCURVE",
"104 372 CURVE",
"128 373 LINE",
"128 500 LINE",
"90 500 LINE",
"90 -205 LINE"
);
}
);
width = 488;
},
{
layerId = "6114C541-D024-4A3E-9713-6FAF49EAB318";
name = "Bold Condensed";
paths = (
{
closed = 1;
nodes = (
"180 -200 LINE",
"181 289 LINE SMOOTH",
"181 371 OFFCURVE",
"215 415 OFFCURVE",
"267 415 CURVE SMOOTH",
"320 415 OFFCURVE",
"355 367 OFFCURVE",
"355 274 CURVE SMOOTH",
"355 160 OFFCURVE",
"324 85 OFFCURVE",
"246 85 CURVE SMOOTH",
"227 85 OFFCURVE",
"205 89 OFFCURVE",
"180 99 CURVE",
"80 33 LINE",
"142 0 OFFCURVE",
"192 -15 OFFCURVE",
"247 -15 CURVE SMOOTH",
"386 -15 OFFCURVE",
"478 91 OFFCURVE",
"478 276 CURVE SMOOTH",
"478 425 OFFCURVE",
"404 515 OFFCURVE",
"300 515 CURVE SMOOTH",
"228 515 OFFCURVE",
"166 470 OFFCURVE",
"139 370 CURVE",
"179 370 LINE",
"171 500 LINE",
"61 500 LINE",
"60 -200 LINE"
);
}
);
width = 511;
}
);
unicode = 0070;
},
{
glyphname = q;
lastChange = "2015-09-03 11:01:23 +0000";
layers = (
{
layerId = "CC11FE7D-5FF0-4B40-9597-DFC61EB94F41";
name = "Light Condensed";
paths = (
{
closed = 1;
nodes = (
"123 507 OFFCURVE",
"43 389 OFFCURVE",
"43 227 CURVE SMOOTH",
"43 78 OFFCURVE",
"120 -7 OFFCURVE",
"216 -7 CURVE SMOOTH",
"288 -7 OFFCURVE",
"350 36 OFFCURVE",
"384 128 CURVE",
"360 127 LINE",
"360 -225 LINE",
"398 -225 LINE",
"398 466 LINE",
"363 487 OFFCURVE",
"303 507 OFFCURVE",
"244 507 CURVE SMOOTH"
);
},
{
closed = 1;
nodes = (
"281 474 OFFCURVE",
"326 463 OFFCURVE",
"360 445 CURVE",
"360 206 LINE SMOOTH",
"360 89 OFFCURVE",
"291 26 OFFCURVE",
"222 26 CURVE SMOOTH",
"153 26 OFFCURVE",
"83 90 OFFCURVE",
"83 227 CURVE SMOOTH",
"83 374 OFFCURVE",
"145 474 OFFCURVE",
"250 474 CURVE SMOOTH"
);
}
);
width = 488;
},
{
layerId = "6114C541-D024-4A3E-9713-6FAF49EAB318";
name = "Bold Condensed";
paths = (
{
closed = 1;
nodes = (
"125 515 OFFCURVE",
"33 409 OFFCURVE",
"33 224 CURVE SMOOTH",
"33 75 OFFCURVE",
"107 -15 OFFCURVE",
"211 -15 CURVE SMOOTH",
"283 -15 OFFCURVE",
"345 30 OFFCURVE",
"372 130 CURVE",
"327 130 LINE",
"330 -225 LINE",
"450 -225 LINE",
"451 470 LINE",
"389 500 OFFCURVE",
"329 515 OFFCURVE",
"264 515 CURVE SMOOTH"
);
},
{
closed = 1;
nodes = (
"284 415 OFFCURVE",
"306 411 OFFCURVE",
"331 401 CURVE",
"330 211 LINE SMOOTH",
"330 129 OFFCURVE",
"296 85 OFFCURVE",
"244 85 CURVE SMOOTH",
"191 85 OFFCURVE",
"156 133 OFFCURVE",
"156 226 CURVE SMOOTH",
"156 340 OFFCURVE",
"187 415 OFFCURVE",
"265 415 CURVE SMOOTH"
);
}
);
width = 511;
}
);
unicode = 0071;
},
{
glyphname = r;
lastChange = "2015-09-03 09:05:16 +0000";
layers = (
{
background = {
paths = (
{
closed = 0;
nodes = (
"109 486 LINE",
"109 0 LINE"
);
},
{
closed = 0;
nodes = (
"109 299 LINE",
"130 376 OFFCURVE",
"193 473 OFFCURVE",
"268 473 CURVE SMOOTH",
"310 473 OFFCURVE",
"330 448 OFFCURVE",
"335 441 CURVE"
);
},
{
closed = 1;
nodes = (
"128 390 OFFCURVE",
"173 474 OFFCURVE",
"257 474 CURVE SMOOTH",
"286 474 OFFCURVE",
"309 459 OFFCURVE",
"324 446 CURVE",
"343 471 LINE",
"315 496 OFFCURVE",
"284 507 OFFCURVE",
"255 507 CURVE SMOOTH",
"190 507 OFFCURVE",
"133 458 OFFCURVE",
"111 372 CURVE",
"128 372 LINE",
"128 500 LINE",
"90 500 LINE",
"90 0 LINE",
"128 0 LINE",
"128 294 LINE SMOOTH"
);
}
);
};
layerId = "CC11FE7D-5FF0-4B40-9597-DFC61EB94F41";
name = "Light Condensed";
paths = (
{
closed = 1;
nodes = (
"128 0 LINE",
"128 294 LINE SMOOTH",
"128 390 OFFCURVE",
"173 474 OFFCURVE",
"257 474 CURVE SMOOTH",
"269 474 OFFCURVE",
"281 472 OFFCURVE",
"291 468 CURVE",
"304 498 LINE",
"288 504 OFFCURVE",
"272 507 OFFCURVE",
"256 507 CURVE SMOOTH",
"192 507 OFFCURVE",
"133 457 OFFCURVE",
"111 372 CURVE",
"128 372 LINE",
"126 500 LINE",
"90 500 LINE",
"90 0 LINE"
);
}
);
width = 319;
},
{
background = {
paths = (
{
closed = 1;
nodes = (
"502 75 LINE",
"477 75 OFFCURVE",
"466 84 OFFCURVE",
"466 109 CURVE SMOOTH",
"466 339 LINE SMOOTH",
"466 451 OFFCURVE",
"410 515 OFFCURVE",
"313 515 CURVE SMOOTH",
"248 515 OFFCURVE",
"168 463 OFFCURVE",
"141 350 CURVE",
"180 350 LINE",
"175 505 LINE",
"60 505 LINE",
"60 0 LINE",
"180 0 LINE",
"180 260 LINE SMOOTH",
"180 361 OFFCURVE",
"220 420 OFFCURVE",
"276 420 CURVE SMOOTH",
"323 420 OFFCURVE",
"346 381 OFFCURVE",
"346 329 CURVE SMOOTH",
"346 117 LINE SMOOTH",
"346 7 OFFCURVE",
"397 -15 OFFCURVE",
"502 -15 CURVE"
);
}
);
};
layerId = "6114C541-D024-4A3E-9713-6FAF49EAB318";
name = "Bold Condensed";
paths = (
{
closed = 1;
nodes = (
"180 0 LINE",
"180 260 LINE SMOOTH",
"180 341 OFFCURVE",
"218 390 OFFCURVE",
"282 390 CURVE SMOOTH",
"294 390 OFFCURVE",
"307 389 OFFCURVE",
"321 385 CURVE",
"348 513 LINE",
"335 517 OFFCURVE",
"322 518 OFFCURVE",
"310 518 CURVE SMOOTH",
"230 518 OFFCURVE",
"173 444 OFFCURVE",
"151 350 CURVE",
"180 350 LINE",
"175 505 LINE",
"60 505 LINE",
"60 0 LINE"
);
}
);
width = 338;
},
{
associatedMasterId = "CC11FE7D-5FF0-4B40-9597-DFC61EB94F41";
background = {
paths = (
{
closed = 0;
nodes = (
"104 486 LINE",
"104 0 LINE"
);
},
{
closed = 0;
nodes = (
"104 299 LINE",
"125 376 OFFCURVE",
"188 473 OFFCURVE",
"263 473 CURVE SMOOTH",
"305 473 OFFCURVE",
"325 448 OFFCURVE",
"330 441 CURVE"
);
},
{
closed = 1;
nodes = (
"123 390 OFFCURVE",
"168 474 OFFCURVE",
"252 474 CURVE SMOOTH",
"281 474 OFFCURVE",
"304 459 OFFCURVE",
"319 446 CURVE",
"338 471 LINE",
"310 496 OFFCURVE",
"279 507 OFFCURVE",
"250 507 CURVE SMOOTH",
"185 507 OFFCURVE",
"128 458 OFFCURVE",
"106 372 CURVE",
"123 372 LINE",
"123 500 LINE",
"85 500 LINE",
"85 0 LINE",
"123 0 LINE",
"123 294 LINE SMOOTH"
);
}
);
};
layerId = "8D89DE91-E6FB-4A49-80D2-B845BC7AE1E9";
name = "Light Condensed Sep 2 15, 22:42";
paths = (
{
closed = 1;
nodes = (
"123 390 OFFCURVE",
"168 474 OFFCURVE",
"252 474 CURVE SMOOTH",
"281 474 OFFCURVE",
"307 461 OFFCURVE",
"322 448 CURVE",
"340 474 LINE",
"311 498 OFFCURVE",
"281 507 OFFCURVE",
"251 507 CURVE SMOOTH",
"187 507 OFFCURVE",
"128 457 OFFCURVE",
"106 372 CURVE",
"123 372 LINE",
"121 500 LINE",
"85 500 LINE",
"85 0 LINE",
"123 0 LINE",
"123 294 LINE SMOOTH"
);
}
);
width = 345;
}
);
unicode = 0072;
},
{
glyphname = s;
lastChange = "2015-09-03 09:05:52 +0000";
layers = (
{
background = {
paths = (
{
closed = 0;
nodes = (
"318 448 LINE",
"298 459 OFFCURVE",
"246 489 OFFCURVE",
"200 489 CURVE SMOOTH",
"147 489 OFFCURVE",
"82 467 OFFCURVE",
"82 382 CURVE SMOOTH",
"82 249 OFFCURVE",
"313 262 OFFCURVE",
"313 127 CURVE SMOOTH",
"313 50 OFFCURVE",
"257 13 OFFCURVE",
"188 13 CURVE SMOOTH",
"111 13 OFFCURVE",
"44 70 OFFCURVE",
"44 70 CURVE"
);
}
);
};
layerId = "CC11FE7D-5FF0-4B40-9597-DFC61EB94F41";
name = "Light Condensed";
paths = (
{
closed = 1;
nodes = (
"80 13 OFFCURVE",
"137 -7 OFFCURVE",
"190 -7 CURVE SMOOTH",
"263 -7 OFFCURVE",
"332 38 OFFCURVE",
"332 124 CURVE SMOOTH",
"332 282 OFFCURVE",
"101 260 OFFCURVE",
"101 387 CURVE SMOOTH",
"101 446 OFFCURVE",
"145 474 OFFCURVE",
"198 474 CURVE SMOOTH",
"235 474 OFFCURVE",
"276 460 OFFCURVE",
"311 438 CURVE",
"326 466 LINE",
"288 492 OFFCURVE",
"242 507 OFFCURVE",
"199 507 CURVE SMOOTH",
"127 507 OFFCURVE",
"63 467 OFFCURVE",
"63 387 CURVE SMOOTH",
"63 231 OFFCURVE",
"294 256 OFFCURVE",
"294 124 CURVE SMOOTH",
"294 61 OFFCURVE",
"247 26 OFFCURVE",
"192 26 CURVE SMOOTH",
"150 26 OFFCURVE",
"100 44 OFFCURVE",
"56 77 CURVE",
"35 49 LINE"
);
}
);
width = 367;
},
{
background = {
paths = (
{
closed = 1;
nodes = (
"95 13 OFFCURVE",
"152 -7 OFFCURVE",
"205 -7 CURVE SMOOTH",
"278 -7 OFFCURVE",
"347 38 OFFCURVE",
"347 124 CURVE SMOOTH",
"347 282 OFFCURVE",
"116 260 OFFCURVE",
"116 387 CURVE SMOOTH",
"116 446 OFFCURVE",
"160 474 OFFCURVE",
"213 474 CURVE SMOOTH",
"250 474 OFFCURVE",
"291 460 OFFCURVE",
"326 438 CURVE",
"341 466 LINE",
"303 492 OFFCURVE",
"257 507 OFFCURVE",
"214 507 CURVE SMOOTH",
"142 507 OFFCURVE",
"78 467 OFFCURVE",
"78 387 CURVE SMOOTH",
"78 231 OFFCURVE",
"309 256 OFFCURVE",
"309 124 CURVE SMOOTH",
"309 61 OFFCURVE",
"262 26 OFFCURVE",
"207 26 CURVE SMOOTH",
"165 26 OFFCURVE",
"115 44 OFFCURVE",
"71 77 CURVE",
"50 49 LINE"
);
},
{
closed = 1;
nodes = (
"151 -59 OFFCURVE",
"379 -25 OFFCURVE",
"379 149 CURVE SMOOTH",
"379 319 OFFCURVE",
"171 287 OFFCURVE",
"171 374 CURVE SMOOTH",
"171 436 OFFCURVE",
"258 440 OFFCURVE",
"329 386 CURVE",
"374 458 LINE",
"275 555 OFFCURVE",
"48 534 OFFCURVE",
"48 367 CURVE SMOOTH",
"48 196 OFFCURVE",
"256 236 OFFCURVE",
"256 139 CURVE SMOOTH",
"256 66 OFFCURVE",
"133 85 OFFCURVE",
"77 128 CURVE",
"30 49 LINE"
);
}
);
};
guideLines = (
{
angle = 90;
position = "{464, 634}";
},
{
angle = 90;
position = "{811, 634}";
},
{
angle = 90;
position = "{904, 634}";
},
{
angle = 90;
position = "{1267, 634}";
},
{
angle = 90;
position = "{1338, 634}";
},
{
angle = 90;
position = "{1670, 634}";
},
{
angle = 90;
position = "{1785, 634}";
},
{
angle = 90;
position = "{2055, 634}";
}
);
layerId = "6114C541-D024-4A3E-9713-6FAF49EAB318";
name = "Bold Condensed";
paths = (
{
closed = 1;
nodes = (
"76 8 OFFCURVE",
"138 -13 OFFCURVE",
"197 -13 CURVE SMOOTH",
"292 -13 OFFCURVE",
"379 41 OFFCURVE",
"379 149 CURVE SMOOTH",
"379 319 OFFCURVE",
"171 287 OFFCURVE",
"171 374 CURVE SMOOTH",
"171 407 OFFCURVE",
"196 424 OFFCURVE",
"230 424 CURVE SMOOTH",
"259 424 OFFCURVE",
"296 411 OFFCURVE",
"329 386 CURVE",
"374 458 LINE",
"335 496 OFFCURVE",
"277 516 OFFCURVE",
"220 516 CURVE SMOOTH",
"132 516 OFFCURVE",
"48 468 OFFCURVE",
"48 367 CURVE SMOOTH",
"48 196 OFFCURVE",
"256 236 OFFCURVE",
"256 139 CURVE SMOOTH",
"256 104 OFFCURVE",
"227 90 OFFCURVE",
"191 90 CURVE SMOOTH",
"153 90 OFFCURVE",
"106 106 OFFCURVE",
"77 128 CURVE",
"30 49 LINE"
);
}
);
width = 407;
}
);
unicode = 0073;
},
{
glyphname = t;
lastChange = "2015-09-03 09:51:03 +0000";
layers = (
{
background = {
paths = (
{
closed = 0;
nodes = (
"130 614 LINE",
"130 116 LINE SMOOTH",
"130 37 OFFCURVE",
"171 3 OFFCURVE",
"223 3 CURVE SMOOTH",
"275 3 OFFCURVE",
"297 26 OFFCURVE",
"297 26 CURVE"
);
},
{
closed = 0;
nodes = (
"35 453 LINE",
"283 453 LINE"
);
}
);
};
guideLines = (
{
angle = 90;
position = "{283, 376}";
}
);
layerId = "CC11FE7D-5FF0-4B40-9597-DFC61EB94F41";
name = "Light Condensed";
paths = (
{
closed = 1;
nodes = (
"269 34 OFFCURVE",
"245 26 OFFCURVE",
"226 26 CURVE SMOOTH",
"181 26 OFFCURVE",
"149 62 OFFCURVE",
"149 139 CURVE SMOOTH",
"149 635 LINE",
"111 635 LINE",
"111 127 LINE SMOOTH",
"111 35 OFFCURVE",
"160 -7 OFFCURVE",
"220 -7 CURVE SMOOTH",
"248 -7 OFFCURVE",
"279 4 OFFCURVE",
"308 26 CURVE",
"292 49 LINE"
);
},
{
closed = 1;
nodes = (
"25 500 LINE",
"25 467 LINE",
"283 467 LINE",
"283 500 LINE"
);
}
);
width = 313;
},
{
background = {
paths = (
{
closed = 1;
nodes = (
"289 34 OFFCURVE",
"265 26 OFFCURVE",
"246 26 CURVE SMOOTH",
"201 26 OFFCURVE",
"169 62 OFFCURVE",
"169 139 CURVE SMOOTH",
"169 635 LINE",
"131 635 LINE",
"131 127 LINE SMOOTH",
"131 35 OFFCURVE",
"180 -7 OFFCURVE",
"240 -7 CURVE SMOOTH",
"268 -7 OFFCURVE",
"299 4 OFFCURVE",
"328 26 CURVE",
"312 49 LINE"
);
},
{
closed = 1;
nodes = (
"45 500 LINE",
"45 467 LINE",
"303 467 LINE",
"303 500 LINE"
);
}
);
};
guideLines = (
{
angle = 90;
position = "{314, 376}";
}
);
layerId = "6114C541-D024-4A3E-9713-6FAF49EAB318";
name = "Bold Condensed";
paths = (
{
closed = 1;
nodes = (
"294 91 OFFCURVE",
"276 86 OFFCURVE",
"262 86 CURVE SMOOTH",
"228 86 OFFCURVE",
"210 110 OFFCURVE",
"210 157 CURVE SMOOTH",
"210 635 LINE",
"90 635 LINE",
"90 151 LINE SMOOTH",
"90 24 OFFCURVE",
"155 -15 OFFCURVE",
"224 -15 CURVE SMOOTH",
"283 -15 OFFCURVE",
"323 9 OFFCURVE",
"349 30 CURVE",
"314 103 LINE"
);
},
{
closed = 1;
nodes = (
"32 500 LINE",
"32 410 LINE",
"313 410 LINE",
"313 500 LINE"
);
}
);
width = 354;
}
);
unicode = 0074;
},
{
glyphname = u;
lastChange = "2015-09-03 10:56:31 +0000";
layers = (
{
layerId = "CC11FE7D-5FF0-4B40-9597-DFC61EB94F41";
name = "Light Condensed";
paths = (
{
closed = 1;
nodes = (
"89 500 LINE",
"89 156 LINE SMOOTH",
"89 52 OFFCURVE",
"142 -7 OFFCURVE",
"237 -7 CURVE SMOOTH",
"308 -7 OFFCURVE",
"371 37 OFFCURVE",
"396 128 CURVE",
"380 128 LINE",
"383 0 LINE",
"417 0 LINE",
"417 500 LINE",
"379 500 LINE",
"379 206 LINE SMOOTH",
"379 87 OFFCURVE",
"311 23 OFFCURVE",
"239 23 CURVE SMOOTH",
"171 23 OFFCURVE",
"127 70 OFFCURVE",
"127 159 CURVE SMOOTH",
"127 500 LINE"
);
}
);
width = 507;
},
{
background = {
paths = (
{
closed = 1;
nodes = (
"502 75 LINE",
"477 75 OFFCURVE",
"466 84 OFFCURVE",
"466 109 CURVE SMOOTH",
"466 500 LINE",
"346 500 LINE",
"346 117 LINE SMOOTH",
"346 7 OFFCURVE",
"397 -15 OFFCURVE",
"502 -15 CURVE"
);
}
);
};
layerId = "6114C541-D024-4A3E-9713-6FAF49EAB318";
name = "Bold Condensed";
paths = (
{
closed = 1;
nodes = (
"61 500 LINE",
"61 161 LINE SMOOTH",
"61 49 OFFCURVE",
"117 -15 OFFCURVE",
"214 -15 CURVE SMOOTH",
"279 -15 OFFCURVE",
"359 37 OFFCURVE",
"386 150 CURVE",
"352 150 LINE",
"362 -5 LINE",
"467 -5 LINE",
"467 500 LINE",
"347 500 LINE",
"347 240 LINE SMOOTH",
"347 139 OFFCURVE",
"307 80 OFFCURVE",
"251 80 CURVE SMOOTH",
"204 80 OFFCURVE",
"181 119 OFFCURVE",
"181 171 CURVE SMOOTH",
"181 500 LINE"
);
}
);
width = 527;
},
{
associatedMasterId = "6114C541-D024-4A3E-9713-6FAF49EAB318";
background = {
paths = (
{
closed = 1;
nodes = (
"502 75 LINE",
"477 75 OFFCURVE",
"466 84 OFFCURVE",
"466 109 CURVE SMOOTH",
"466 500 LINE",
"346 500 LINE",
"346 117 LINE SMOOTH",
"346 7 OFFCURVE",
"397 -15 OFFCURVE",
"502 -15 CURVE"
);
}
);
};
layerId = "93E1BBBC-2547-476C-B0B1-694E25DE3B50";
name = "Bold Condensed Sep 3 15, 12:54";
paths = (
{
closed = 1;
nodes = (
"346 7 OFFCURVE",
"387 -15 OFFCURVE",
"502 -15 CURVE",
"502 75 LINE",
"477 75 OFFCURVE",
"466 84 OFFCURVE",
"466 109 CURVE SMOOTH",
"466 500 LINE",
"346 500 LINE",
"347 240 LINE",
"347 139 OFFCURVE",
"307 80 OFFCURVE",
"251 80 CURVE SMOOTH",
"204 80 OFFCURVE",
"181 119 OFFCURVE",
"181 171 CURVE SMOOTH",
"181 500 LINE",
"61 500 LINE",
"61 161 LINE SMOOTH",
"61 49 OFFCURVE",
"117 -15 OFFCURVE",
"214 -15 CURVE SMOOTH",
"279 -15 OFFCURVE",
"359 37 OFFCURVE",
"386 147 CURVE",
"346 147 LINE"
);
}
);
width = 527;
}
);
unicode = 0075;
},
{
glyphname = v;
lastChange = "2015-09-03 09:31:53 +0000";
layers = (
{
background = {
paths = (
{
closed = 0;
nodes = (
"35 464 LINE",
"203 3 LINE",
"375 470 LINE"
);
}
);
};
layerId = "CC11FE7D-5FF0-4B40-9597-DFC61EB94F41";
name = "Light Condensed";
paths = (
{
closed = 1;
nodes = (
"204 62 LINE",
"45 507 LINE",
"7 496 LINE",
"187 0 LINE",
"217 0 LINE",
"402 496 LINE",
"366 507 LINE"
);
}
);
width = 410;
},
{
background = {
paths = (
{
closed = 1;
nodes = (
"241 49 LINE",
"83 507 LINE",
"47 496 LINE",
"226 -7 LINE",
"255 -7 LINE",
"443 502 LINE",
"407 513 LINE"
);
}
);
};
layerId = "6114C541-D024-4A3E-9713-6FAF49EAB318";
name = "Bold Condensed";
paths = (
{
closed = 1;
nodes = (
"243 126 LINE",
"122 515 LINE",
"1 500 LINE",
"173 0 LINE",
"304 0 LINE",
"480 505 LINE",
"370 515 LINE"
);
}
);
width = 481;
}
);
unicode = 0076;
},
{
glyphname = w;
lastChange = "2015-09-03 11:10:57 +0000";
layers = (
{
background = {
paths = (
{
closed = 1;
nodes = (
"182 62 LINE",
"43 507 LINE",
"7 496 LINE",
"167 0 LINE",
"193 0 LINE",
"358 496 LINE",
"324 507 LINE"
);
},
{
closed = 1;
nodes = (
"477 62 LINE",
"338 507 LINE",
"313 463 LINE",
"462 0 LINE",
"488 0 LINE",
"653 496 LINE",
"619 507 LINE"
);
}
);
};
layerId = "CC11FE7D-5FF0-4B40-9597-DFC61EB94F41";
name = "Light Condensed";
paths = (
{
closed = 1;
nodes = (
"182 62 LINE",
"43 507 LINE",
"7 496 LINE",
"167 0 LINE",
"193 0 LINE",
"359 500 LINE",
"322 500 LINE"
);
},
{
closed = 1;
nodes = (
"496 62 LINE",
"359 500 LINE",
"332 463 LINE",
"481 0 LINE",
"507 0 LINE",
"672 496 LINE",
"638 507 LINE"
);
}
);
width = 679;
},
{
background = {
paths = (
{
closed = 1;
nodes = (
"223 126 LINE",
"112 515 LINE",
"1 500 LINE",
"163 0 LINE",
"269 0 LINE",
"435 500 LINE",
"340 515 LINE"
);
},
{
closed = 1;
nodes = (
"533 126 LINE",
"424 500 LINE",
"311 500 LINE",
"473 0 LINE",
"579 0 LINE",
"745 505 LINE",
"650 515 LINE"
);
}
);
};
layerId = "6114C541-D024-4A3E-9713-6FAF49EAB318";
name = "Bold Condensed";
paths = (
{
closed = 1;
nodes = (
"223 126 LINE",
"112 515 LINE",
"1 500 LINE",
"163 0 LINE",
"269 0 LINE",
"425 500 LINE",
"333 500 LINE"
);
},
{
closed = 1;
nodes = (
"527 126 LINE",
"425 500 LINE",
"335 456 LINE",
"467 0 LINE",
"573 0 LINE",
"739 505 LINE",
"644 515 LINE"
);
}
);
width = 740;
}
);
unicode = 0077;
},
{
glyphname = y;
lastChange = "2015-09-03 11:07:30 +0000";
layers = (
{
layerId = "CC11FE7D-5FF0-4B40-9597-DFC61EB94F41";
name = "Light Condensed";
paths = (
{
closed = 1;
nodes = (
"204 62 LINE",
"45 507 LINE",
"7 496 LINE",
"187 0 LINE",
"217 0 LINE",
"402 496 LINE",
"366 507 LINE"
);
},
{
closed = 1;
nodes = (
"3 -179 LINE",
"32 -201 OFFCURVE",
"63 -212 OFFCURVE",
"91 -212 CURVE SMOOTH",
"151 -212 OFFCURVE",
"173 -173 OFFCURVE",
"200 -78 CURVE SMOOTH",
"240 62 LINE",
"204 62 LINE",
"162 -66 LINE SMOOTH",
"136 -146 OFFCURVE",
"130 -179 OFFCURVE",
"85 -179 CURVE SMOOTH",
"66 -179 OFFCURVE",
"42 -171 OFFCURVE",
"19 -156 CURVE"
);
}
);
width = 410;
},
{
layerId = "6114C541-D024-4A3E-9713-6FAF49EAB318";
name = "Bold Condensed";
paths = (
{
closed = 1;
nodes = (
"243 126 LINE",
"122 515 LINE",
"1 500 LINE",
"173 0 LINE",
"304 0 LINE",
"480 505 LINE",
"370 515 LINE"
);
},
{
closed = 1;
nodes = (
"3 -170 LINE",
"29 -191 OFFCURVE",
"69 -215 OFFCURVE",
"128 -215 CURVE SMOOTH",
"197 -215 OFFCURVE",
"254 -170 OFFCURVE",
"292 -49 CURVE SMOOTH",
"347 126 LINE",
"227 126 LINE",
"172 -43 LINE SMOOTH",
"157 -88 OFFCURVE",
"124 -114 OFFCURVE",
"90 -114 CURVE SMOOTH",
"76 -114 OFFCURVE",
"58 -109 OFFCURVE",
"38 -97 CURVE"
);
}
);
width = 481;
}
);
unicode = 0079;
},
{
glyphname = si_Aa;
lastChange = "2015-08-27 12:35:00 +0000";
layers = (
{
layerId = "CC11FE7D-5FF0-4B40-9597-DFC61EB94F41";
name = "Light Condensed";
width = 863;
},
{
layerId = "6114C541-D024-4A3E-9713-6FAF49EAB318";
name = "Bold Condensed";
paths = (
{
closed = 1;
nodes = (
"834 481.337 OFFCURVE",
"730.341 558.818 OFFCURVE",
"646.458 558.818 CURVE SMOOTH",
"631.817 558.818 OFFCURVE",
"617.779 556.458 OFFCURVE",
"605 552 CURVE",
"633 449 LINE",
"636.159 449.924 OFFCURVE",
"639.341 450.38 OFFCURVE",
"642.525 450.38 CURVE SMOOTH",
"680.666 450.38 OFFCURVE",
"719 384.986 OFFCURVE",
"719 277 CURVE SMOOTH",
"719 166.4 OFFCURVE",
"678.984 108.453 OFFCURVE",
"639.539 108.453 CURVE SMOOTH",
"631.906 108.453 OFFCURVE",
"624.295 110.623 OFFCURVE",
"617 115 CURVE",
"572 21 LINE",
"590.561 8.131 OFFCURVE",
"615.983 0.529 OFFCURVE",
"643.732 0.529 CURVE SMOOTH",
"728.106 0.529 OFFCURVE",
"834 70.811 OFFCURVE",
"834 277 CURVE SMOOTH"
);
},
{
closed = 1;
nodes = (
"213 419 LINE",
"205.038 428.953 OFFCURVE",
"201.148 440.997 OFFCURVE",
"201.148 452.649 CURVE SMOOTH",
"201.148 476.119 OFFCURVE",
"216.93 498 OFFCURVE",
"247 498 CURVE SMOOTH",
"276 498 OFFCURVE",
"297 474 OFFCURVE",
"297 436 CURVE SMOOTH",
"297 430 OFFCURVE",
"297 424 OFFCURVE",
"296 418 CURVE",
"278 420 OFFCURVE",
"266 421 OFFCURVE",
"247 421 CURVE SMOOTH",
"235 421 OFFCURVE",
"223.23 420.1 OFFCURVE",
"211.764 418.366 CURVE"
);
},
{
closed = 1;
nodes = (
"69.154 352.169 OFFCURVE",
"30 289.429 OFFCURVE",
"30 217 CURVE SMOOTH",
"30 97 OFFCURVE",
"128 5 OFFCURVE",
"247 0 CURVE SMOOTH",
"252.709 -0.229 OFFCURVE",
"258.32 -0.342 OFFCURVE",
"263.835 -0.342 CURVE SMOOTH",
"275.654 -0.342 OFFCURVE",
"287.029 0.172 OFFCURVE",
"297.976 1.142 CURVE",
"298 -4 LINE",
"298 -205 LINE",
"402 -205 LINE",
"402 27.457 LINE",
"490.611 66.806 OFFCURVE",
"532.327 136.174 OFFCURVE",
"546 156 CURVE",
"460 218 LINE",
"453.061 208.582 OFFCURVE",
"435.311 180.982 OFFCURVE",
"402 156.758 CURVE",
"402 285.306 LINE",
"516.868 293.019 OFFCURVE",
"541.561 343.604 OFFCURVE",
"541.561 399.081 CURVE SMOOTH",
"541.561 440.919 OFFCURVE",
"527.517 485.538 OFFCURVE",
"527.517 516.645 CURVE SMOOTH",
"527.517 532.886 OFFCURVE",
"531.346 545.444 OFFCURVE",
"543 552 CURVE",
"537 561 OFFCURVE",
"501 614 OFFCURVE",
"501 614 CURVE SMOOTH",
"439.346 614 OFFCURVE",
"381.071 561.29 OFFCURVE",
"361.173 540.864 CURVE",
"333.22 577.309 OFFCURVE",
"291.094 596 OFFCURVE",
"247 596 CURVE SMOOTH",
"163.18 596 OFFCURVE",
"106.562 531.33 OFFCURVE",
"106.562 461.191 CURVE SMOOTH",
"106.562 436.721 OFFCURVE",
"113.453 411.584 OFFCURVE",
"128.485 388.296 CURVE"
);
},
{
closed = 1;
nodes = (
"296.467 318 LINE",
"297.425 116.883 LINE",
"288.042 115.822 OFFCURVE",
"278.185 115.25 OFFCURVE",
"267.834 115.25 CURVE SMOOTH",
"261.1 115.25 OFFCURVE",
"254.157 115.492 OFFCURVE",
"247 116 CURVE SMOOTH",
"190 120 OFFCURVE",
"146 161 OFFCURVE",
"146 217 CURVE SMOOTH",
"146 273 OFFCURVE",
"191 318 OFFCURVE",
"247 318 CURVE SMOOTH"
);
},
{
closed = 1;
nodes = (
"402.544 425.8 OFFCURVE",
"406.39 464.074 OFFCURVE",
"443 489 CURVE",
"447.283 471.392 OFFCURVE",
"457.455 445.402 OFFCURVE",
"457.455 422.566 CURVE SMOOTH",
"457.455 398.004 OFFCURVE",
"445.687 377.089 OFFCURVE",
"402.16 374.177 CURVE"
);
}
);
width = 863;
}
);
note = si_Aa;
unicode = 0D86;
},
{
glyphname = si_Aae;
lastChange = "2015-08-27 12:35:21 +0000";
layers = (
{
layerId = "CC11FE7D-5FF0-4B40-9597-DFC61EB94F41";
name = "Light Condensed";
width = 576;
},
{
layerId = "6114C541-D024-4A3E-9713-6FAF49EAB318";
name = "Bold Condensed";
paths = (
{
closed = 1;
nodes = (
"213 419 LINE",
"205.038 428.953 OFFCURVE",
"201.147 440.997 OFFCURVE",
"201.147 452.649 CURVE SMOOTH",
"201.147 476.119 OFFCURVE",
"216.93 498 OFFCURVE",
"247 498 CURVE SMOOTH",
"276 498 OFFCURVE",
"297 474 OFFCURVE",
"297 436 CURVE SMOOTH",
"297 430 OFFCURVE",
"297 424 OFFCURVE",
"296 418 CURVE",
"278 420 OFFCURVE",
"266 421 OFFCURVE",
"247 421 CURVE SMOOTH",
"235 421 OFFCURVE",
"223.229 420.1 OFFCURVE",
"211.764 418.366 CURVE"
);
},
{
closed = 1;
nodes = (
"69.154 352.169 OFFCURVE",
"30 289.429 OFFCURVE",
"30 217 CURVE SMOOTH",
"30 97 OFFCURVE",
"128 5 OFFCURVE",
"247 0 CURVE SMOOTH",
"252.709 -0.229 OFFCURVE",
"258.32 -0.342 OFFCURVE",
"263.835 -0.342 CURVE SMOOTH",
"275.654 -0.342 OFFCURVE",
"287.029 0.172 OFFCURVE",
"297.976 1.142 CURVE",
"298 -4 LINE",
"298 -205 LINE",
"402 -205 LINE",
"402 27.457 LINE",
"490.611 66.806 OFFCURVE",
"532.327 136.174 OFFCURVE",
"546 156 CURVE",
"460 218 LINE",
"453.061 208.582 OFFCURVE",
"435.311 180.982 OFFCURVE",
"402 156.758 CURVE",
"402 285.306 LINE",
"516.868 293.019 OFFCURVE",
"541.561 343.604 OFFCURVE",
"541.561 399.081 CURVE SMOOTH",
"541.561 440.919 OFFCURVE",
"527.517 485.538 OFFCURVE",
"527.517 516.645 CURVE SMOOTH",
"527.517 532.886 OFFCURVE",
"531.346 545.444 OFFCURVE",
"543 552 CURVE",
"537 561 OFFCURVE",
"501 614 OFFCURVE",
"501 614 CURVE SMOOTH",
"439.346 614 OFFCURVE",
"381.071 561.29 OFFCURVE",
"361.173 540.864 CURVE",
"333.22 577.309 OFFCURVE",
"291.094 596 OFFCURVE",
"247 596 CURVE SMOOTH",
"163.18 596 OFFCURVE",
"106.562 531.33 OFFCURVE",
"106.562 461.191 CURVE SMOOTH",
"106.562 436.721 OFFCURVE",
"113.453 411.584 OFFCURVE",
"128.485 388.296 CURVE"
);
},
{
closed = 1;
nodes = (
"296.467 318 LINE",
"297.425 116.883 LINE",
"288.042 115.822 OFFCURVE",
"278.185 115.25 OFFCURVE",
"267.834 115.25 CURVE SMOOTH",
"261.1 115.25 OFFCURVE",
"254.157 115.492 OFFCURVE",
"247 116 CURVE SMOOTH",
"190 120 OFFCURVE",
"146 161 OFFCURVE",
"146 217 CURVE SMOOTH",
"146 273 OFFCURVE",
"191 318 OFFCURVE",
"247 318 CURVE SMOOTH"
);
},
{
closed = 1;
nodes = (
"402.544 425.8 OFFCURVE",
"406.39 464.074 OFFCURVE",
"443 489 CURVE",
"447.283 471.392 OFFCURVE",
"457.455 445.402 OFFCURVE",
"457.455 422.566 CURVE SMOOTH",
"457.455 398.004 OFFCURVE",
"445.687 377.089 OFFCURVE",
"402.16 374.177 CURVE"
);
}
);
width = 576;
}
);
note = si_Aae;
unicode = 0D88;
},
{
glyphname = si_Ae;
lastChange = "2015-08-27 12:35:10 +0000";
layers = (
{
layerId = "CC11FE7D-5FF0-4B40-9597-DFC61EB94F41";
name = "Light Condensed";
width = 576;
},
{
layerId = "6114C541-D024-4A3E-9713-6FAF49EAB318";
name = "Bold Condensed";
paths = (
{
closed = 1;
nodes = (
"213 419 LINE",
"205.038 428.953 OFFCURVE",
"201.147 440.997 OFFCURVE",
"201.147 452.649 CURVE SMOOTH",
"201.147 476.119 OFFCURVE",
"216.93 498 OFFCURVE",
"247 498 CURVE SMOOTH",
"276 498 OFFCURVE",
"297 474 OFFCURVE",
"297 436 CURVE SMOOTH",
"297 430 OFFCURVE",
"297 424 OFFCURVE",
"296 418 CURVE",
"278 420 OFFCURVE",
"266 421 OFFCURVE",
"247 421 CURVE SMOOTH",
"235 421 OFFCURVE",
"223.229 420.1 OFFCURVE",
"211.764 418.366 CURVE"
);
},
{
closed = 1;
nodes = (
"69.154 352.169 OFFCURVE",
"30 289.429 OFFCURVE",
"30 217 CURVE SMOOTH",
"30 97 OFFCURVE",
"128 5 OFFCURVE",
"247 0 CURVE SMOOTH",
"252.709 -0.229 OFFCURVE",
"258.32 -0.342 OFFCURVE",
"263.835 -0.342 CURVE SMOOTH",
"275.654 -0.342 OFFCURVE",
"287.029 0.172 OFFCURVE",
"297.976 1.142 CURVE",
"298 -4 LINE",
"298 -205 LINE",
"402 -205 LINE",
"402 27.457 LINE",
"490.611 66.806 OFFCURVE",
"532.327 136.174 OFFCURVE",
"546 156 CURVE",
"460 218 LINE",
"453.061 208.582 OFFCURVE",
"435.311 180.982 OFFCURVE",
"402 156.758 CURVE",
"402 285.306 LINE",
"516.868 293.019 OFFCURVE",
"541.561 343.604 OFFCURVE",
"541.561 399.081 CURVE SMOOTH",
"541.561 440.919 OFFCURVE",
"527.517 485.538 OFFCURVE",
"527.517 516.645 CURVE SMOOTH",
"527.517 532.886 OFFCURVE",
"531.346 545.444 OFFCURVE",
"543 552 CURVE",
"537 561 OFFCURVE",
"501 614 OFFCURVE",
"501 614 CURVE SMOOTH",
"439.346 614 OFFCURVE",
"381.071 561.29 OFFCURVE",
"361.173 540.864 CURVE",
"333.22 577.309 OFFCURVE",
"291.094 596 OFFCURVE",
"247 596 CURVE SMOOTH",
"163.18 596 OFFCURVE",
"106.562 531.33 OFFCURVE",
"106.562 461.191 CURVE SMOOTH",
"106.562 436.721 OFFCURVE",
"113.453 411.584 OFFCURVE",
"128.485 388.296 CURVE"
);
},
{
closed = 1;
nodes = (
"296.467 318 LINE",
"297.425 116.883 LINE",
"288.042 115.822 OFFCURVE",
"278.185 115.25 OFFCURVE",
"267.834 115.25 CURVE SMOOTH",
"261.1 115.25 OFFCURVE",
"254.157 115.492 OFFCURVE",
"247 116 CURVE SMOOTH",
"190 120 OFFCURVE",
"146 161 OFFCURVE",
"146 217 CURVE SMOOTH",
"146 273 OFFCURVE",
"191 318 OFFCURVE",
"247 318 CURVE SMOOTH"
);
},
{
closed = 1;
nodes = (
"402.544 425.8 OFFCURVE",
"406.39 464.074 OFFCURVE",
"443 489 CURVE",
"447.283 471.392 OFFCURVE",
"457.455 445.402 OFFCURVE",
"457.455 422.566 CURVE SMOOTH",
"457.455 398.004 OFFCURVE",
"445.687 377.089 OFFCURVE",
"402.16 374.177 CURVE"
);
}
);
width = 576;
}
);
note = si_Ae;
unicode = 0D87;
},
{
glyphname = si_Ca;
lastChange = "2015-08-27 12:38:33 +0000";
layers = (
{
layerId = "CC11FE7D-5FF0-4B40-9597-DFC61EB94F41";
name = "Light Condensed";
width = 545;
},
{
layerId = "6114C541-D024-4A3E-9713-6FAF49EAB318";
name = "Bold Condensed";
paths = (
{
closed = 1;
nodes = (
"154 271 OFFCURVE",
"171 306 OFFCURVE",
"203 306 CURVE SMOOTH",
"329 306 LINE",
"333 325 OFFCURVE",
"336 351 OFFCURVE",
"336 366 CURVE SMOOTH",
"336 475 OFFCURVE",
"265 532 OFFCURVE",
"188 532 CURVE SMOOTH",
"114 532 OFFCURVE",
"64 481 OFFCURVE",
"64 409 CURVE SMOOTH",
"64 403.541 OFFCURVE",
"64.39 398.081 OFFCURVE",
"65.156 392.602 CURVE",
"30 393 LINE",
"30 306 LINE",
"61 306 LINE",
"50 286 OFFCURVE",
"41 255 OFFCURVE",
"37 223 CURVE SMOOTH",
"36.203 215.904 OFFCURVE",
"35.787 208.522 OFFCURVE",
"35.787 200.944 CURVE SMOOTH",
"35.787 113.484 OFFCURVE",
"91.192 0 OFFCURVE",
"255 0 CURVE SMOOTH",
"435 0 OFFCURVE",
"516 118 OFFCURVE",
"516 354 CURVE SMOOTH",
"516 676 OFFCURVE",
"385 755 OFFCURVE",
"246 755 CURVE SMOOTH",
"159 755 OFFCURVE",
"74 708 OFFCURVE",
"38 613 CURVE",
"147 577 LINE",
"164 619 OFFCURVE",
"205 640 OFFCURVE",
"246 640 CURVE SMOOTH",
"329 640 OFFCURVE",
"401 583 OFFCURVE",
"401 354 CURVE SMOOTH",
"401 195 OFFCURVE",
"359 115 OFFCURVE",
"255 115 CURVE SMOOTH",
"174.476 115 OFFCURVE",
"144.586 166.368 OFFCURVE",
"144.586 213.786 CURVE SMOOTH",
"144.586 221.721 OFFCURVE",
"145.423 229.545 OFFCURVE",
"147 237 CURVE SMOOTH"
);
},
{
closed = 1;
nodes = (
"156.058 391.573 LINE",
"154.767 395.963 OFFCURVE",
"154 400.45 OFFCURVE",
"154 405 CURVE SMOOTH",
"154 426 OFFCURVE",
"163 444 OFFCURVE",
"188 444 CURVE SMOOTH",
"221.57 444 OFFCURVE",
"238.38 418.524 OFFCURVE",
"239.528 390.628 CURVE"
);
}
);
width = 545;
}
);
note = si_Ca;
unicode = 0DA0;
},
{
glyphname = si_Dha;
lastChange = "2015-08-27 12:42:05 +0000";
layers = (
{
layerId = "CC11FE7D-5FF0-4B40-9597-DFC61EB94F41";
name = "Light Condensed";
width = 589;
},
{
layerId = "6114C541-D024-4A3E-9713-6FAF49EAB318";
name = "Bold Condensed";
paths = (
{
closed = 1;
nodes = (
"559 599 OFFCURVE",
"456 755 OFFCURVE",
"255 755 CURVE SMOOTH",
"168 755 OFFCURVE",
"84 708 OFFCURVE",
"48 613 CURVE",
"157 577 LINE",
"174 619 OFFCURVE",
"214 640 OFFCURVE",
"255 640 CURVE SMOOTH",
"380 640 OFFCURVE",
"444 523 OFFCURVE",
"444 293 CURVE SMOOTH",
"444 240 OFFCURVE",
"444 115 OFFCURVE",
"396 115 CURVE SMOOTH",
"353 115 OFFCURVE",
"337 177 OFFCURVE",
"337 250 CURVE",
"241 250 LINE",
"241 181.225 OFFCURVE",
"226.799 114.226 OFFCURVE",
"186.689 114.226 CURVE SMOOTH",
"184.225 114.226 OFFCURVE",
"181.663 114.479 OFFCURVE",
"179 115 CURVE SMOOTH",
"149.277 120.573 OFFCURVE",
"139.876 176.761 OFFCURVE",
"139.876 228.003 CURVE SMOOTH",
"139.876 259.512 OFFCURVE",
"143.431 289.15 OFFCURVE",
"148 304 CURVE SMOOTH",
"158 336 OFFCURVE",
"177 357 OFFCURVE",
"205 357 CURVE SMOOTH",
"216 357 OFFCURVE",
"229 354 OFFCURVE",
"243 346 CURVE",
"281 446 LINE",
"253 466 OFFCURVE",
"224 475 OFFCURVE",
"196 475 CURVE SMOOTH",
"129 475 OFFCURVE",
"69 422 OFFCURVE",
"44 341 CURVE SMOOTH",
"36.09 315.749 OFFCURVE",
"29.938 274.299 OFFCURVE",
"29.938 228.846 CURVE SMOOTH",
"29.938 124.895 OFFCURVE",
"62.111 0 OFFCURVE",
"179 0 CURVE SMOOTH",
"232 0 OFFCURVE",
"271 32 OFFCURVE",
"287 79 CURVE",
"302 33 OFFCURVE",
"340 0 OFFCURVE",
"396 0 CURVE SMOOTH",
"554 0 OFFCURVE",
"559 182 OFFCURVE",
"559 293 CURVE SMOOTH"
);
}
);
width = 589;
}
);
note = si_Dha;
unicode = 0DB0;
},
{
glyphname = si_E;
lastChange = "2015-08-27 12:37:22 +0000";
layers = (
{
layerId = "CC11FE7D-5FF0-4B40-9597-DFC61EB94F41";
name = "Light Condensed";
width = 558;
},
{
layerId = "6114C541-D024-4A3E-9713-6FAF49EAB318";
name = "Bold Condensed";
paths = (
{
closed = 1;
nodes = (
"174 115 OFFCURVE",
"145 167 OFFCURVE",
"145 214 CURVE SMOOTH",
"145 262 OFFCURVE",
"165 306 OFFCURVE",
"222 306 CURVE SMOOTH",
"329 306 LINE",
"333 325 OFFCURVE",
"336 351 OFFCURVE",
"336 366 CURVE SMOOTH",
"336 475 OFFCURVE",
"265 532 OFFCURVE",
"188 532 CURVE SMOOTH",
"114 532 OFFCURVE",
"64 481 OFFCURVE",
"64 409 CURVE SMOOTH",
"64 403.541 OFFCURVE",
"64.39 398.081 OFFCURVE",
"65.156 392.602 CURVE",
"30 393 LINE",
"30 306 LINE",
"67 306 LINE",
"52 286 OFFCURVE",
"41 255 OFFCURVE",
"37 223 CURVE SMOOTH",
"36.203 215.904 OFFCURVE",
"35.787 208.522 OFFCURVE",
"35.787 200.944 CURVE SMOOTH",
"35.787 113.484 OFFCURVE",
"91.192 0 OFFCURVE",
"255 0 CURVE SMOOTH",
"435 0 OFFCURVE",
"529 104 OFFCURVE",
"529 340 CURVE SMOOTH",
"529 556 OFFCURVE",
"466 728 OFFCURVE",
"328 819 CURVE",
"256 735 LINE",
"267.876 726.34 OFFCURVE",
"272.345 719.088 OFFCURVE",
"272.345 711.942 CURVE SMOOTH",
"272.345 690.205 OFFCURVE",
"231 669.443 OFFCURVE",
"231 613 CURVE SMOOTH",
"231 527.435 OFFCURVE",
"328.011 465.628 OFFCURVE",
"405.815 463.035 CURVE",
"411.348 424.439 OFFCURVE",
"414 383.235 OFFCURVE",
"414 340 CURVE SMOOTH",
"414 181 OFFCURVE",
"359 115 OFFCURVE",
"255 115 CURVE SMOOTH"
);
},
{
closed = 1;
nodes = (
"156.058 391.573 LINE",
"154.767 395.963 OFFCURVE",
"154 400.45 OFFCURVE",
"154 405 CURVE SMOOTH",
"154 426 OFFCURVE",
"163 444 OFFCURVE",
"188 444 CURVE SMOOTH",
"221.57 444 OFFCURVE",
"238.38 418.524 OFFCURVE",
"239.528 390.628 CURVE"
);
},
{
closed = 1;
nodes = (
"358.296 625.456 OFFCURVE",
"372.778 594.227 OFFCURVE",
"383.976 559.672 CURVE",
"337.721 565.269 OFFCURVE",
"317.542 591.694 OFFCURVE",
"317.542 615.759 CURVE SMOOTH",
"317.542 630.984 OFFCURVE",
"325.619 645.264 OFFCURVE",
"340.28 652.727 CURVE"
);
}
);
width = 558;
}
);
note = si_E;
unicode = 0D91;
},
{
glyphname = si_I;
lastChange = "2015-08-27 12:36:22 +0000";
layers = (
{
layerId = "CC11FE7D-5FF0-4B40-9597-DFC61EB94F41";
name = "Light Condensed";
width = 547;
},
{
layerId = "6114C541-D024-4A3E-9713-6FAF49EAB318";
name = "Bold Condensed";
paths = (
{
closed = 1;
nodes = (
"141 325 OFFCURVE",
"163 348 OFFCURVE",
"190 348 CURVE SMOOTH",
"217 348 OFFCURVE",
"239 325 OFFCURVE",
"239 298 CURVE SMOOTH",
"239 271 OFFCURVE",
"217 249 OFFCURVE",
"190 249 CURVE SMOOTH",
"163 249 OFFCURVE",
"141 271 OFFCURVE",
"141 298 CURVE SMOOTH"
);
},
{
closed = 1;
nodes = (
"301 -78 OFFCURVE",
"277 -98 OFFCURVE",
"246 -98 CURVE SMOOTH",
"225 -98 OFFCURVE",
"201 -88 OFFCURVE",
"180 -59 CURVE",
"103 -111 LINE",
"145 -177 OFFCURVE",
"203 -205 OFFCURVE",
"258 -205 CURVE SMOOTH",
"337 -205 OFFCURVE",
"408 -143 OFFCURVE",
"408 -49 CURVE SMOOTH",
"408 -11.541 OFFCURVE",
"391.572 13.999 OFFCURVE",
"374.803 32.192 CURVE",
"475.713 93.255 OFFCURVE",
"518 216.271 OFFCURVE",
"518 297 CURVE SMOOTH",
"518 496 OFFCURVE",
"394 594 OFFCURVE",
"254 594 CURVE SMOOTH",
"112.966 594 OFFCURVE",
"30.4 475.952 OFFCURVE",
"30.4 354.123 CURVE SMOOTH",
"30.4 314.129 OFFCURVE",
"39.298 273.728 OFFCURVE",
"57.945 236.962 CURVE",
"80.859 185.967 OFFCURVE",
"131.857 151 OFFCURVE",
"192 151 CURVE SMOOTH",
"274 151 OFFCURVE",
"340 216 OFFCURVE",
"340 298 CURVE SMOOTH",
"340 336 OFFCURVE",
"325 372 OFFCURVE",
"301 398 CURVE SMOOTH",
"278 423 OFFCURVE",
"244 437 OFFCURVE",
"211 437 CURVE SMOOTH",
"183.803 437 OFFCURVE",
"157.176 427.868 OFFCURVE",
"138.019 413.485 CURVE",
"153.093 450.805 OFFCURVE",
"190.03 480 OFFCURVE",
"254 480 CURVE SMOOTH",
"331 480 OFFCURVE",
"403 416 OFFCURVE",
"403 297 CURVE SMOOTH",
"403 213.639 OFFCURVE",
"340.988 93.634 OFFCURVE",
"206.036 93.634 CURVE SMOOTH",
"201.764 93.634 OFFCURVE",
"197.419 93.755 OFFCURVE",
"193 94 CURVE",
"178 0 LINE",
"198.293 -3.313 OFFCURVE",
"217.557 -4.87 OFFCURVE",
"235.823 -4.87 CURVE SMOOTH",
"255.185 -4.87 OFFCURVE",
"273.425 -3.121 OFFCURVE",
"290.582 0.14 CURVE",
"297.21 -11.365 OFFCURVE",
"301 -26.598 OFFCURVE",
"301 -49 CURVE SMOOTH"
);
}
);
width = 547;
}
);
note = si_I;
unicode = 0D89;
},
{
glyphname = si_Ka;
lastChange = "2015-08-27 12:37:43 +0000";
layers = (
{
layerId = "CC11FE7D-5FF0-4B40-9597-DFC61EB94F41";
name = "Light Condensed";
width = 770;
},
{
layerId = "6114C541-D024-4A3E-9713-6FAF49EAB318";
name = "Bold Condensed";
paths = (
{
closed = 1;
nodes = (
"77 435.072 OFFCURVE",
"85.862 373.501 OFFCURVE",
"151.315 326.461 CURVE",
"111.973 284.642 OFFCURVE",
"82.775 256.35 OFFCURVE",
"30 202 CURVE",
"78 115 LINE",
"79.077 116.077 OFFCURVE",
"85.172 122.371 OFFCURVE",
"94.924 132.469 CURVE",
"93.548 126.605 OFFCURVE",
"92.613 118.691 OFFCURVE",
"92.613 109.633 CURVE SMOOTH",
"92.613 67.312 OFFCURVE",
"113.009 0 OFFCURVE",
"204 0 CURVE SMOOTH",
"276 0 OFFCURVE",
"286 79 OFFCURVE",
"286 79 CURVE SMOOTH",
"286 79 OFFCURVE",
"295 0 OFFCURVE",
"376 0 CURVE SMOOTH",
"408.618 0 OFFCURVE",
"435.082 10.605 OFFCURVE",
"456.089 28.145 CURVE",
"477.085 11.84 OFFCURVE",
"506.017 0 OFFCURVE",
"543 0 CURVE SMOOTH",
"647 0 OFFCURVE",
"740 56 OFFCURVE",
"740 279 CURVE SMOOTH",
"740 513 OFFCURVE",
"603 594 OFFCURVE",
"496 594 CURVE SMOOTH",
"422.44 594 OFFCURVE",
"366.916 561.266 OFFCURVE",
"322.332 518.731 CURVE",
"293.512 561.182 OFFCURVE",
"246.639 583 OFFCURVE",
"199 583 CURVE SMOOTH",
"118 583 OFFCURVE",
"77 531 OFFCURVE",
"77 462 CURVE SMOOTH"
);
},
{
closed = 1;
nodes = (
"181.132 408.039 OFFCURVE",
"164 430.306 OFFCURVE",
"164 456 CURVE SMOOTH",
"164 480 OFFCURVE",
"179 494 OFFCURVE",
"205 494 CURVE",
"218.423 481.366 OFFCURVE",
"253.632 475.936 OFFCURVE",
"256.643 445.393 CURVE",
"241.026 427.203 OFFCURVE",
"223.226 406.525 OFFCURVE",
"208.924 390.061 CURVE"
);
},
{
closed = 1;
nodes = (
"312.294 356.437 OFFCURVE",
"313.88 356.484 OFFCURVE",
"315.473 356.484 CURVE SMOOTH",
"362.741 356.484 OFFCURVE",
"416 315.478 OFFCURVE",
"416 210 CURVE SMOOTH",
"416 166 OFFCURVE",
"409 109 OFFCURVE",
"376 109 CURVE SMOOTH",
"347 109 OFFCURVE",
"331 145 OFFCURVE",
"331 227 CURVE",
"242 227 LINE",
"242 142 OFFCURVE",
"233 109 OFFCURVE",
"207 109 CURVE SMOOTH",
"184 109 OFFCURVE",
"177 139 OFFCURVE",
"177 156 CURVE SMOOTH",
"177 184.784 OFFCURVE",
"178.918 213.569 OFFCURVE",
"193.488 234.685 CURVE",
"233.32 276.018 OFFCURVE",
"276.477 320.813 OFFCURVE",
"310.717 356.345 CURVE"
);
},
{
closed = 1;
nodes = (
"196.048 238.149 LINE",
"199.169 242.092 OFFCURVE",
"202.793 245.728 OFFCURVE",
"207 249 CURVE"
);
},
{
closed = 1;
nodes = (
"518.901 146.626 OFFCURVE",
"523 179.013 OFFCURVE",
"523 210 CURVE SMOOTH",
"523 387.613 OFFCURVE",
"433.22 430.233 OFFCURVE",
"386.548 434.412 CURVE",
"430.19 475.227 OFFCURVE",
"465.635 482 OFFCURVE",
"496 482 CURVE SMOOTH",
"546 482 OFFCURVE",
"629 427 OFFCURVE",
"629 279 CURVE SMOOTH",
"629 137 OFFCURVE",
"586 108 OFFCURVE",
"543 108 CURVE SMOOTH",
"529.308 108 OFFCURVE",
"518.486 111.507 OFFCURVE",
"509.944 116.823 CURVE"
);
}
);
width = 770;
}
);
note = si_Ka;
unicode = 0D9A;
},
{
glyphname = si_Pa;
lastChange = "2015-08-27 12:42:53 +0000";
layers = (
{
layerId = "CC11FE7D-5FF0-4B40-9597-DFC61EB94F41";
name = "Light Condensed";
width = 589;
},
{
layerId = "6114C541-D024-4A3E-9713-6FAF49EAB318";
name = "Bold Condensed";
paths = (
{
closed = 1;
nodes = (
"370 318 LINE SMOOTH",
"425 318 OFFCURVE",
"452 276 OFFCURVE",
"452 224 CURVE SMOOTH",
"452 144.375 OFFCURVE",
"373.003 104.375 OFFCURVE",
"294.13 104.375 CURVE SMOOTH",
"215.503 104.375 OFFCURVE",
"137 144.125 OFFCURVE",
"137 224 CURVE SMOOTH",
"137 276 OFFCURVE",
"164 318 OFFCURVE",
"219 318 CURVE SMOOTH"
);
},
{
closed = 1;
nodes = (
"268.189 581.36 OFFCURVE",
"233.26 594 OFFCURVE",
"197 594 CURVE SMOOTH",
"110 594 OFFCURVE",
"58 532 OFFCURVE",
"58 456 CURVE SMOOTH",
"58 428.491 OFFCURVE",
"68.618 396.155 OFFCURVE",
"87.008 371.322 CURVE",
"49.003 336.095 OFFCURVE",
"30 283.163 OFFCURVE",
"30 224 CURVE SMOOTH",
"30 66.5 OFFCURVE",
"162.25 -12.25 OFFCURVE",
"294.5 -12.25 CURVE SMOOTH",
"426.75 -12.25 OFFCURVE",
"559 66.5 OFFCURVE",
"559 224 CURVE SMOOTH",
"559 283.163 OFFCURVE",
"539.997 336.095 OFFCURVE",
"501.992 371.321 CURVE",
"520.417 396.155 OFFCURVE",
"532 428.491 OFFCURVE",
"532 456 CURVE SMOOTH",
"532 532 OFFCURVE",
"480 594 OFFCURVE",
"393 594 CURVE SMOOTH",
"356.74 594 OFFCURVE",
"321.811 581.36 OFFCURVE",
"295 556.603 CURVE"
);
},
{
closed = 1;
nodes = (
"349.604 479.399 OFFCURVE",
"368.881 496 OFFCURVE",
"393 496 CURVE SMOOTH",
"422 496 OFFCURVE",
"438 475 OFFCURVE",
"438 451 CURVE SMOOTH",
"438 439.455 OFFCURVE",
"431.521 420.504 OFFCURVE",
"423.905 411.069 CURVE",
"409.146 414.295 OFFCURVE",
"393.178 416 OFFCURVE",
"376 416 CURVE SMOOTH",
"345 416 LINE",
"344.675 416 LINE",
"344.89 420.115 OFFCURVE",
"345 424.12 OFFCURVE",
"345 428 CURVE SMOOTH",
"345 436.284 OFFCURVE",
"344.59 444.268 OFFCURVE",
"343.798 451.95 CURVE"
);
},
{
closed = 1;
nodes = (
"245.3 441.958 OFFCURVE",
"245 435.089 OFFCURVE",
"245 428 CURVE SMOOTH",
"245 424.12 OFFCURVE",
"245.094 420.115 OFFCURVE",
"245.282 416 CURVE",
"244 416 LINE",
"213 416 LINE SMOOTH",
"195.823 416 OFFCURVE",
"179.854 414.295 OFFCURVE",
"165.095 411.07 CURVE",
"157.48 420.504 OFFCURVE",
"151 439.455 OFFCURVE",
"151 451 CURVE SMOOTH",
"151 475 OFFCURVE",
"168 496 OFFCURVE",
"197 496 CURVE SMOOTH",
"222.084 496 OFFCURVE",
"241.182 478.045 OFFCURVE",
"245.883 448.605 CURVE"
);
}
);
width = 589;
}
);
note = si_Pa;
unicode = 0DB4;
},
{
glyphname = si_Pha;
lastChange = "2015-08-27 12:43:01 +0000";
layers = (
{
layerId = "CC11FE7D-5FF0-4B40-9597-DFC61EB94F41";
name = "Light Condensed";
width = 564;
},
{
layerId = "6114C541-D024-4A3E-9713-6FAF49EAB318";
name = "Bold Condensed";
paths = (
{
closed = 1;
nodes = (
"167 115 OFFCURVE",
"141 174 OFFCURVE",
"141 227 CURVE SMOOTH",
"141 271 OFFCURVE",
"153 306 OFFCURVE",
"209 306 CURVE SMOOTH",
"334 306 LINE",
"338 325 OFFCURVE",
"341 351 OFFCURVE",
"341 366 CURVE SMOOTH",
"341 475 OFFCURVE",
"270 532 OFFCURVE",
"193 532 CURVE SMOOTH",
"119 532 OFFCURVE",
"70 481 OFFCURVE",
"70 409 CURVE SMOOTH",
"70 393.18 OFFCURVE",
"72.976 377.361 OFFCURVE",
"78.927 361.054 CURVE",
"49.524 334.659 OFFCURVE",
"30 279.27 OFFCURVE",
"30 219 CURVE SMOOTH",
"30 137 OFFCURVE",
"82 0 OFFCURVE",
"260 0 CURVE SMOOTH",
"440 0 OFFCURVE",
"534 104 OFFCURVE",
"534 340 CURVE SMOOTH",
"534 556 OFFCURVE",
"471 728 OFFCURVE",
"333 819 CURVE",
"261 735 LINE",
"272.876 726.34 OFFCURVE",
"277.345 719.088 OFFCURVE",
"277.345 711.942 CURVE SMOOTH",
"277.345 690.205 OFFCURVE",
"236 669.443 OFFCURVE",
"236 613 CURVE SMOOTH",
"236 527.435 OFFCURVE",
"333.011 465.628 OFFCURVE",
"410.815 463.035 CURVE",
"416.348 424.439 OFFCURVE",
"419 383.235 OFFCURVE",
"419 340 CURVE SMOOTH",
"419 181 OFFCURVE",
"364 115 OFFCURVE",
"260 115 CURVE SMOOTH"
);
},
{
closed = 1;
nodes = (
"166 391 LINE SMOOTH",
"164.399 391 OFFCURVE",
"162.816 390.979 OFFCURVE",
"161.249 390.939 CURVE",
"159.843 395.531 OFFCURVE",
"159 400.23 OFFCURVE",
"159 405 CURVE SMOOTH",
"159 426 OFFCURVE",
"168 444 OFFCURVE",
"193 444 CURVE SMOOTH",
"226.421 444 OFFCURVE",
"243.895 418.75 OFFCURVE",
"245.422 391 CURVE"
);
},
{
closed = 1;
nodes = (
"363.296 625.456 OFFCURVE",
"377.778 594.227 OFFCURVE",
"388.976 559.672 CURVE",
"342.721 565.269 OFFCURVE",
"322.542 591.694 OFFCURVE",
"322.542 615.759 CURVE SMOOTH",
"322.542 630.984 OFFCURVE",
"330.619 645.264 OFFCURVE",
"345.28 652.727 CURVE"
);
}
);
width = 564;
}
);
note = si_Pha;
unicode = 0DB5;
},
{
glyphname = si_Tha;
lastChange = "2015-08-27 12:41:19 +0000";
layers = (
{
layerId = "CC11FE7D-5FF0-4B40-9597-DFC61EB94F41";
name = "Light Condensed";
width = 551;
},
{
layerId = "6114C541-D024-4A3E-9713-6FAF49EAB318";
name = "Bold Condensed";
paths = (
{
closed = 1;
nodes = (
"521 570 OFFCURVE",
"458 728 OFFCURVE",
"320 819 CURVE",
"248 735 LINE",
"259.876 726.34 OFFCURVE",
"264.345 719.088 OFFCURVE",
"264.345 711.942 CURVE SMOOTH",
"264.345 690.205 OFFCURVE",
"223 669.443 OFFCURVE",
"223 613 CURVE SMOOTH",
"223 527 OFFCURVE",
"321 465 OFFCURVE",
"399 463 CURVE",
"399.154 463.061 OFFCURVE",
"399.307 463.123 OFFCURVE",
"399.46 463.186 CURVE",
"403.874 429.148 OFFCURVE",
"406 392.705 OFFCURVE",
"406 354 CURVE SMOOTH",
"406 195 OFFCURVE",
"364 115 OFFCURVE",
"260 115 CURVE SMOOTH",
"167 115 OFFCURVE",
"140 189 OFFCURVE",
"140 252 CURVE SMOOTH",
"140 309.86 OFFCURVE",
"163.843 356.716 OFFCURVE",
"204.359 356.716 CURVE SMOOTH",
"215.66 356.716 OFFCURVE",
"228.259 353.07 OFFCURVE",
"242 345 CURVE",
"280 445 LINE",
"251.634 464.784 OFFCURVE",
"222.587 473.83 OFFCURVE",
"194.795 473.83 CURVE SMOOTH",
"105.991 473.83 OFFCURVE",
"30 381.478 OFFCURVE",
"30 252 CURVE SMOOTH",
"30 136 OFFCURVE",
"82 0 OFFCURVE",
"260 0 CURVE SMOOTH",
"440 0 OFFCURVE",
"521 118 OFFCURVE",
"521 354 CURVE SMOOTH"
);
},
{
closed = 1;
nodes = (
"352.661 626.069 OFFCURVE",
"367.509 594.602 OFFCURVE",
"378.732 559.367 CURVE",
"330.522 564.229 OFFCURVE",
"309.542 591.221 OFFCURVE",
"309.542 615.759 CURVE SMOOTH",
"309.542 631.534 OFFCURVE",
"318.213 646.295 OFFCURVE",
"333.895 653.509 CURVE"
);
}
);
width = 551;
}
);
note = si_Tha;
unicode = 0DAE;
},
{
glyphname = si_Ttha;
lastChange = "2015-08-27 12:39:41 +0000";
layers = (
{
layerId = "CC11FE7D-5FF0-4B40-9597-DFC61EB94F41";
name = "Light Condensed";
width = 589;
},
{
layerId = "6114C541-D024-4A3E-9713-6FAF49EAB318";
name = "Bold Condensed";
paths = (
{
closed = 1;
nodes = (
"158 336 OFFCURVE",
"177 357 OFFCURVE",
"205 357 CURVE SMOOTH",
"216 357 OFFCURVE",
"229 354 OFFCURVE",
"243 346 CURVE",
"281 446 LINE",
"253 466 OFFCURVE",
"224 475 OFFCURVE",
"196 475 CURVE SMOOTH",
"129 475 OFFCURVE",
"69 422 OFFCURVE",
"44 341 CURVE SMOOTH",
"36.09 315.749 OFFCURVE",
"29.938 274.299 OFFCURVE",
"29.938 228.846 CURVE SMOOTH",
"29.938 124.895 OFFCURVE",
"62.111 0 OFFCURVE",
"179 0 CURVE SMOOTH",
"232 0 OFFCURVE",
"271 32 OFFCURVE",
"287 79 CURVE",
"302 33 OFFCURVE",
"340 0 OFFCURVE",
"396 0 CURVE SMOOTH",
"554 0 OFFCURVE",
"559 182 OFFCURVE",
"559 293 CURVE SMOOTH",
"559 410 OFFCURVE",
"540 515 OFFCURVE",
"516 588 CURVE SMOOTH",
"484 686 OFFCURVE",
"430 765 OFFCURVE",
"351 817 CURVE",
"279 733 LINE",
"290.876 724.34 OFFCURVE",
"295.345 717.088 OFFCURVE",
"295.345 709.942 CURVE SMOOTH",
"295.345 688.205 OFFCURVE",
"254 667.443 OFFCURVE",
"254 611 CURVE SMOOTH",
"254 525.292 OFFCURVE",
"351.337 463.421 OFFCURVE",
"429.206 461.022 CURVE",
"438.119 409.179 OFFCURVE",
"444 350.052 OFFCURVE",
"444 293 CURVE SMOOTH",
"444 240 OFFCURVE",
"444 115 OFFCURVE",
"396 115 CURVE SMOOTH",
"353 115 OFFCURVE",
"337 177 OFFCURVE",
"337 250 CURVE",
"241 250 LINE",
"241 181.226 OFFCURVE",
"226.799 114.226 OFFCURVE",
"186.689 114.226 CURVE SMOOTH",
"184.225 114.226 OFFCURVE",
"181.663 114.479 OFFCURVE",
"179 115 CURVE SMOOTH",
"149.277 120.573 OFFCURVE",
"139.876 176.761 OFFCURVE",
"139.876 228.003 CURVE SMOOTH",
"139.876 259.512 OFFCURVE",
"143.431 289.15 OFFCURVE",
"148 304 CURVE SMOOTH"
);
},
{
closed = 1;
nodes = (
"380.995 623.341 OFFCURVE",
"395.284 592.109 OFFCURVE",
"406.439 557.739 CURVE",
"360.565 563.473 OFFCURVE",
"340.542 589.787 OFFCURVE",
"340.542 613.759 CURVE SMOOTH",
"340.542 628.936 OFFCURVE",
"348.568 643.174 OFFCURVE",
"363.142 650.657 CURVE"
);
}
);
width = 589;
}
);
note = si_Ttha;
unicode = 0DA8;
},
{
glyphname = si_Uu;
lastChange = "2015-08-27 12:37:00 +0000";
layers = (
{
layerId = "CC11FE7D-5FF0-4B40-9597-DFC61EB94F41";
name = "Light Condensed";
width = 589;
},
{
layerId = "6114C541-D024-4A3E-9713-6FAF49EAB318";
name = "Bold Condensed";
paths = (
{
closed = 1;
nodes = (
"456 320 LINE",
"468 359 OFFCURVE",
"475 401 OFFCURVE",
"475 432 CURVE SMOOTH",
"475 541 OFFCURVE",
"404 598 OFFCURVE",
"327 598 CURVE SMOOTH",
"243.18 598 OFFCURVE",
"186.562 533.33 OFFCURVE",
"186.562 463.191 CURVE SMOOTH",
"186.562 442.064 OFFCURVE",
"191.698 420.441 OFFCURVE",
"202.775 399.94 CURVE",
"83.941 350.592 OFFCURVE",
"30 229.186 OFFCURVE",
"30 106 CURVE SMOOTH",
"30 -49 OFFCURVE",
"123 -205 OFFCURVE",
"309 -205 CURVE SMOOTH",
"456 -205 OFFCURVE",
"547 -108 OFFCURVE",
"559 6 CURVE",
"446 22 LINE",
"437 -41 OFFCURVE",
"384 -89 OFFCURVE",
"309 -89 CURVE SMOOTH",
"195 -89 OFFCURVE",
"144 0 OFFCURVE",
"144 106 CURVE SMOOTH",
"144 214 OFFCURVE",
"200 320 OFFCURVE",
"327 320 CURVE SMOOTH"
);
},
{
closed = 1;
nodes = (
"284.916 431.334 OFFCURVE",
"281.147 443.182 OFFCURVE",
"281.147 454.649 CURVE SMOOTH",
"281.147 478.119 OFFCURVE",
"296.93 500 OFFCURVE",
"327 500 CURVE SMOOTH",
"356 500 OFFCURVE",
"378 476 OFFCURVE",
"378 438 CURVE SMOOTH",
"378 432 OFFCURVE",
"377 426 OFFCURVE",
"376 420 CURVE",
"358 422 OFFCURVE",
"346 423 OFFCURVE",
"327 423 CURVE SMOOTH",
"315.163 423 OFFCURVE",
"303.707 422.481 OFFCURVE",
"292.625 421.475 CURVE"
);
}
);
width = 589;
}
);
note = si_Uu;
unicode = 0D8C;
},
{
glyphname = tml_A;
lastChange = "2015-09-02 10:52:49 +0000";
layers = (
{
layerId = "CC11FE7D-5FF0-4B40-9597-DFC61EB94F41";
name = "Light Condensed";
paths = (
{
closed = 1;
nodes = (
"50 -49 OFFCURVE",
"133 -134 OFFCURVE",
"297 -134 CURVE SMOOTH",
"470.33 -134 OFFCURVE",
"573.336 -0.854 OFFCURVE",
"578.78 181 CURVE",
"690 181 LINE",
"690 -119 LINE",
"726 -119 LINE",
"726 521 LINE",
"690 521 LINE",
"690 215 LINE",
"578.654 215 LINE",
"573.104 366.307 OFFCURVE",
"502.526 536.966 OFFCURVE",
"348 536 CURVE SMOOTH",
"281 536 OFFCURVE",
"227 491 OFFCURVE",
"227 408 CURVE SMOOTH",
"227 340 OFFCURVE",
"267 288 OFFCURVE",
"336 288 CURVE SMOOTH",
"395 288 OFFCURVE",
"438 328 OFFCURVE",
"438 409 CURVE SMOOTH",
"438 430.582 OFFCURVE",
"435.733 456.195 OFFCURVE",
"425.761 478.379 CURVE",
"505.323 432.376 OFFCURVE",
"538.448 317.347 OFFCURVE",
"541.727 215 CURVE",
"217 215 LINE SMOOTH",
"118 215 OFFCURVE",
"50 167 OFFCURVE",
"50 64 CURVE SMOOTH"
);
},
{
closed = 1;
nodes = (
"340.211 498.867 OFFCURVE",
"343.103 499 OFFCURVE",
"346 499 CURVE SMOOTH",
"347.364 499 OFFCURVE",
"348.72 498.985 OFFCURVE",
"350.068 498.955 CURVE",
"390.104 494.74 OFFCURVE",
"402 438.388 OFFCURVE",
"402 409 CURVE SMOOTH",
"401 360 OFFCURVE",
"386 322 OFFCURVE",
"337 322 CURVE SMOOTH",
"287 322 OFFCURVE",
"263 362 OFFCURVE",
"263 408 CURVE SMOOTH",
"263 465.125 OFFCURVE",
"296.71 493.474 OFFCURVE",
"334.309 498.264 CURVE",
"334 498 LINE",
"335.13 498.234 OFFCURVE",
"336.242 498.433 OFFCURVE",
"337.337 498.598 CURVE"
);
},
{
closed = 1;
nodes = (
"541.727 181 LINE",
"535.332 -15.836 OFFCURVE",
"417.612 -100 OFFCURVE",
"298 -100 CURVE SMOOTH",
"203 -100 OFFCURVE",
"86 -63 OFFCURVE",
"86 64 CURVE SMOOTH",
"86 145 OFFCURVE",
"135 181 OFFCURVE",
"217 181 CURVE SMOOTH"
);
}
);
width = 796;
},
{
layerId = "6114C541-D024-4A3E-9713-6FAF49EAB318";
name = "Bold Condensed";
paths = (
{
closed = 1;
nodes = (
"58 -53 OFFCURVE",
"150 -144 OFFCURVE",
"299 -144 CURVE SMOOTH",
"475.312 -144 OFFCURVE",
"577.051 -39.598 OFFCURVE",
"597.262 124 CURVE",
"660 124 LINE",
"660 -116 LINE",
"765 -116 LINE",
"765 545 LINE",
"660 545 LINE",
"660 219 LINE",
"600.284 219 LINE",
"593.014 385.059 OFFCURVE",
"530.223 560.055 OFFCURVE",
"363 561 CURVE SMOOTH",
"279 562 OFFCURVE",
"216 503 OFFCURVE",
"217 410 CURVE SMOOTH",
"218 323 OFFCURVE",
"277 264 OFFCURVE",
"356 265 CURVE SMOOTH",
"420.937 265 OFFCURVE",
"462.226 302.161 OFFCURVE",
"474.868 358.712 CURVE",
"488.38 317.529 OFFCURVE",
"495.565 268.598 OFFCURVE",
"497.486 219 CURVE",
"237 219 LINE SMOOTH",
"118 219 OFFCURVE",
"56 157 OFFCURVE",
"57 58 CURVE SMOOTH"
);
},
{
closed = 1;
nodes = (
"362.057 468.005 OFFCURVE",
"362.028 468 OFFCURVE",
"362 468 CURVE",
"382 468 OFFCURVE",
"409 453 OFFCURVE",
"409 413 CURVE SMOOTH",
"409 374 OFFCURVE",
"386 356 OFFCURVE",
"362 356 CURVE SMOOTH",
"333 356 OFFCURVE",
"314 383 OFFCURVE",
"314 416 CURVE SMOOTH",
"314 445 OFFCURVE",
"333 468 OFFCURVE",
"361 468 CURVE SMOOTH",
"361.363 468 OFFCURVE",
"361.724 468.005 OFFCURVE",
"362.085 468.005 CURVE"
);
},
{
closed = 1;
nodes = (
"493.395 124 LINE",
"477.313 18.119 OFFCURVE",
"418.146 -49 OFFCURVE",
"299 -49 CURVE SMOOTH",
"227 -49 OFFCURVE",
"163 -12 OFFCURVE",
"163 55 CURVE SMOOTH",
"163 92 OFFCURVE",
"186 124 OFFCURVE",
"233 124 CURVE SMOOTH"
);
}
);
width = 825;
}
);
note = tml_A;
unicode = 0B85;
},
{
glyphname = tml_Aa;
lastChange = "2015-08-27 10:49:47 +0000";
layers = (
{
layerId = "CC11FE7D-5FF0-4B40-9597-DFC61EB94F41";
name = "Light Condensed";
paths = (
{
closed = 1;
nodes = (
"553 -130 LINE",
"572 -344 OFFCURVE",
"703 -370 OFFCURVE",
"808 -361 CURVE SMOOTH",
"925 -350 OFFCURVE",
"994 -257 OFFCURVE",
"994 -110 CURVE SMOOTH",
"994 5 OFFCURVE",
"956 122 OFFCURVE",
"836 122 CURVE SMOOTH",
"746 122 OFFCURVE",
"688 62 OFFCURVE",
"690 -53 CURVE",
"726 -20 LINE",
"727 29 OFFCURVE",
"756 88 OFFCURVE",
"838 88 CURVE SMOOTH",
"928 88 OFFCURVE",
"960 -5 OFFCURVE",
"960 -114 CURVE SMOOTH",
"960 -219 OFFCURVE",
"912 -320 OFFCURVE",
"805 -329 CURVE SMOOTH",
"675 -341 OFFCURVE",
"597 -277 OFFCURVE",
"585 -126 CURVE"
);
},
{
closed = 1;
nodes = (
"49 -49 OFFCURVE",
"132 -134 OFFCURVE",
"296 -134 CURVE SMOOTH",
"469.33 -134 OFFCURVE",
"572.336 -0.854 OFFCURVE",
"577.78 181 CURVE",
"689 181 LINE",
"689 -119 LINE",
"725 -119 LINE",
"725 521 LINE",
"689 521 LINE",
"689 215 LINE",
"577.654 215 LINE",
"572.104 366.308 OFFCURVE",
"501.525 536.966 OFFCURVE",
"347 536 CURVE SMOOTH",
"280 536 OFFCURVE",
"226 491 OFFCURVE",
"226 408 CURVE SMOOTH",
"226 340 OFFCURVE",
"266 288 OFFCURVE",
"335 288 CURVE SMOOTH",
"394 288 OFFCURVE",
"437 328 OFFCURVE",
"437 409 CURVE SMOOTH",
"437 430.582 OFFCURVE",
"434.732 456.195 OFFCURVE",
"424.761 478.379 CURVE",
"504.323 432.376 OFFCURVE",
"537.448 317.348 OFFCURVE",
"540.727 215 CURVE",
"216 215 LINE SMOOTH",
"117 215 OFFCURVE",
"49 167 OFFCURVE",
"49 64 CURVE SMOOTH"
);
},
{
closed = 1;
nodes = (
"339.211 498.867 OFFCURVE",
"342.104 499 OFFCURVE",
"345 499 CURVE SMOOTH",
"346.364 499 OFFCURVE",
"347.72 498.985 OFFCURVE",
"349.067 498.955 CURVE",
"389.104 494.74 OFFCURVE",
"401 438.388 OFFCURVE",
"401 409 CURVE SMOOTH",
"400 360 OFFCURVE",
"385 322 OFFCURVE",
"336 322 CURVE SMOOTH",
"286 322 OFFCURVE",
"262 362 OFFCURVE",
"262 408 CURVE SMOOTH",
"262 465.125 OFFCURVE",
"295.71 493.474 OFFCURVE",
"333.31 498.264 CURVE",
"333 498 LINE",
"334.13 498.234 OFFCURVE",
"335.242 498.434 OFFCURVE",
"336.337 498.599 CURVE"
);
},
{
closed = 1;
nodes = (
"540.727 181 LINE",
"534.332 -15.836 OFFCURVE",
"416.611 -100 OFFCURVE",
"297 -100 CURVE SMOOTH",
"202 -100 OFFCURVE",
"85 -63 OFFCURVE",
"85 64 CURVE SMOOTH",
"85 145 OFFCURVE",
"134 181 OFFCURVE",
"216 181 CURVE SMOOTH"
);
}
);
width = 1024;
},
{
layerId = "6114C541-D024-4A3E-9713-6FAF49EAB318";
name = "Bold Condensed";
paths = (
{
closed = 1;
nodes = (
"508 -144 LINE",
"529 -344 OFFCURVE",
"669 -383 OFFCURVE",
"767 -383 CURVE SMOOTH",
"931 -383 OFFCURVE",
"1030 -257 OFFCURVE",
"1030 -82 CURVE SMOOTH",
"1030 41 OFFCURVE",
"976 161 OFFCURVE",
"848 161 CURVE SMOOTH",
"754 161 OFFCURVE",
"688 70 OFFCURVE",
"690 -58 CURVE",
"765 -24 LINE",
"766 33 OFFCURVE",
"790 66 OFFCURVE",
"848 66 CURVE SMOOTH",
"907 66 OFFCURVE",
"925 -3 OFFCURVE",
"925 -82 CURVE SMOOTH",
"925 -183 OFFCURVE",
"888 -289 OFFCURVE",
"767 -288 CURVE SMOOTH",
"666 -287 OFFCURVE",
"618 -238 OFFCURVE",
"602 -128 CURVE"
);
},
{
closed = 1;
nodes = (
"58 -53 OFFCURVE",
"150 -144 OFFCURVE",
"299 -144 CURVE SMOOTH",
"475.312 -144 OFFCURVE",
"577.051 -39.598 OFFCURVE",
"597.263 124 CURVE",
"660 124 LINE",
"660 -116 LINE",
"765 -116 LINE",
"765 545 LINE",
"660 545 LINE",
"660 219 LINE",
"600.284 219 LINE",
"593.015 385.059 OFFCURVE",
"530.223 560.056 OFFCURVE",
"363 561 CURVE SMOOTH",
"279 562 OFFCURVE",
"216 503 OFFCURVE",
"217 410 CURVE SMOOTH",
"218 323 OFFCURVE",
"277 264 OFFCURVE",
"356 265 CURVE SMOOTH",
"420.937 265 OFFCURVE",
"462.226 302.161 OFFCURVE",
"474.868 358.712 CURVE",
"488.38 317.528 OFFCURVE",
"495.564 268.598 OFFCURVE",
"497.486 219 CURVE",
"237 219 LINE SMOOTH",
"118 219 OFFCURVE",
"56 157 OFFCURVE",
"57 58 CURVE SMOOTH"
);
},
{
closed = 1;
nodes = (
"362.057 468.005 OFFCURVE",
"362.028 468 OFFCURVE",
"362 468 CURVE",
"382 468 OFFCURVE",
"409 453 OFFCURVE",
"409 413 CURVE SMOOTH",
"409 374 OFFCURVE",
"386 356 OFFCURVE",
"362 356 CURVE SMOOTH",
"333 356 OFFCURVE",
"314 383 OFFCURVE",
"314 416 CURVE SMOOTH",
"314 445 OFFCURVE",
"333 468 OFFCURVE",
"361 468 CURVE SMOOTH",
"361.362 468 OFFCURVE",
"361.725 468.005 OFFCURVE",
"362.085 468.005 CURVE"
);
},
{
closed = 1;
nodes = (
"493.395 124 LINE",
"477.312 18.119 OFFCURVE",
"418.146 -49 OFFCURVE",
"299 -49 CURVE SMOOTH",
"227 -49 OFFCURVE",
"163 -12 OFFCURVE",
"163 55 CURVE SMOOTH",
"163 92 OFFCURVE",
"186 124 OFFCURVE",
"233 124 CURVE SMOOTH"
);
}
);
width = 1075;
}
);
note = tml_Aa;
unicode = 0B86;
},
{
glyphname = tml_E;
lastChange = "2015-08-27 11:56:27 +0000";
layers = (
{
layerId = "CC11FE7D-5FF0-4B40-9597-DFC61EB94F41";
name = "Light Condensed";
paths = (
{
closed = 1;
nodes = (
"83 157 LINE",
"74 236 OFFCURVE",
"109 312 OFFCURVE",
"175 312 CURVE SMOOTH",
"242 312 OFFCURVE",
"268 235 OFFCURVE",
"268 170 CURVE SMOOTH",
"268 93 OFFCURVE",
"245 18 OFFCURVE",
"181 18 CURVE SMOOTH",
"126.082 18 OFFCURVE",
"94.934 73.465 OFFCURVE",
"82.873 157.144 CURVE"
);
},
{
closed = 1;
nodes = (
"85.338 413.5 OFFCURVE",
"149.569 510 OFFCURVE",
"291 510 CURVE SMOOTH",
"410 510 LINE",
"409 0 LINE",
"445 0 LINE",
"446 510 LINE",
"556 510 LINE",
"556 545 LINE",
"292 545 LINE",
"283 545 LINE",
"282.98 544.884 LINE",
"116.252 540.564 OFFCURVE",
"40 416 OFFCURVE",
"40 248 CURVE SMOOTH",
"40 95 OFFCURVE",
"85 -17 OFFCURVE",
"181 -17 CURVE SMOOTH",
"266 -17 OFFCURVE",
"304 65 OFFCURVE",
"304 170 CURVE SMOOTH",
"304 265 OFFCURVE",
"257 347 OFFCURVE",
"175 347 CURVE SMOOTH",
"133.064 347 OFFCURVE",
"97.788 322.025 OFFCURVE",
"77.765 276.373 CURVE"
);
}
);
width = 596;
},
{
layerId = "6114C541-D024-4A3E-9713-6FAF49EAB318";
name = "Bold Condensed";
paths = (
{
closed = 1;
nodes = (
"153.333 218.969 OFFCURVE",
"180.571 264 OFFCURVE",
"217 264 CURVE SMOOTH",
"243 264 OFFCURVE",
"270 232 OFFCURVE",
"270 173 CURVE SMOOTH",
"270 135 OFFCURVE",
"262 72 OFFCURVE",
"217 72 CURVE SMOOTH",
"187.599 72 OFFCURVE",
"169.938 104.479 OFFCURVE",
"160.833 151.812 CURVE"
);
},
{
closed = 1;
nodes = (
"188.516 409.149 OFFCURVE",
"231.283 450 OFFCURVE",
"297 450 CURVE SMOOTH",
"430 450 LINE",
"430 0 LINE",
"535 0 LINE",
"535 450 LINE",
"635 450 LINE",
"635 545 LINE",
"297 545 LINE",
"291 545 LINE",
"291 544.968 OFFCURVE",
"290.998 544.935 OFFCURVE",
"290.998 544.903 CURVE",
"141.649 541.015 OFFCURVE",
"54 428.476 OFFCURVE",
"54 239 CURVE SMOOTH",
"54 87 OFFCURVE",
"115 -24 OFFCURVE",
"217 -24 CURVE SMOOTH",
"312 -24 OFFCURVE",
"369 52 OFFCURVE",
"369 170 CURVE SMOOTH",
"369 307 OFFCURVE",
"290 362 OFFCURVE",
"222 362 CURVE SMOOTH",
"200.83 362 OFFCURVE",
"182.976 356.715 OFFCURVE",
"167.766 347.972 CURVE"
);
}
);
width = 660;
}
);
note = tml_E;
unicode = 0B8E;
},
{
glyphname = tml_Ee;
lastChange = "2015-08-27 11:56:47 +0000";
layers = (
{
layerId = "CC11FE7D-5FF0-4B40-9597-DFC61EB94F41";
name = "Light Condensed";
paths = (
{
closed = 1;
nodes = (
"183 -195 LINE",
"206 -219 LINE",
"445 0 LINE",
"446 510 LINE",
"556 510 LINE",
"556 545 LINE",
"292 545 LINE",
"283 545 LINE",
"282.98 544.884 LINE",
"116.252 540.564 OFFCURVE",
"40 416 OFFCURVE",
"40 248 CURVE SMOOTH",
"40 95 OFFCURVE",
"85 -17 OFFCURVE",
"181 -17 CURVE SMOOTH",
"266 -17 OFFCURVE",
"304 65 OFFCURVE",
"304 170 CURVE SMOOTH",
"304 265 OFFCURVE",
"257 347 OFFCURVE",
"175 347 CURVE SMOOTH",
"133.064 347 OFFCURVE",
"97.788 322.025 OFFCURVE",
"77.765 276.373 CURVE",
"85.338 413.5 OFFCURVE",
"149.569 510 OFFCURVE",
"291 510 CURVE SMOOTH",
"410 510 LINE",
"409.029 14.988 LINE",
"409 15 LINE"
);
},
{
closed = 1;
nodes = (
"83 157 LINE",
"74 236 OFFCURVE",
"109 312 OFFCURVE",
"175 312 CURVE SMOOTH",
"242 312 OFFCURVE",
"268 235 OFFCURVE",
"268 170 CURVE SMOOTH",
"268 93 OFFCURVE",
"245 18 OFFCURVE",
"181 18 CURVE SMOOTH",
"126.082 18 OFFCURVE",
"94.934 73.464 OFFCURVE",
"82.873 157.144 CURVE"
);
}
);
width = 659;
},
{
layerId = "6114C541-D024-4A3E-9713-6FAF49EAB318";
name = "Bold Condensed";
paths = (
{
closed = 1;
nodes = (
"416 48 LINE",
"194 -161 LINE",
"266 -236 LINE",
"521 0 LINE",
"521 450 LINE",
"621 450 LINE",
"621 545 LINE",
"283 545 LINE",
"277 545 LINE",
"277 544.968 OFFCURVE",
"276.998 544.935 OFFCURVE",
"276.998 544.903 CURVE",
"127.649 541.015 OFFCURVE",
"40 428.476 OFFCURVE",
"40 239 CURVE SMOOTH",
"40 87 OFFCURVE",
"101 -24 OFFCURVE",
"203 -24 CURVE SMOOTH",
"298 -24 OFFCURVE",
"355 52 OFFCURVE",
"355 170 CURVE SMOOTH",
"355 307 OFFCURVE",
"276 362 OFFCURVE",
"208 362 CURVE SMOOTH",
"186.83 362 OFFCURVE",
"168.976 356.715 OFFCURVE",
"153.766 347.972 CURVE",
"174.516 409.149 OFFCURVE",
"217.283 450 OFFCURVE",
"283 450 CURVE SMOOTH",
"416 450 LINE"
);
},
{
closed = 1;
nodes = (
"139.333 218.969 OFFCURVE",
"166.571 264 OFFCURVE",
"203 264 CURVE SMOOTH",
"229 264 OFFCURVE",
"256 232 OFFCURVE",
"256 173 CURVE SMOOTH",
"256 135 OFFCURVE",
"248 72 OFFCURVE",
"203 72 CURVE SMOOTH",
"173.599 72 OFFCURVE",
"155.938 104.479 OFFCURVE",
"146.833 151.812 CURVE"
);
}
);
width = 646;
}
);
note = tml_Ee;
unicode = 0B8F;
},
{
glyphname = tml_Ii;
lastChange = "2015-08-27 10:50:11 +0000";
layers = (
{
layerId = "CC11FE7D-5FF0-4B40-9597-DFC61EB94F41";
name = "Light Condensed";
paths = (
{
closed = 1;
nodes = (
"70 0 LINE",
"106 0 LINE",
"107 515 LINE",
"338.972 515 LINE",
"338 0 LINE",
"374 0 LINE",
"374.972 515 LINE",
"512 515 LINE",
"512 550 LINE",
"71 550 LINE"
);
},
{
closed = 1;
nodes = (
"422 259 OFFCURVE",
"438 244 OFFCURVE",
"456 244 CURVE SMOOTH",
"474 244 OFFCURVE",
"489 259 OFFCURVE",
"489 277 CURVE SMOOTH",
"489 295 OFFCURVE",
"474 310 OFFCURVE",
"456 310 CURVE SMOOTH",
"438 310 OFFCURVE",
"422 295 OFFCURVE",
"422 277 CURVE SMOOTH"
);
},
{
closed = 1;
nodes = (
"207 259 OFFCURVE",
"222 244 OFFCURVE",
"240 244 CURVE SMOOTH",
"258 244 OFFCURVE",
"274 259 OFFCURVE",
"274 277 CURVE SMOOTH",
"274 295 OFFCURVE",
"258 310 OFFCURVE",
"240 310 CURVE SMOOTH",
"222 310 OFFCURVE",
"207 295 OFFCURVE",
"207 277 CURVE SMOOTH"
);
}
);
width = 542;
},
{
layerId = "6114C541-D024-4A3E-9713-6FAF49EAB318";
name = "Bold Condensed";
paths = (
{
closed = 1;
nodes = (
"60 0 LINE",
"165 0 LINE",
"165 456 LINE",
"314 456 LINE",
"314 0 LINE",
"419 0 LINE",
"419 456 LINE",
"587 456 LINE",
"587 551 LINE",
"60 551 LINE"
);
},
{
closed = 1;
nodes = (
"434 248 OFFCURVE",
"460 221 OFFCURVE",
"490 221 CURVE SMOOTH",
"521 221 OFFCURVE",
"547 248 OFFCURVE",
"547 278 CURVE SMOOTH",
"547 308 OFFCURVE",
"521 335 OFFCURVE",
"490 335 CURVE SMOOTH",
"460 335 OFFCURVE",
"434 308 OFFCURVE",
"434 278 CURVE SMOOTH"
);
},
{
closed = 1;
nodes = (
"182 248 OFFCURVE",
"208 221 OFFCURVE",
"239 221 CURVE SMOOTH",
"269 221 OFFCURVE",
"295 248 OFFCURVE",
"295 278 CURVE SMOOTH",
"295 308 OFFCURVE",
"269 335 OFFCURVE",
"239 335 CURVE SMOOTH",
"208 335 OFFCURVE",
"182 308 OFFCURVE",
"182 278 CURVE SMOOTH"
);
}
);
width = 612;
}
);
note = tml_Ii;
unicode = 0B88;
},
{
glyphname = tml_Lla;
lastChange = "2015-08-27 12:01:03 +0000";
layers = (
{
layerId = "CC11FE7D-5FF0-4B40-9597-DFC61EB94F41";
name = "Light Condensed";
paths = (
{
closed = 1;
nodes = (
"93 95 OFFCURVE",
"138 -17 OFFCURVE",
"234 -17 CURVE SMOOTH",
"319 -17 OFFCURVE",
"357 65 OFFCURVE",
"357 170 CURVE SMOOTH",
"357 265 OFFCURVE",
"310 347 OFFCURVE",
"228 347 CURVE SMOOTH",
"185.874 347 OFFCURVE",
"150.468 321.798 OFFCURVE",
"130.493 275.75 CURVE",
"135.707 419.176 OFFCURVE",
"182.552 520 OFFCURVE",
"286 520 CURVE SMOOTH",
"375.847 520 OFFCURVE",
"425.444 430.553 OFFCURVE",
"430.56 304.955 CURVE",
"430 0 LINE",
"466 0 LINE",
"467 511 LINE",
"676 511 LINE",
"675 0 LINE",
"711 0 LINE",
"712 511 LINE",
"832 511 LINE",
"832 545 LINE",
"431 545 LINE",
"430.829 452.054 LINE",
"403.303 515.985 OFFCURVE",
"356.276 555 OFFCURVE",
"287 555 CURVE SMOOTH",
"154 555 OFFCURVE",
"93 426 OFFCURVE",
"93 248 CURVE SMOOTH"
);
},
{
closed = 1;
nodes = (
"136 157 LINE",
"127 236 OFFCURVE",
"162 312 OFFCURVE",
"228 312 CURVE SMOOTH",
"295 312 OFFCURVE",
"321 235 OFFCURVE",
"321 170 CURVE SMOOTH",
"321 93 OFFCURVE",
"298 18 OFFCURVE",
"234 18 CURVE SMOOTH",
"179.082 18 OFFCURVE",
"147.934 73.465 OFFCURVE",
"135.873 157.144 CURVE"
);
}
);
width = 892;
},
{
layerId = "6114C541-D024-4A3E-9713-6FAF49EAB318";
name = "Bold Condensed";
paths = (
{
closed = 1;
nodes = (
"54 87 OFFCURVE",
"115 -24 OFFCURVE",
"217 -24 CURVE SMOOTH",
"312 -24 OFFCURVE",
"369 52 OFFCURVE",
"369 170 CURVE SMOOTH",
"369 307 OFFCURVE",
"291 362 OFFCURVE",
"223 362 CURVE SMOOTH",
"199.128 362 OFFCURVE",
"179.448 355.422 OFFCURVE",
"163.011 344.804 CURVE",
"179.823 417.359 OFFCURVE",
"217.909 467 OFFCURVE",
"278 467 CURVE SMOOTH",
"366 467 OFFCURVE",
"422 377 OFFCURVE",
"424 242 CURVE SMOOTH",
"424 0 LINE",
"529 0 LINE",
"529 450 LINE",
"648 450 LINE",
"648 0 LINE",
"753 0 LINE",
"753 450 LINE",
"853 450 LINE",
"853 545 LINE",
"424 545 LINE",
"424 490.343 LINE",
"385.328 535.76 OFFCURVE",
"335.262 561.424 OFFCURVE",
"278 561 CURVE SMOOTH",
"137 560 OFFCURVE",
"54 441 OFFCURVE",
"54 239 CURVE SMOOTH"
);
},
{
closed = 1;
nodes = (
"153.334 218.968 OFFCURVE",
"180.613 264 OFFCURVE",
"218 264 CURVE SMOOTH",
"244 264 OFFCURVE",
"270 232 OFFCURVE",
"270 173 CURVE SMOOTH",
"270 135 OFFCURVE",
"262 72 OFFCURVE",
"217 72 CURVE SMOOTH",
"187.599 72 OFFCURVE",
"169.938 104.479 OFFCURVE",
"160.834 151.811 CURVE"
);
}
);
width = 878;
}
);
note = tml_Lla;
unicode = 0BB3;
},
{
glyphname = tml_Ma;
lastChange = "2015-08-27 11:59:14 +0000";
layers = (
{
layerId = "CC11FE7D-5FF0-4B40-9597-DFC61EB94F41";
name = "Light Condensed";
paths = (
{
closed = 1;
nodes = (
"59 0 LINE",
"378 0 LINE",
"382 0 LINE",
"382 0.059 LINE",
"464.255 2.523 OFFCURVE",
"502.984 81.721 OFFCURVE",
"502 251 CURVE SMOOTH",
"501 413 OFFCURVE",
"451 562 OFFCURVE",
"335 561 CURVE SMOOTH",
"272 561 OFFCURVE",
"234 521 OFFCURVE",
"234 434 CURVE SMOOTH",
"235.869 35 LINE",
"94 35 LINE",
"94 545 LINE",
"59 545 LINE"
);
},
{
closed = 1;
nodes = (
"270.861 35 LINE",
"269 424 LINE",
"269 493 OFFCURVE",
"293 525 OFFCURVE",
"336 525 CURVE SMOOTH",
"428 525 OFFCURVE",
"465 390 OFFCURVE",
"465 251 CURVE SMOOTH",
"465 125.399 OFFCURVE",
"444.46 35.987 OFFCURVE",
"377.262 35 CURVE SMOOTH",
"375 35 LINE"
);
}
);
width = 572;
},
{
layerId = "6114C541-D024-4A3E-9713-6FAF49EAB318";
name = "Bold Condensed";
paths = (
{
closed = 1;
nodes = (
"60 0 LINE",
"389 0 LINE",
"393 0 LINE",
"393 0.01 OFFCURVE",
"392.995 0.02 OFFCURVE",
"392.995 0.029 CURVE",
"515.279 1.833 OFFCURVE",
"573.989 86.993 OFFCURVE",
"573 271 CURVE SMOOTH",
"572 404 OFFCURVE",
"519 562 OFFCURVE",
"399 561 CURVE SMOOTH",
"284 560 OFFCURVE",
"250 496 OFFCURVE",
"250 382 CURVE SMOOTH",
"250 95 LINE",
"165 95 LINE",
"165 545 LINE",
"60 545 LINE"
);
},
{
closed = 1;
nodes = (
"355 95 LINE",
"355 382 LINE SMOOTH",
"355 433 OFFCURVE",
"360 465 OFFCURVE",
"400 465 CURVE SMOOTH",
"448 465 OFFCURVE",
"468 355 OFFCURVE",
"468 271 CURVE SMOOTH",
"468 172.286 OFFCURVE",
"461.179 95.984 OFFCURVE",
"374.431 95 CURVE SMOOTH",
"371 95 LINE"
);
}
);
width = 624;
}
);
note = tml_Ma;
unicode = 0BAE;
},
{
glyphname = tml_Nna;
lastChange = "2015-08-27 11:57:59 +0000";
layers = (
{
layerId = "CC11FE7D-5FF0-4B40-9597-DFC61EB94F41";
name = "Light Condensed";
paths = (
{
closed = 1;
nodes = (
"560.679 402.801 OFFCURVE",
"591 322.241 OFFCURVE",
"591 216 CURVE SMOOTH",
"591 102 OFFCURVE",
"569 19 OFFCURVE",
"521 19 CURVE SMOOTH",
"473 19 OFFCURVE",
"447 104 OFFCURVE",
"447 221 CURVE SMOOTH",
"447 336.819 OFFCURVE",
"472.835 409.665 OFFCURVE",
"511.568 453.38 CURVE"
);
},
{
closed = 1;
nodes = (
"823.06 401.043 OFFCURVE",
"851 328.429 OFFCURVE",
"851 216 CURVE SMOOTH",
"851 102 OFFCURVE",
"829 19 OFFCURVE",
"781 19 CURVE SMOOTH",
"737 19 OFFCURVE",
"714 104 OFFCURVE",
"714 221 CURVE SMOOTH",
"714 330.604 OFFCURVE",
"742.177 401.723 OFFCURVE",
"785.044 446.089 CURVE"
);
},
{
closed = 1;
nodes = (
"949 1 LINE",
"985 1 LINE",
"985 511 LINE",
"1085 511 LINE",
"1085 545 LINE",
"960 545 LINE",
"937 545 LINE",
"936.773 544.355 LINE",
"882.036 541.265 OFFCURVE",
"830.237 526.842 OFFCURVE",
"787.507 496.293 CURVE",
"738.56 536.434 OFFCURVE",
"683.234 545 OFFCURVE",
"650 545 CURVE SMOOTH",
"599.467 545 OFFCURVE",
"550.865 532.615 OFFCURVE",
"510.772 501.846 CURVE",
"468.28 533.806 OFFCURVE",
"417.274 550 OFFCURVE",
"363 550 CURVE SMOOTH",
"352 550 LINE",
"351 550 LINE",
"351 550 LINE SMOOTH",
"178.696 549.506 OFFCURVE",
"100 421.664 OFFCURVE",
"100 248 CURVE SMOOTH",
"100 95 OFFCURVE",
"145 -17 OFFCURVE",
"241 -17 CURVE SMOOTH",
"326 -17 OFFCURVE",
"364 65 OFFCURVE",
"364 170 CURVE SMOOTH",
"364 265 OFFCURVE",
"317 347 OFFCURVE",
"235 347 CURVE SMOOTH",
"193.048 347 OFFCURVE",
"157.761 322.006 OFFCURVE",
"137.742 276.32 CURVE",
"145.205 415.541 OFFCURVE",
"209.422 514 OFFCURVE",
"351 514 CURVE SMOOTH",
"355 514 OFFCURVE",
"360 515 OFFCURVE",
"364 515 CURVE SMOOTH",
"408.688 515 OFFCURVE",
"449.655 502.04 OFFCURVE",
"484.117 477.158 CURVE",
"439.088 427.158 OFFCURVE",
"410 345.767 OFFCURVE",
"410 221 CURVE SMOOTH",
"410 83 OFFCURVE",
"449 -17 OFFCURVE",
"519 -17 CURVE SMOOTH",
"590 -17 OFFCURVE",
"628 81 OFFCURVE",
"628 216 CURVE SMOOTH",
"628 334.306 OFFCURVE",
"593.009 421.959 OFFCURVE",
"538.267 477.715 CURVE",
"571.55 501.945 OFFCURVE",
"610.701 511 OFFCURVE",
"650 511 CURVE SMOOTH",
"683.353 511 OFFCURVE",
"723.319 500.488 OFFCURVE",
"758.796 471.853 CURVE",
"708.865 421.472 OFFCURVE",
"677 341.449 OFFCURVE",
"677 221 CURVE SMOOTH",
"677 83 OFFCURVE",
"714 -17 OFFCURVE",
"779 -17 CURVE SMOOTH",
"850 -17 OFFCURVE",
"888 81 OFFCURVE",
"888 216 CURVE SMOOTH",
"888 343.258 OFFCURVE",
"855.871 422.132 OFFCURVE",
"813.86 470.602 CURVE",
"853.441 498.097 OFFCURVE",
"900.94 509.375 OFFCURVE",
"949 510.834 CURVE"
);
},
{
closed = 1;
nodes = (
"143 157 LINE",
"134 236 OFFCURVE",
"169 312 OFFCURVE",
"235 312 CURVE SMOOTH",
"302 312 OFFCURVE",
"328 235 OFFCURVE",
"328 170 CURVE SMOOTH",
"328 93 OFFCURVE",
"305 18 OFFCURVE",
"241 18 CURVE SMOOTH",
"186.082 18 OFFCURVE",
"154.934 73.465 OFFCURVE",
"142.873 157.144 CURVE"
);
}
);
width = 1115;
},
{
layerId = "6114C541-D024-4A3E-9713-6FAF49EAB318";
name = "Bold Condensed";
paths = (
{
closed = 1;
nodes = (
"878.069 340.272 OFFCURVE",
"896 284.395 OFFCURVE",
"896 207 CURVE SMOOTH",
"896 130 OFFCURVE",
"885 72 OFFCURVE",
"858 72 CURVE SMOOTH",
"831 72 OFFCURVE",
"818 137 OFFCURVE",
"818 208 CURVE SMOOTH",
"818 279.641 OFFCURVE",
"827.904 338.002 OFFCURVE",
"850.703 379.557 CURVE"
);
},
{
closed = 1;
nodes = (
"730.892 387.083 OFFCURVE",
"713 306.035 OFFCURVE",
"713 208 CURVE SMOOTH",
"713 53 OFFCURVE",
"761 -24 OFFCURVE",
"858 -24 CURVE SMOOTH",
"959 -24 OFFCURVE",
"1002 51 OFFCURVE",
"1002 208 CURVE SMOOTH",
"1002 312.019 OFFCURVE",
"974.301 389.724 OFFCURVE",
"930.932 445.004 CURVE",
"945.09 448.965 OFFCURVE",
"960.749 451 OFFCURVE",
"978 451 CURVE SMOOTH",
"1051 451 LINE",
"1051 0 LINE",
"1156 0 LINE",
"1156 451 LINE",
"1256 451 LINE",
"1256 546 LINE",
"977 546 LINE SMOOTH",
"925.814 545.723 OFFCURVE",
"882.743 535.495 OFFCURVE",
"847.215 516.48 CURVE",
"800.669 542.469 OFFCURVE",
"748.076 554.912 OFFCURVE",
"695.997 555.932 CURVE",
"695.997 555.954 OFFCURVE",
"696 555.977 OFFCURVE",
"696 556 CURVE",
"694.992 555.995 OFFCURVE",
"693.987 555.988 OFFCURVE",
"692.984 555.978 CURVE SMOOTH",
"691.656 555.993 OFFCURVE",
"690.328 556 OFFCURVE",
"689 556 CURVE",
"689 555.922 LINE",
"621.279 554.721 OFFCURVE",
"565.761 540.567 OFFCURVE",
"521.477 515.183 CURVE",
"473.497 542.729 OFFCURVE",
"418.878 555.53 OFFCURVE",
"365 555.987 CURVE",
"365 556 LINE",
"362 556 LINE",
"343 556 LINE SMOOTH",
"152 555 OFFCURVE",
"40 438 OFFCURVE",
"40 239 CURVE SMOOTH",
"40 87 OFFCURVE",
"101 -24 OFFCURVE",
"203 -24 CURVE SMOOTH",
"298 -24 OFFCURVE",
"355 52 OFFCURVE",
"355 170 CURVE SMOOTH",
"355 307 OFFCURVE",
"277 362 OFFCURVE",
"209 362 CURVE SMOOTH",
"189.528 362 OFFCURVE",
"172.844 357.623 OFFCURVE",
"158.435 350.247 CURVE",
"187.309 416.753 OFFCURVE",
"248.502 461 OFFCURVE",
"343 461 CURVE SMOOTH",
"362 461 LINE SMOOTH",
"388.371 461 OFFCURVE",
"416.674 456.129 OFFCURVE",
"443.574 444.44 CURVE",
"401.516 385.208 OFFCURVE",
"382 304.597 OFFCURVE",
"382 208 CURVE SMOOTH",
"382 53 OFFCURVE",
"430 -24 OFFCURVE",
"528 -24 CURVE SMOOTH",
"630 -24 OFFCURVE",
"673 51 OFFCURVE",
"673 208 CURVE SMOOTH",
"673 312.295 OFFCURVE",
"645.327 390.137 OFFCURVE",
"602.035 445.444 CURVE",
"626.858 455.499 OFFCURVE",
"656.15 460.829 OFFCURVE",
"690.334 460.996 CURVE SMOOTH",
"716.013 460.839 OFFCURVE",
"743.423 456.156 OFFCURVE",
"769.585 445.218 CURVE"
);
},
{
closed = 1;
nodes = (
"139.334 218.968 OFFCURVE",
"166.612 264 OFFCURVE",
"204 264 CURVE SMOOTH",
"230 264 OFFCURVE",
"256 232 OFFCURVE",
"256 173 CURVE SMOOTH",
"256 135 OFFCURVE",
"248 72 OFFCURVE",
"203 72 CURVE SMOOTH",
"173.599 72 OFFCURVE",
"155.938 104.479 OFFCURVE",
"146.833 151.811 CURVE"
);
},
{
closed = 1;
nodes = (
"549.809 338.413 OFFCURVE",
"567 283.111 OFFCURVE",
"567 207 CURVE SMOOTH",
"567 130 OFFCURVE",
"556 72 OFFCURVE",
"528 72 CURVE SMOOTH",
"500 72 OFFCURVE",
"487 137 OFFCURVE",
"487 208 CURVE SMOOTH",
"487 277.493 OFFCURVE",
"498.167 335.034 OFFCURVE",
"523.451 377.589 CURVE"
);
}
);
width = 1274;
}
);
note = tml_Nna;
unicode = 0BA3;
},
{
glyphname = tml_Nnna;
lastChange = "2015-08-27 11:58:20 +0000";
layers = (
{
layerId = "CC11FE7D-5FF0-4B40-9597-DFC61EB94F41";
name = "Light Condensed";
paths = (
{
closed = 1;
nodes = (
"512.012 391.287 OFFCURVE",
"539 314.733 OFFCURVE",
"539 216 CURVE SMOOTH",
"539 102 OFFCURVE",
"517 19 OFFCURVE",
"469 19 CURVE SMOOTH",
"421 19 OFFCURVE",
"395 104 OFFCURVE",
"395 221 CURVE SMOOTH",
"395 327.464 OFFCURVE",
"423.53 397.616 OFFCURVE",
"467.428 442.209 CURVE"
);
},
{
closed = 1;
nodes = (
"669 511 LINE",
"669 1 LINE",
"705 1 LINE",
"705 511 LINE",
"805 511 LINE",
"805 545 LINE",
"660 545 LINE",
"657 545 LINE",
"656.997 544.991 LINE SMOOTH",
"587.526 544.565 OFFCURVE",
"521.27 529.289 OFFCURVE",
"468.865 491.375 CURVE",
"422.657 530.266 OFFCURVE",
"364.992 550 OFFCURVE",
"303 550 CURVE SMOOTH",
"292 550 LINE",
"291 550 LINE",
"291 550 LINE SMOOTH",
"118.696 549.506 OFFCURVE",
"40 421.664 OFFCURVE",
"40 248 CURVE SMOOTH",
"40 95 OFFCURVE",
"85 -17 OFFCURVE",
"181 -17 CURVE SMOOTH",
"266 -17 OFFCURVE",
"304 65 OFFCURVE",
"304 170 CURVE SMOOTH",
"304 265 OFFCURVE",
"257 347 OFFCURVE",
"175 347 CURVE SMOOTH",
"133.048 347 OFFCURVE",
"97.761 322.006 OFFCURVE",
"77.742 276.32 CURVE",
"85.205 415.541 OFFCURVE",
"149.422 514 OFFCURVE",
"291 514 CURVE SMOOTH",
"295 514 OFFCURVE",
"300 515 OFFCURVE",
"304 515 CURVE SMOOTH",
"355.965 515 OFFCURVE",
"402.967 498.758 OFFCURVE",
"441.041 467.733 CURVE",
"390.205 417.147 OFFCURVE",
"358 338.216 OFFCURVE",
"358 221 CURVE SMOOTH",
"358 83 OFFCURVE",
"397 -17 OFFCURVE",
"467 -17 CURVE SMOOTH",
"538 -17 OFFCURVE",
"576 81 OFFCURVE",
"576 216 CURVE SMOOTH",
"576 326.158 OFFCURVE",
"544.911 409.74 OFFCURVE",
"495.161 465.742 CURVE",
"542.308 499.019 OFFCURVE",
"601.056 511 OFFCURVE",
"660 511 CURVE SMOOTH"
);
},
{
closed = 1;
nodes = (
"83 157 LINE",
"74 236 OFFCURVE",
"109 312 OFFCURVE",
"175 312 CURVE SMOOTH",
"242 312 OFFCURVE",
"268 235 OFFCURVE",
"268 170 CURVE SMOOTH",
"268 93 OFFCURVE",
"245 18 OFFCURVE",
"181 18 CURVE SMOOTH",
"126.082 18 OFFCURVE",
"94.934 73.465 OFFCURVE",
"82.873 157.144 CURVE"
);
}
);
width = 835;
},
{
layerId = "6114C541-D024-4A3E-9713-6FAF49EAB318";
name = "Bold Condensed";
paths = (
{
closed = 1;
nodes = (
"548.246 342.797 OFFCURVE",
"567 286.151 OFFCURVE",
"567 207 CURVE SMOOTH",
"567 130 OFFCURVE",
"556 72 OFFCURVE",
"528 72 CURVE SMOOTH",
"499 72 OFFCURVE",
"485 137 OFFCURVE",
"485 208 CURVE SMOOTH",
"485 281.177 OFFCURVE",
"495.568 340.497 OFFCURVE",
"519.892 382.206 CURVE"
);
},
{
closed = 1;
nodes = (
"398.366 388.187 OFFCURVE",
"380 306.703 OFFCURVE",
"380 208 CURVE SMOOTH",
"380 53 OFFCURVE",
"429 -24 OFFCURVE",
"528 -24 CURVE SMOOTH",
"630 -24 OFFCURVE",
"673 51 OFFCURVE",
"673 208 CURVE SMOOTH",
"673 312.284 OFFCURVE",
"645.16 390.119 OFFCURVE",
"601.673 445.426 CURVE",
"615.67 449.11 OFFCURVE",
"631.085 451 OFFCURVE",
"648 451 CURVE SMOOTH",
"720 451 LINE",
"720 0 LINE",
"825 0 LINE",
"825 451 LINE",
"925 451 LINE",
"925 546 LINE",
"647 546 LINE SMOOTH",
"595.926 545.727 OFFCURVE",
"552.834 535.756 OFFCURVE",
"517.174 517.209 CURVE",
"469.91 543.357 OFFCURVE",
"416.544 555.541 OFFCURVE",
"364 555.987 CURVE",
"364 556 LINE",
"361 556 LINE",
"342 556 LINE SMOOTH",
"152 555 OFFCURVE",
"40 438 OFFCURVE",
"40 239 CURVE SMOOTH",
"40 87 OFFCURVE",
"101 -24 OFFCURVE",
"203 -24 CURVE SMOOTH",
"298 -24 OFFCURVE",
"355 52 OFFCURVE",
"355 170 CURVE SMOOTH",
"355 307 OFFCURVE",
"277 362 OFFCURVE",
"209 362 CURVE SMOOTH",
"188.479 362 OFFCURVE",
"171.057 357.139 OFFCURVE",
"156.128 349.03 CURVE",
"182.649 416.213 OFFCURVE",
"241.376 461 OFFCURVE",
"342 461 CURVE SMOOTH",
"361 461 LINE SMOOTH",
"385.843 461 OFFCURVE",
"412.475 456.677 OFFCURVE",
"438.068 446.404 CURVE"
);
},
{
closed = 1;
nodes = (
"139.334 218.968 OFFCURVE",
"166.613 264 OFFCURVE",
"204 264 CURVE SMOOTH",
"230 264 OFFCURVE",
"256 232 OFFCURVE",
"256 173 CURVE SMOOTH",
"256 135 OFFCURVE",
"248 72 OFFCURVE",
"203 72 CURVE SMOOTH",
"173.599 72 OFFCURVE",
"155.938 104.479 OFFCURVE",
"146.834 151.811 CURVE"
);
}
);
width = 940;
}
);
note = tml_Nnna;
unicode = 0BA9;
},
{
glyphname = tml_Nya;
lastChange = "2015-08-27 11:57:16 +0000";
layers = (
{
layerId = "CC11FE7D-5FF0-4B40-9597-DFC61EB94F41";
name = "Light Condensed";
paths = (
{
closed = 1;
nodes = (
"31 -119 OFFCURVE",
"269 -171 OFFCURVE",
"422 -171 CURVE SMOOTH",
"624 -171 OFFCURVE",
"742 -33 OFFCURVE",
"742 162 CURVE SMOOTH",
"742 247 OFFCURVE",
"716 334 OFFCURVE",
"636 334 CURVE SMOOTH",
"603.063 334 OFFCURVE",
"576.276 319.24 OFFCURVE",
"557.568 289.721 CURVE",
"558 510 LINE",
"668 510 LINE",
"668 545 LINE",
"404 545 LINE",
"395 545 LINE",
"394.98 544.884 LINE",
"228.252 540.564 OFFCURVE",
"152 416 OFFCURVE",
"152 248 CURVE SMOOTH",
"152 95 OFFCURVE",
"197 -17 OFFCURVE",
"293 -17 CURVE SMOOTH",
"378 -17 OFFCURVE",
"416 65 OFFCURVE",
"416 170 CURVE SMOOTH",
"416 265 OFFCURVE",
"369 347 OFFCURVE",
"287 347 CURVE SMOOTH",
"245.064 347 OFFCURVE",
"209.788 322.025 OFFCURVE",
"189.765 276.373 CURVE",
"197.338 413.5 OFFCURVE",
"261.569 510 OFFCURVE",
"403 510 CURVE SMOOTH",
"522 510 LINE",
"521 0 LINE",
"557 0 LINE",
"557.347 176.911 LINE",
"559.249 199.746 OFFCURVE",
"563.263 222.462 OFFCURVE",
"570 242 CURVE SMOOTH",
"581 276 OFFCURVE",
"602 300 OFFCURVE",
"638 300 CURVE SMOOTH",
"691 300 OFFCURVE",
"708 235 OFFCURVE",
"708 158 CURVE SMOOTH",
"708 15 OFFCURVE",
"618 -135 OFFCURVE",
"422 -135 CURVE SMOOTH",
"215 -135 OFFCURVE",
"64 -36 OFFCURVE",
"64 244 CURVE SMOOTH",
"64 333 OFFCURVE",
"86 421 OFFCURVE",
"142 517 CURVE",
"112 531 LINE",
"54 429 OFFCURVE",
"30 333 OFFCURVE",
"30 242 CURVE SMOOTH"
);
},
{
closed = 1;
nodes = (
"195 157 LINE",
"186 236 OFFCURVE",
"221 312 OFFCURVE",
"287 312 CURVE SMOOTH",
"354 312 OFFCURVE",
"380 235 OFFCURVE",
"380 170 CURVE SMOOTH",
"380 93 OFFCURVE",
"357 18 OFFCURVE",
"293 18 CURVE SMOOTH",
"238.082 18 OFFCURVE",
"206.934 73.464 OFFCURVE",
"194.873 157.144 CURVE"
);
}
);
width = 774;
},
{
layerId = "6114C541-D024-4A3E-9713-6FAF49EAB318";
name = "Bold Condensed";
paths = (
{
closed = 1;
nodes = (
"95 -90 OFFCURVE",
"288 -269 OFFCURVE",
"571 -270 CURVE SMOOTH",
"836 -271 OFFCURVE",
"1007 -126 OFFCURVE",
"1006 116 CURVE",
"1006 244 OFFCURVE",
"950 365 OFFCURVE",
"835 367 CURVE SMOOTH",
"811.148 367.459 OFFCURVE",
"789.61 362.447 OFFCURVE",
"770 351.964 CURVE",
"770 450 LINE",
"870 450 LINE",
"870 545 LINE",
"578 545 LINE",
"562 545 LINE",
"562 544.874 OFFCURVE",
"561.992 544.749 OFFCURVE",
"561.992 544.623 CURVE",
"387.752 537.297 OFFCURVE",
"286 425.363 OFFCURVE",
"286 239 CURVE SMOOTH",
"286 87 OFFCURVE",
"347 -24 OFFCURVE",
"449 -24 CURVE SMOOTH",
"544 -24 OFFCURVE",
"601 52 OFFCURVE",
"601 170 CURVE SMOOTH",
"601 307 OFFCURVE",
"523 362 OFFCURVE",
"455 362 CURVE SMOOTH",
"435.324 362 OFFCURVE",
"418.496 357.531 OFFCURVE",
"403.984 350.014 CURVE",
"430.351 410.057 OFFCURVE",
"485.55 450 OFFCURVE",
"578 450 CURVE SMOOTH",
"665 450 LINE",
"665 0 LINE",
"770 0 LINE",
"770 93 LINE",
"770 148 LINE",
"770 163.456 LINE SMOOTH",
"770.961 230.474 OFFCURVE",
"785.25 266 OFFCURVE",
"829 266 CURVE SMOOTH",
"883 266 OFFCURVE",
"904 189 OFFCURVE",
"904 111 CURVE SMOOTH",
"904 -68 OFFCURVE",
"778 -172 OFFCURVE",
"572 -173 CURVE SMOOTH",
"356 -174 OFFCURVE",
"200 -37 OFFCURVE",
"200 221 CURVE SMOOTH",
"200 351 OFFCURVE",
"236 423 OFFCURVE",
"289 514 CURVE",
"200 558 LINE",
"144 467 OFFCURVE",
"94 362 OFFCURVE",
"94 227 CURVE SMOOTH"
);
},
{
closed = 1;
nodes = (
"385.334 218.968 OFFCURVE",
"412.613 264 OFFCURVE",
"450 264 CURVE SMOOTH",
"476 264 OFFCURVE",
"502 232 OFFCURVE",
"502 173 CURVE SMOOTH",
"502 135 OFFCURVE",
"494 72 OFFCURVE",
"449 72 CURVE SMOOTH",
"419.599 72 OFFCURVE",
"401.938 104.478 OFFCURVE",
"392.834 151.811 CURVE"
);
}
);
width = 1156;
}
);
note = tml_Nya;
unicode = 0B9E;
},
{
glyphname = tml_Pa;
lastChange = "2015-08-27 11:58:57 +0000";
layers = (
{
layerId = "CC11FE7D-5FF0-4B40-9597-DFC61EB94F41";
name = "Light Condensed";
paths = (
{
closed = 1;
nodes = (
"58 0 LINE",
"388 0 LINE",
"388 545 LINE",
"352 545 LINE",
"352 34 LINE",
"94 34 LINE",
"94 545 LINE",
"58 545 LINE"
);
}
);
width = 448;
},
{
layerId = "6114C541-D024-4A3E-9713-6FAF49EAB318";
name = "Bold Condensed";
paths = (
{
closed = 1;
nodes = (
"70 0 LINE",
"451 0 LINE",
"451 543 LINE",
"346 543 LINE",
"346 100 LINE",
"175 100 LINE",
"175 543 LINE",
"70 543 LINE"
);
}
);
width = 511;
}
);
note = tml_Pa;
unicode = 0BAA;
},
{
glyphname = tml_Ra;
lastChange = "2015-08-27 11:59:58 +0000";
layers = (
{
layerId = "CC11FE7D-5FF0-4B40-9597-DFC61EB94F41";
name = "Light Condensed";
paths = (
{
closed = 1;
nodes = (
"92 -195 LINE",
"115 -219 LINE",
"354 0 LINE",
"355 510 LINE",
"465 510 LINE",
"465 545 LINE",
"61 545 LINE",
"60 0 LINE",
"96 0 LINE",
"97 510 LINE",
"319 510 LINE",
"318.029 14.988 LINE",
"318 15 LINE"
);
}
);
width = 485;
},
{
layerId = "6114C541-D024-4A3E-9713-6FAF49EAB318";
name = "Bold Condensed";
paths = (
{
closed = 1;
nodes = (
"58 0 LINE",
"163 0 LINE",
"163 456 LINE",
"282 456 LINE",
"282 30.121 LINE",
"69 -170 LINE",
"133 -236 LINE",
"388 0 LINE",
"387 0.308 LINE",
"387 456 LINE",
"487 456 LINE",
"487 551 LINE",
"58 551 LINE"
);
}
);
width = 498;
}
);
note = tml_Ra;
unicode = 0BB0;
},
